<svg width="200" height="176" viewBox="0 0 200 176" fill="none" xmlns="http://www.w3.org/2000/svg">
<path d="M13.7706 87.5205C41.8904 85.0101 70.3279 83.6716 99.1196 83.6299C127.864 83.5882 156.906 84.8487 186.26 87.5414C187.286 87.6299 188.062 88.5257 188.062 89.5726H188.067V95.958C188.067 97.0882 187.187 98.0049 186.094 98.0049C185.979 98.0049 185.849 97.9997 185.739 97.9737C158.588 95.4841 130.786 94.1716 102.239 94.1403C73.6768 94.1039 44.3123 95.3539 14.0466 97.9893C10.7029 98.2757 11.906 91.0882 11.906 89.5622C11.9112 88.4737 12.7393 87.5882 13.7706 87.5205Z" fill="#1C1D29"/>
<path fill-rule="evenodd" clip-rule="evenodd" d="M13.896 89.5626C70.172 84.5313 127.5 84.1928 186.104 89.5626C186.104 91.6928 186.104 93.8282 186.104 95.948C131.568 90.9428 74.4325 90.6771 13.896 95.948V89.5626Z" fill="#808996"/>
<mask id="mask0_1313_2907" style="mask-type:luminance" maskUnits="userSpaceOnUse" x="56" y="165" width="86" height="11">
<path d="M56.6665 165.609H142V175.193H56.6665V165.609Z" fill="white"/>
</mask>
<g mask="url(#mask0_1313_2907)">
<path fill-rule="evenodd" clip-rule="evenodd" d="M98.8122 166.75C122.062 166.75 140.916 168.635 140.916 170.969C140.916 173.307 122.062 175.193 98.8122 175.193C75.557 175.193 56.708 173.307 56.708 170.969C56.708 168.635 75.557 166.75 98.8122 166.75Z" fill="#1C1D29"/>
</g>
<path d="M123.594 92.0412C124.031 90.6142 125.812 90.1506 126.932 91.0517C132.276 94.7548 137.193 99.3017 141.807 103.89C143.245 101.63 145.135 98.8225 147.156 96.4371C150.443 92.5777 154.167 89.8902 157.521 91.7287C161.672 93.9944 161.739 98.6558 159.891 104.005C158.292 108.64 155.25 113.859 152.453 118.208C151.052 120.395 149.823 122.083 148.682 123.281C147.276 124.744 145.922 125.536 144.463 125.666C142.135 125.859 138.068 124.036 133.807 121.567C127.88 118.14 121.281 113.343 119.099 111.349C117.088 109.52 122.734 94.7548 123.594 92.0412ZM122.911 109.197C125.562 111.364 130.963 115.187 135.937 118.072C139.547 120.161 142.781 121.718 144.114 121.609C144.453 121.588 144.948 121.213 145.614 120.515C146.536 119.546 147.614 118.057 148.896 116.046C151.578 111.885 154.469 106.947 155.922 102.718C157.135 99.2131 157.359 96.3121 155.453 95.2652C154.453 94.7183 152.437 96.5881 150.37 99.0152C148.797 100.864 144.417 108.692 142.739 109.145C142.026 109.343 141.224 109.156 140.672 108.599C136.333 104.203 131.672 99.7235 126.739 95.984C125.432 100.385 124.26 104.817 122.911 109.197Z" fill="#1C1D29"/>
<path fill-rule="evenodd" clip-rule="evenodd" d="M120.526 109.864C122.375 103.958 123.745 98.5306 125.594 92.6191C131.453 96.6504 137.26 102.202 142.193 107.202C145.015 102.598 152.135 91.1191 156.495 93.5046C162.562 96.8171 156.161 108.624 150.682 117.135C147.984 121.322 146.094 123.489 144.292 123.64C139.745 124.015 124.073 113.109 120.526 109.864Z" fill="#384357"/>
<path fill-rule="evenodd" clip-rule="evenodd" d="M153.729 93.5155C154.714 93.1041 155.656 93.0416 156.49 93.5051C162.557 96.8176 156.151 108.625 150.672 117.135C150.438 117.5 150.208 117.854 149.984 118.187C153.854 110.073 157.141 102.615 156.974 98.0208C156.901 95.6978 155.849 93.828 153.729 93.5155Z" fill="#697791"/>
<path fill-rule="evenodd" clip-rule="evenodd" d="M120.526 109.864C122.375 103.958 123.745 98.5306 125.594 92.6191C129.495 95.3014 133.375 98.6608 136.979 102.083C133.89 106.213 133.5 112.807 135.661 120.281C129.661 116.885 122.734 111.885 120.526 109.864Z" fill="#263042"/>
<path d="M77.9846 109.197C76.6408 104.817 75.4637 100.385 74.1512 95.9836C69.219 99.7336 64.5575 104.202 60.219 108.598C59.4221 109.405 58.1044 109.432 57.271 108.655C55.5731 107.083 52.7242 101.598 50.5315 99.0148C48.4637 96.5878 46.4481 94.718 45.4481 95.2648C43.5367 96.3117 43.7658 99.2128 44.9742 102.718C46.4273 106.937 49.3283 111.885 52.0002 116.046C53.2867 118.046 54.3648 119.546 55.2867 120.515C55.9533 121.213 56.4481 121.577 56.7815 121.609C58.1252 121.718 61.3544 120.161 64.9585 118.072C69.9273 115.187 75.3387 111.364 77.9846 109.197ZM81.8023 111.348C79.6148 113.353 73.021 118.14 67.094 121.567C62.8335 124.036 58.7658 125.848 56.4377 125.666C54.9742 125.546 53.6252 124.754 52.219 123.28C51.0783 122.083 49.8492 120.395 48.4481 118.208C45.646 113.859 42.6044 108.64 41.0106 104.004C39.1669 98.6555 39.2294 93.994 43.3804 91.7284C46.7294 89.8898 50.4533 92.5773 53.7398 96.4367C55.7658 98.8221 57.6565 101.629 59.094 103.89C63.7085 99.3013 68.6252 94.744 73.969 91.0513C74.1773 90.8846 74.4221 90.7492 74.6981 90.6763C75.8075 90.3534 76.969 90.9628 77.3075 92.0409C78.1565 94.7544 83.8075 109.52 81.8023 111.348Z" fill="#1C1D29"/>
<path fill-rule="evenodd" clip-rule="evenodd" d="M80.3748 109.864C78.5258 103.958 77.156 98.5306 75.3071 92.6191C69.4477 96.6504 63.6404 102.202 58.7081 107.202C55.8852 102.598 48.7654 91.1191 44.406 93.5046C38.3383 96.8171 44.7394 108.624 50.2185 117.135C52.9165 121.322 54.8071 123.489 56.604 123.64C61.1508 124.015 76.8279 113.109 80.3748 109.864Z" fill="#384357"/>
<path fill-rule="evenodd" clip-rule="evenodd" d="M47.1612 93.5155C46.1769 93.1041 45.2342 93.0416 44.406 93.5051C38.3383 96.8176 44.7394 108.625 50.2185 117.135C50.4529 117.5 50.6821 117.854 50.906 118.187C47.0362 110.073 43.755 102.615 43.9165 98.0208C43.9998 95.6978 45.0519 93.828 47.1612 93.5155Z" fill="#697791"/>
<path fill-rule="evenodd" clip-rule="evenodd" d="M80.3752 109.864C78.5262 103.958 77.1564 98.5306 75.3075 92.6191C71.4064 95.3014 67.521 98.6608 63.9116 102.083C67.0002 106.213 67.3908 112.807 65.2293 120.281C71.2397 116.885 78.1616 111.885 80.3752 109.864Z" fill="#263042"/>
<path fill-rule="evenodd" clip-rule="evenodd" d="M171.578 51.0566C162.099 55.0671 154.328 47.3848 147.312 34.541C146.047 36.5098 144.771 41.2233 146.713 44.5931C151.114 52.2181 162.713 62.7702 170.015 60.916C169.698 57.8014 170.364 55.39 171.578 51.0566Z" fill="#1C1D29"/>
<path fill-rule="evenodd" clip-rule="evenodd" d="M176.562 27.3018C168.781 33.8747 157.318 25.8434 146.604 37.7445C143.99 40.6403 145.042 45.4945 147.057 48.3591C156.073 29.2653 168.297 45.6715 180.161 39.3955C178.016 36.1507 176.641 31.8018 176.562 27.3018Z" fill="#1C1D29"/>
<path fill-rule="evenodd" clip-rule="evenodd" d="M58.3022 145.047C66.6147 145.755 70.9585 138.432 73.5418 127.562C74.9689 128.693 77.0262 131.802 76.2814 134.672C74.5679 141.188 67.8856 151.453 61.7502 151.797C61.297 149.474 60.2345 147.891 58.3022 145.047Z" fill="#1C1D29"/>
<path fill-rule="evenodd" clip-rule="evenodd" d="M49.0363 129.063C56.604 132.011 63.7394 123.583 74.8071 129.703C77.505 131.193 77.7863 134.938 76.8488 137.464C65.4894 125.766 59.6457 140.412 48.9478 138.61C49.9009 135.776 49.9998 132.323 49.0363 129.063Z" fill="#1C1D29"/>
<path d="M77.3801 92.5098C75.4062 99.0619 74.0885 116.723 74.1458 133.588C74.1978 147.895 75.2447 161.479 77.7343 166.859C78.3801 168.255 78.4062 168.541 79.651 167.775C83.4635 165.416 87.3385 156.541 89.9374 150.619C90.7447 148.765 91.4426 147.182 92.0051 146.083C92.4322 145.249 93.2968 144.796 94.1822 144.843C96.9426 144.843 102.13 144.239 104.708 143.328C105.854 142.932 107.088 143.489 107.557 144.583C107.953 145.385 108.333 146.218 108.797 147.223C111.708 153.567 117.745 166.671 120.208 166.505C120.651 166.468 121.318 164.718 122.031 162.239C125.24 151.13 125.953 127.479 125.318 117.432C124.771 108.828 123.344 100.27 120.672 90.2286C112.224 85.864 84.7083 85.8223 77.3801 92.5098ZM69.5833 133.588C69.5156 115.848 71.0103 97.0515 73.2135 90.5411C73.3228 90.2286 73.4895 89.9421 73.7343 89.6869C82.1614 80.9056 114.016 80.7025 123.693 86.7025C124.24 86.989 124.672 87.4994 124.838 88.1348C127.745 98.8588 129.281 107.953 129.87 117.15C130.588 128.411 129.812 151.749 126.411 163.52C125.172 167.791 123.307 170.885 120.51 171.088C114.911 171.473 107.99 156.442 104.641 149.15L104.213 148.218C101.432 148.848 98.3385 149.26 95.4895 149.395C95.0937 150.255 94.6353 151.301 94.1301 152.453C91.3072 158.911 87.0885 168.567 82.052 171.676C78.2656 174.031 75.3645 172.619 73.5833 168.786C70.802 162.77 69.6301 148.479 69.5833 133.588Z" fill="#1C1D29"/>
<path fill-rule="evenodd" clip-rule="evenodd" d="M75.3697 91.2707C71.4739 102.833 69.8593 155.286 75.6562 167.818C76.8697 170.432 78.3124 171.292 80.8541 169.724C86.5676 166.182 91.6614 151.755 94.0364 147.13C97.1614 147.161 103.167 146.297 105.458 145.495C107.646 149.953 115.661 169.125 120.359 168.797C124.333 168.515 126.167 154.302 126.854 146.338C128.729 124.542 128.37 109.89 122.635 88.7342C114.661 83.5519 83.4166 82.9061 75.3697 91.2707Z" fill="#384357"/>
<path fill-rule="evenodd" clip-rule="evenodd" d="M127.333 113.995C126.62 106.052 125.141 98.0207 122.63 88.7343C115.729 84.2551 91.3908 83.1561 79.7606 88.3749C78.396 89.2395 76.5314 89.5051 75.5991 90.4218C75.0887 91.8645 74.5731 94.1041 74.146 96.6405C80.1304 103.51 90.4585 109.812 102.063 112.828C110.323 114.979 115.583 115.01 123.224 114.489C124.266 114.432 125.703 114.26 127.333 113.995Z" fill="#263042"/>
<path fill-rule="evenodd" clip-rule="evenodd" d="M71.8696 135.135C72.0207 152.161 73.63 167.911 77.479 170.219C74.4217 164.203 73.828 145.427 74.7082 135.692C74.4061 135.557 72.0103 134.817 71.8696 135.135Z" fill="#697791"/>
<path fill-rule="evenodd" clip-rule="evenodd" d="M125.495 157.14C126.865 149.515 127.401 140.968 127.714 133.213C121.276 136.348 112.953 137.583 105.688 138.432C101.188 138.952 96.8022 139.197 92.3491 139.14C112.266 141.541 121.047 138.541 123.401 142.369C124.787 144.635 126.063 145.525 125.495 157.14Z" fill="#263042"/>
<path d="M86.8853 84.1663C87.6561 83.9736 88.5051 84.2757 88.979 84.984C91.0311 88.0778 93.5519 91.0518 96.4165 93.9163C98.9946 96.5049 101.885 99.0361 104.989 101.521C106.13 102.432 108.036 103.979 106.099 105.448C104.797 106.432 98.4999 111.656 97.2238 111.786C96.6926 111.833 96.1301 111.656 95.7082 111.26C92.1405 107.916 88.6821 104.468 85.3749 100.906C82.2238 97.5101 79.2134 94.0309 76.3696 90.4632C75.5051 89.3695 74.6249 87.7184 76.5311 86.8643C79.1769 85.6872 84.1874 84.6715 86.8853 84.1663Z" fill="#1C1D29"/>
<path fill-rule="evenodd" clip-rule="evenodd" d="M87.3905 86.0312C84.4582 86.5781 79.5571 87.6302 77.3384 88.6198C83.3123 96.2135 89.9269 103.25 97.005 109.87C99.6405 107.885 102.281 105.896 104.922 103.906C97.8019 98.3021 91.6353 92.4375 87.3905 86.0312Z" fill="#961818"/>
<path d="M69.9792 129.885C69.9844 128.916 69.9844 127.906 69.9948 126.838C69.9583 126.088 70.3646 125.354 71.0781 125.005C79.7344 120.817 88.2135 116 96.401 110.156C104.443 104.421 112.214 97.6871 119.625 89.5621C120.87 88.1975 121.365 88.5152 123.063 88.51C123.922 88.4839 124.719 89.0308 124.974 89.9006C125.661 92.2756 126.13 94.5829 126.583 96.8173C126.854 98.135 127.771 100.406 126.62 101.489C118.552 109.062 109.964 115.52 100.948 121.276C91.9271 127.031 82.5313 132.062 72.7813 136.822C72.5156 136.968 72.2031 137.052 71.875 137.052C70.8177 137.052 69.9531 136.182 69.9531 135.119C69.9531 134.713 69.9687 132.312 69.9792 129.885Z" fill="#1C1D29"/>
<path fill-rule="evenodd" clip-rule="evenodd" d="M71.9115 126.744C71.9115 126.749 71.9115 126.77 71.9115 126.775C71.901 129.817 71.875 132.077 71.875 135.114C91.349 125.604 109.359 115.057 125.307 100.077C124.63 97.0202 124.089 93.7493 123.125 90.4316C122.563 90.4316 121.99 90.4368 121.427 90.4368C106.188 107.265 89.3958 118.281 71.9115 126.744Z" fill="#D62727"/>
<path fill-rule="evenodd" clip-rule="evenodd" d="M108.187 114.078C114.125 109.849 119.838 105.229 125.307 100.089C124.63 97.0312 124.088 93.7604 123.125 90.4375C122.562 90.4375 121.989 90.4479 121.427 90.4479C113.854 98.8073 105.896 105.734 97.6665 111.625C98.6665 111.953 99.6769 112.266 100.708 112.552C103.224 113.224 105.729 113.74 108.187 114.078Z" fill="#961818"/>
<path d="M148.052 15.6195C151.386 21.7914 153.615 36.5049 153.287 50.8382C152.99 63.5778 150.724 76.2289 145.485 82.7289C145.412 82.8226 145.328 82.9112 145.235 82.9945C129.235 98.9007 68.7606 99.9007 52.3439 84.4216C52.2293 84.3122 52.146 84.2028 52.0418 84.0778C46.6877 77.6976 44.0523 65.2341 43.3596 52.6247C42.5627 38.1612 44.3596 23.2289 47.5627 17.0622C48.37 15.5101 49.0939 14.8695 50.4221 13.6976C70.5002 -3.89093 124.979 -4.80759 145.36 12.4945C146.672 13.6039 147.219 14.0882 148.052 15.6195ZM148.537 50.7445C148.875 35.9997 146.62 21.182 143.37 17.0934C125.542 -0.0471764 69.4221 0.853867 52.1668 18.5778C49.0523 22.7914 47.2866 37.6403 48.0991 52.3539C48.7502 64.0935 51.0575 75.5414 55.6825 81.0153C70.3387 94.6455 127.636 93.7237 141.865 79.6455C146.318 74.0153 148.266 62.4997 148.537 50.7445Z" fill="#1C1D29"/>
<path fill-rule="evenodd" clip-rule="evenodd" d="M145.141 15.5048C151.641 23.3746 154.589 67.6402 143.635 81.2288C128.63 96.3277 69.4636 97.2809 53.974 82.6767C42.599 69.4475 44.125 25.0986 50.3646 17.0257C68.4323 -1.76601 126.484 -2.6983 145.141 15.5048Z" fill="#384357"/>
<path fill-rule="evenodd" clip-rule="evenodd" d="M98.9895 93.0938C80.3801 93.3958 61.7239 89.9844 53.9843 82.6771C42.5989 69.4479 44.1353 25.099 50.3697 17.026C59.6041 7.42188 79.2812 2.48437 98.802 2.375C84.8958 4.125 71.3072 8.32292 60.3853 14.526C55.052 17.5573 53.6145 18.276 51.9687 24.4583C47.5572 41.0781 49.0676 59.0365 53.5364 73.2396C55.5155 79.526 56.0833 81.2865 61.8489 84.099C72.3385 89.2396 84.8697 91.5833 98.9895 93.0938Z" fill="#697791"/>
<path fill-rule="evenodd" clip-rule="evenodd" d="M145.141 15.5046C151.641 23.3744 154.589 67.64 143.636 81.2285C140.698 84.1869 136.047 86.6035 130.386 88.4577C147.344 66.6139 148.464 23.7181 118.88 4.05664C129.828 6.07226 139.37 9.87435 145.141 15.5046Z" fill="#263042"/>
<path d="M152.234 37.7081C149.781 50.5779 140.484 59.8279 128.26 65.4165C110.599 73.4738 86.8021 73.8696 68.8907 66.38C56.1355 61.0415 46.3594 51.7394 43.8074 38.3748C43.6042 37.3279 44.2969 36.3175 45.3386 36.1248C45.6719 36.0571 46.0001 36.0883 46.3021 36.1925C84.5157 46.0258 112.13 45.5623 150 34.479C151.016 34.1873 152.083 34.7758 152.38 35.7967C152.547 36.3748 152.344 37.1196 152.234 37.7081ZM126.662 61.9113C137.135 57.1352 145.234 49.4894 148 39.0415C112.016 49.1769 84.599 49.6248 48.3126 40.6508C51.4115 50.9998 59.7501 58.38 70.3647 62.8123C87.2969 69.8904 109.964 69.5363 126.662 61.9113Z" fill="#1C1D29"/>
<path fill-rule="evenodd" clip-rule="evenodd" d="M150.531 36.3066C143.635 79.9525 53.974 81.3952 45.6875 38.0046C84.599 48.041 111.964 47.5931 150.531 36.3066Z" fill="#263042"/>
<path fill-rule="evenodd" clip-rule="evenodd" d="M135.917 58.8125C116.073 72.9792 81.2968 73.5312 61.0104 60.0156C57.3437 55.8021 54.7083 48.026 57.2187 40.7344C92.2968 46.6406 102.307 48.0729 138 40.8125C139.896 46.4167 137.276 56.0469 135.917 58.8125Z" fill="#FACF89"/>
<path fill-rule="evenodd" clip-rule="evenodd" d="M56.2759 45.4889C56.38 43.9108 56.6821 42.3171 57.229 40.7441C92.3071 46.6504 102.318 48.0827 138.005 40.8171C138.484 42.2493 138.677 43.9421 138.661 45.7129C109.812 54.8171 82.2811 54.8223 56.2759 45.4889Z" fill="#F5986A"/>
<path d="M150.88 25.682C151.662 29.5258 152.151 33.4685 152.464 37.3695C152.547 38.3904 151.813 39.2914 150.813 39.4268C116.125 47.1716 79.6408 49.1456 45.2866 38.6612C43.6148 38.156 43.9273 35.182 44.297 32.6352C44.5054 31.1872 44.6043 29.8643 44.6981 29.2289C45.0002 27.1247 47.1356 27.6143 48.5731 27.7289C82.5262 30.4789 114.771 30.5206 148.276 22.8175C150.313 22.3435 150.604 24.3018 150.88 25.682ZM147.224 26.9997C114.073 34.3539 81.9116 34.3122 48.271 31.5727C48.1095 32.8539 47.9845 34.1352 47.8752 35.4268C80.6668 45.0727 115.401 43.2185 148.479 36.005C148.203 32.9893 147.807 29.9737 147.224 26.9997Z" fill="#1C1D29"/>
<path fill-rule="evenodd" clip-rule="evenodd" d="M148.714 24.6875C149.537 28.3698 150.167 32.7812 150.552 37.5208C111.511 46.2552 76.7918 46.2708 45.8491 36.8229C46.0262 34.2344 46.2866 31.776 46.6147 29.5C79.0366 32.2135 112.344 33.0573 148.714 24.6875Z" fill="#1C1D29"/>
<path fill-rule="evenodd" clip-rule="evenodd" d="M70.8488 129.062C70.8332 131.52 70.8071 134.515 70.7915 136.973C89.2655 141.515 108.458 140.708 128.375 134.531C128.51 132.567 128.526 128.411 128.661 126.447C111.146 131.015 90.854 133.442 70.8488 129.062Z" fill="#1C1D29"/>
<path d="M86.625 64.3542C84.224 67.9219 81.0104 69.1927 77.9115 68.6198C75.3385 68.1458 72.849 66.4062 70.9531 63.6406C68.9427 60.7135 67.6094 56.7292 67.4375 52.3958C67.3698 50.7292 67.4792 49.1094 67.75 47.5781C68.026 45.974 68.4635 44.4948 69.0417 43.1771L70.0104 40.9844L71.9583 42.0677C77.8594 45.3281 83.8594 48.4219 89.5573 52.0208C89.5 56.4427 89.2969 60.3802 86.625 64.3542Z" fill="#1C1D29"/>
<path fill-rule="evenodd" clip-rule="evenodd" d="M87.198 53.6611C87.1616 60.5726 83.6147 65.9736 79.0105 65.8903C74.2032 65.807 70.0678 59.7809 69.7762 52.4372C69.6564 49.5257 70.1616 46.833 71.1199 44.6611L85.7762 52.7705L87.198 53.6611Z" fill="white"/>
<path d="M105.359 52.0208C111.057 48.4219 117.057 45.3281 122.953 42.0677L124.906 40.9844L125.87 43.1771C126.453 44.4948 126.891 45.974 127.167 47.5781C127.427 49.1094 127.542 50.7292 127.479 52.3958C127.302 56.7396 125.974 60.7135 123.964 63.6406C119.781 69.7344 112.677 70.8594 108.292 64.349C105.609 60.3802 105.406 56.4427 105.359 52.0208Z" fill="#1C1D29"/>
<path fill-rule="evenodd" clip-rule="evenodd" d="M107.708 53.6611C107.745 60.5726 111.292 65.9736 115.896 65.8903C120.703 65.807 124.839 59.7809 125.141 52.4372C125.261 49.5257 124.755 46.833 123.797 44.6611L109.141 52.7705L107.708 53.6611Z" fill="white"/>
<path d="M52.9999 29.005C53.6562 26.9893 57.0676 19.6039 58.9843 18.505C59.8593 17.9946 60.9739 18.3018 61.4791 19.1768C62.6041 21.1404 64.5833 25.1248 65.5885 28.9946C66.6249 32.9789 66.9531 38.3643 62.1718 40.0779C60.1614 40.7914 57.1926 40.6821 55.3124 39.7237C53.3281 38.7133 52.3854 36.9685 52.1614 34.8539C51.9739 33.0831 52.3385 31.0414 52.9999 29.005Z" fill="#1C1D29"/>
<path fill-rule="evenodd" clip-rule="evenodd" d="M59.9012 20.1035C56.4793 24.1139 48.8648 38.5827 59.0783 38.7181C69.1043 38.8275 62.3543 24.4004 59.9012 20.1035Z" fill="#3B9AED"/>
<path fill-rule="evenodd" clip-rule="evenodd" d="M57.2446 30.7656C58.2706 30.7656 59.0935 31.9844 59.0935 33.4844C59.0935 34.9844 58.2602 36.2083 57.2446 36.2083C56.2185 36.2083 55.3956 34.9844 55.3956 33.4844C55.3852 31.9792 56.2185 30.7656 57.2446 30.7656Z" fill="white"/>
<path d="M65.1199 22.8175C65.5886 21.3696 68.0366 15.9842 69.4116 15.1925C70.0522 14.8175 70.8751 15.0467 71.2449 15.6873C72.0782 17.13 73.5574 20.0675 74.3126 22.9165C74.7345 24.5102 74.9376 26.1144 74.6928 27.479C74.198 30.2602 72.1199 31.3436 69.5886 31.3123C66.9011 31.2811 64.8334 30.0154 64.5209 27.1404C64.3803 25.8175 64.6407 24.3175 65.1199 22.8175Z" fill="#1C1D29"/>
<path fill-rule="evenodd" clip-rule="evenodd" d="M70.1041 16.3535C67.625 19.2858 62.1354 29.8639 69.5989 29.9629C76.927 30.0462 71.9166 19.4941 70.1041 16.3535Z" fill="#3B9AED"/>
<path fill-rule="evenodd" clip-rule="evenodd" d="M68.2134 24.1504C68.9582 24.1504 69.5728 25.041 69.5832 26.1348C69.5884 27.2337 68.9842 28.1243 68.2394 28.1243C67.4894 28.1243 66.8748 27.2337 66.8696 26.1348C66.8696 25.041 67.4634 24.1504 68.2134 24.1504Z" fill="white"/>
<mask id="mask1_1313_2907" style="mask-type:luminance" maskUnits="userSpaceOnUse" x="0" y="74" width="16" height="41">
<path d="M0 74.9424H15.3333V114.942H0V74.9424Z" fill="white"/>
</mask>
<g mask="url(#mask1_1313_2907)">
<path d="M9.08309 79.9792L4.04142 80.2396L5.58309 110.302L10.63 110.042L9.08309 79.9792ZM1.89038 76.2553L10.7966 75.7917C11.8643 75.7344 12.781 76.6094 12.8383 77.7292L14.5935 111.87H14.5883C14.6456 112.99 13.8279 113.953 12.7602 114L4.02059 114.458C3.96329 114.464 3.91121 114.474 3.85392 114.474C2.78621 114.531 1.86954 113.656 1.81225 112.537L0.0570435 78.4063C0.00495953 77.2761 0.822669 76.3126 1.89038 76.2553Z" fill="#1C1D29"/>
</g>
<path fill-rule="evenodd" clip-rule="evenodd" d="M10.9061 77.8379L1.99463 78.3014L3.75505 112.432L12.6613 111.979L10.9061 77.8379Z" fill="#808996"/>
<path fill-rule="evenodd" clip-rule="evenodd" d="M11.4793 88.9219L2.56787 89.3854L3.04704 98.7552L11.9585 98.2917L11.4793 88.9219Z" fill="#CCD4E0"/>
<path d="M10.2603 65.1975L25.3958 64.4163C26.5208 64.3538 27.4687 65.2235 27.526 66.3433L30.3749 121.677C30.4374 122.807 29.5728 123.76 28.453 123.817L13.3176 124.604C12.1926 124.661 11.2395 123.791 11.1822 122.671L8.33326 67.3381C8.27597 66.2183 9.14055 65.2548 10.2603 65.1975ZM23.5676 68.6038L12.4947 69.1767L15.1301 120.442L26.2083 119.864L23.5676 68.6038Z" fill="#1C1D29"/>
<path fill-rule="evenodd" clip-rule="evenodd" d="M10.3594 67.2396L25.5052 66.4531L28.3438 121.797L13.2083 122.573L10.3594 67.2396Z" fill="#808996"/>
<path fill-rule="evenodd" clip-rule="evenodd" d="M11.3281 86.015L26.4688 85.2285L27.25 100.426L12.1094 101.208L11.3281 86.015Z" fill="#CCD4E0"/>
<mask id="mask2_1313_2907" style="mask-type:luminance" maskUnits="userSpaceOnUse" x="184" y="74" width="16" height="41">
<path d="M184.667 74.9424H200V114.942H184.667V74.9424Z" fill="white"/>
</mask>
<g mask="url(#mask2_1313_2907)">
<path d="M189.198 75.802L198.104 76.2655C199.172 76.3228 199.994 77.276 199.937 78.4062L198.177 112.536C198.119 113.667 197.203 114.531 196.135 114.474C196.078 114.474 196.026 114.463 195.968 114.458L187.229 114C186.161 113.943 185.343 112.989 185.406 111.87H185.396L187.151 77.7291C187.213 76.6093 188.13 75.7395 189.198 75.802ZM195.958 80.2395L190.916 79.9791L189.369 110.042L194.416 110.302L195.958 80.2395Z" fill="#1C1D29"/>
</g>
<path fill-rule="evenodd" clip-rule="evenodd" d="M189.089 77.8379L198.005 78.3014L196.245 112.432L187.328 111.979L189.089 77.8379Z" fill="#808996"/>
<path fill-rule="evenodd" clip-rule="evenodd" d="M188.516 88.9219L197.432 89.3854L196.953 98.7552L188.037 98.2917L188.516 88.9219Z" fill="#CCD4E0"/>
<path d="M187.5 69.1769L176.422 68.6039L173.781 119.864L184.859 120.442L187.5 69.1769ZM174.599 64.4217L189.734 65.2081C190.859 65.2654 191.719 66.2289 191.656 67.3487L188.807 122.682C188.75 123.812 187.792 124.672 186.672 124.609L171.536 123.828C170.422 123.771 169.557 122.807 169.615 121.687L172.463 66.3539C172.521 65.2237 173.479 64.3644 174.599 64.4217Z" fill="#1C1D29"/>
<path fill-rule="evenodd" clip-rule="evenodd" d="M189.63 67.2396L174.495 66.4531L171.646 121.797L186.781 122.573L189.63 67.2396Z" fill="#808996"/>
<path fill-rule="evenodd" clip-rule="evenodd" d="M188.667 86.015L173.531 85.2285L172.75 100.426L187.885 101.208L188.667 86.015Z" fill="#CCD4E0"/>
</svg>
