<svg width="183" height="199" viewBox="0 0 183 199" fill="none" xmlns="http://www.w3.org/2000/svg">
<path fill-rule="evenodd" clip-rule="evenodd" d="M133.125 168.901C124.026 164.761 122.75 155.37 124.927 143.667C122.901 143.891 119.323 145.62 118.828 148.766C117.703 155.87 120.12 169.381 126.443 173.245C127.974 171.323 129.807 170.448 133.125 168.901Z" fill="#1C1D29"/>
<path fill-rule="evenodd" clip-rule="evenodd" d="M150.13 159.239C140.802 157.63 137.063 145.604 122.615 144.958C119.083 144.807 117.115 148.151 116.953 151.067C134.24 146.646 133.802 163.765 145.911 168.25C146.193 165.047 147.635 161.75 150.13 159.239Z" fill="#1C1D29"/>
<path d="M134.312 149.698C128.651 146.781 122.927 142.958 117.807 138.64C112.911 134.515 108.583 129.942 105.448 125.323L105.328 125.13C100.64 117.349 102.609 105.505 106.078 98.2862C107.083 96.208 108.224 94.4632 109.411 93.2289C110.974 91.6039 112.698 90.7757 114.474 91.0153C116.317 91.2601 117.854 92.5518 118.843 95.1403C121.484 102.093 125.015 108.38 129.224 114.187C133.458 120.041 138.354 125.401 143.687 130.422C147.859 134.349 150.552 137.494 152.052 140.13C153.869 143.302 154.109 145.89 153.161 148.239V148.255C153.104 148.422 153 148.63 152.864 148.901V148.916C151.932 150.739 150.25 152.317 147.468 152.875C145.156 153.338 142.021 153.026 137.859 151.338C136.776 150.901 135.604 150.359 134.312 149.698ZM121.093 134.744C125.901 138.791 131.307 142.401 136.656 145.156C137.755 145.729 138.791 146.192 139.765 146.583C142.89 147.849 145.036 148.135 146.479 147.849C147.458 147.651 148.026 147.156 148.328 146.567L148.432 146.328C148.776 145.468 148.567 144.312 147.619 142.656C146.359 140.458 143.974 137.692 140.187 134.125C134.63 128.875 129.505 123.291 125.093 117.166C120.63 111.015 116.875 104.317 114.083 96.932V96.9164C113.859 96.2966 113.869 96.0414 113.828 96.0414C113.797 96.0414 113.526 96.2966 113.104 96.7341C112.297 97.5778 111.468 98.8695 110.687 100.468C107.76 106.531 106.015 116.328 109.713 122.463C112.593 126.739 116.573 130.937 121.093 134.744Z" fill="#1C1D29"/>
<path fill-rule="evenodd" clip-rule="evenodd" d="M135.484 147.427C124.729 141.89 113.75 132.994 107.547 123.88C99.781 111.166 112.401 85.406 116.442 96.0414C121.89 110.38 131.026 122.015 141.911 132.291C149.875 139.781 152.067 144.088 150.776 147.307C149.588 150.271 145.64 152.661 135.484 147.427Z" fill="#384357"/>
<path fill-rule="evenodd" clip-rule="evenodd" d="M129.854 144.24C121.411 139.078 111.422 130.573 107.547 123.896C99.781 111.177 112.401 85.4219 116.442 96.0573C121.021 108.125 128.229 118.281 136.896 127.323C128.213 124.87 124.25 138.323 129.854 144.24Z" fill="#263042"/>
<path d="M49.5105 139.948C55.3126 138.308 61.3178 135.855 66.8282 132.849C72.0105 130.016 76.7449 126.709 80.4063 123.157C85.2761 117.891 85.5157 107.927 83.849 101.386C83.4115 99.641 82.8543 98.2087 82.2397 97.2452C81.9115 96.7348 81.698 96.4327 81.672 96.4327C81.6251 96.4327 81.5782 96.6775 81.2345 97.2296C77.0157 103.927 71.9949 109.719 66.4115 114.865C60.8699 119.969 54.7397 124.438 48.2345 128.469C43.8334 131.209 40.9376 133.433 39.2709 135.344C38.0053 136.776 37.573 137.875 37.7345 138.776L37.797 139.016C37.9793 139.636 38.4272 140.25 39.3438 140.625C40.698 141.198 42.8595 141.349 46.1772 140.73C47.172 140.568 48.2657 140.297 49.5105 139.948ZM69.2657 137.334C63.4063 140.537 57.0053 143.141 50.8803 144.87C49.5418 145.245 48.2813 145.547 47.0938 145.756C42.6928 146.568 39.5678 146.271 37.3907 145.349C34.7761 144.25 33.4428 142.37 32.8855 140.401C32.823 140.188 32.7657 139.948 32.7188 139.693C32.2553 137.198 33.0209 134.698 35.422 131.959C37.422 129.688 40.6824 127.162 45.5626 124.12C51.7813 120.266 57.6407 115.995 62.9532 111.105C68.2293 106.245 72.9584 100.782 76.922 94.5108C78.4115 92.1619 80.1668 91.1983 82.0157 91.3337C83.7865 91.4535 85.3334 92.615 86.5365 94.5108C87.4532 95.9535 88.2501 97.9067 88.8022 100.12C90.7865 107.917 90.323 119.985 84.1199 126.646L84.0261 126.74C80.0157 130.667 74.8803 134.276 69.2657 137.334Z" fill="#1C1D29"/>
<path fill-rule="evenodd" clip-rule="evenodd" d="M50.1873 142.417C61.828 139.135 74.354 132.62 82.2551 124.932C92.3957 114.026 85.1665 86.2603 79.0884 95.8749C70.9009 108.833 59.6196 118.417 46.9009 126.302C37.6144 132.062 34.5988 135.838 35.229 139.239C35.8123 142.37 39.1925 145.516 50.1873 142.417Z" fill="#384357"/>
<path fill-rule="evenodd" clip-rule="evenodd" d="M56.3434 140.401C65.6559 137.031 77.1195 130.693 82.2549 124.917C92.3955 114.01 85.1663 86.2499 79.0882 95.8644C72.1924 106.771 63.1038 115.286 52.8174 122.422C61.8122 121.755 63.0153 135.734 56.3434 140.401Z" fill="#263042"/>
<path d="M73.9215 110.515C72.9267 113.859 72.0726 119.995 71.458 127.521C70.7809 135.87 70.4059 145.755 70.4632 155.25C70.4632 155.614 70.3903 155.943 70.2549 156.26C68.3746 160.667 66.4996 165.38 64.8486 170.239C63.208 175.052 61.8121 180.005 60.8694 184.922C60.2236 188.323 60.3278 190.583 60.9267 191.906C61.1819 192.463 61.5413 192.792 61.9476 192.927C62.5361 193.125 63.3278 193.047 64.2444 192.776C66.8121 192.01 69.8486 189.781 72.4163 186.667C75.4528 182.984 78.3799 179.583 81.5205 176.422C84.7028 173.219 88.1299 170.265 92.1403 167.547C92.5726 167.26 93.0517 167.109 93.5361 167.109C93.7913 167.109 94.9892 166.823 96.1611 166.552C97.4424 166.25 98.6715 165.963 99.4059 165.932C99.8278 165.922 100.25 165.995 100.609 166.161C106.422 168.854 111.406 172.015 115.838 175.536C120.239 179.057 124.067 182.953 127.567 187.167C129.281 189.213 130.979 190.474 132.453 190.911C133.083 191.094 133.625 191.109 134.026 190.943C134.416 190.792 134.765 190.432 135.052 189.875C135.724 188.578 135.979 186.458 135.651 183.463C135.156 179.026 133.713 173.625 131.984 168.583C129.911 162.547 127.463 157.146 125.781 154.635C125.437 154.125 125.302 153.521 125.359 152.948C125.63 145.187 125.453 138.021 124.609 130.667C123.812 123.578 122.401 116.297 120.208 108.062C115.479 105.625 104.812 104.396 94.5413 104.948C85.8434 105.448 77.5986 107.177 73.9215 110.515ZM66.3642 127.114C67.0413 118.776 68.0465 111.901 69.2653 108.323C69.3851 107.974 69.5778 107.646 69.8486 107.375C74.2965 102.739 84.1194 100.422 94.3017 99.8801C105.984 99.2499 118.453 100.948 123.619 104.151C124.218 104.469 124.703 105.026 124.895 105.75C127.302 114.625 128.849 122.463 129.703 130.14C130.541 137.51 130.739 144.719 130.484 152.51C132.343 155.552 134.797 161.015 136.838 166.943C138.672 172.271 140.203 178.062 140.739 182.922C141.192 186.984 140.713 190.083 139.599 192.234C138.729 193.937 137.468 195.094 135.937 195.698C134.448 196.297 132.781 196.328 131.041 195.833C128.635 195.125 126.036 193.302 123.651 190.448C120.375 186.515 116.786 182.859 112.656 179.552C108.703 176.39 104.276 173.562 99.1351 171.125C98.6715 171.213 97.9788 171.38 97.2913 171.547C96.2965 171.771 95.2757 172.015 94.4684 172.135C90.9944 174.542 87.9788 177.172 85.1246 180.031C82.0882 183.073 79.2809 186.37 76.3538 189.917C73.1507 193.802 69.1871 196.646 65.6871 197.682C63.8121 198.239 61.9944 198.302 60.3851 197.786C58.6142 197.219 57.1871 196.01 56.2861 194.057C55.2496 191.802 54.9788 188.505 55.8486 183.974C56.8434 178.812 58.2965 173.625 60.0101 168.614C61.6455 163.812 63.4944 159.135 65.359 154.755C65.3278 145.156 65.7028 135.344 66.3642 127.114Z" fill="#1C1D29"/>
<path fill-rule="evenodd" clip-rule="evenodd" d="M71.6823 109.146C69.3698 116.01 67.8073 136.26 67.9115 155.266C64.099 164.187 60.2969 174.359 58.3594 184.458C55.3855 200 66.9636 197.323 74.3855 188.307C80.349 181.073 85.8594 174.917 93.5521 169.682C94.6146 169.667 98.4636 168.568 99.5261 168.505C110.75 173.714 118.813 180.682 125.604 188.833C132.031 196.552 139.51 195.187 138.188 183.224C137.047 172.99 131.203 158.141 127.901 153.25C128.469 137.318 127.167 123.953 122.401 106.427C113.87 100.859 80.3177 100.167 71.6823 109.146Z" fill="#384357"/>
<path fill-rule="evenodd" clip-rule="evenodd" d="M67.9113 155.084V155.266C64.0988 164.188 60.2967 174.36 58.3592 184.459C57.38 189.589 57.9842 192.735 59.4842 194.313C57.354 185.568 66.8123 162.776 71.9061 155.073L67.9113 155.084Z" fill="#697791"/>
<path fill-rule="evenodd" clip-rule="evenodd" d="M61.1353 195.349C64.6092 196.51 70.1769 193.437 74.4009 188.307C79.4009 182.244 84.0728 176.932 89.9894 172.286L84.3123 172.75C72.8957 179.687 68.8592 195.125 61.1353 195.349Z" fill="#263042"/>
<path fill-rule="evenodd" clip-rule="evenodd" d="M100.458 168.927C111.213 174.088 119.026 180.89 125.619 188.823C132.047 196.542 139.526 195.172 138.203 183.208C137.692 178.557 136.192 172.963 134.416 167.771C138.817 180.724 128.922 186.234 122.39 179.88C117.343 174.979 111.151 168.328 106.994 167.245C104.994 166.734 102.411 167.786 100.458 168.927Z" fill="#263042"/>
<path fill-rule="evenodd" clip-rule="evenodd" d="M127.479 133.526C126.714 125.005 125.12 116.385 122.417 106.427C115.016 101.609 88.8802 100.437 76.3958 106.031C74.9427 106.969 72.6875 108.156 71.6823 109.135C71.125 110.682 70.7969 112.354 70.3281 115.078C76.7604 122.448 87.875 129.026 100.339 132.26C109.214 134.562 114.865 134.609 123.063 134.052C124.193 133.974 125.724 133.797 127.479 133.526Z" fill="#263042"/>
<path d="M83.6821 105.791C82.104 106.109 80.255 106.515 78.5467 106.953C78.0935 107.073 77.6456 107.192 77.2237 107.312C79.8696 110.547 82.5831 113.677 85.3956 116.687C88.4894 120.026 91.7185 123.245 95.0206 126.39L100.052 122.599C96.9737 120.104 94.0779 117.531 91.4165 114.849C88.4894 111.948 85.8748 108.922 83.6821 105.791ZM77.4477 102.963C79.7029 102.375 82.2081 101.864 84.0571 101.521C84.8852 101.307 85.8019 101.64 86.3123 102.39C88.5206 105.718 91.2237 108.89 94.3019 111.979C97.3956 115.078 100.911 118.099 104.692 121.078C104.828 121.187 104.963 121.323 105.067 121.474C105.76 122.39 105.594 123.682 104.692 124.359L96.1925 130.771C95.4112 131.359 94.2862 131.312 93.5519 130.604C89.7185 127.01 86.0102 123.323 82.4529 119.5C78.8592 115.635 75.4373 111.661 72.2237 107.583C72.1144 107.448 72.0258 107.312 71.9685 107.146C71.4842 106.109 71.9373 104.89 72.9581 104.422C74.0519 103.896 75.6925 103.401 77.4477 102.963Z" fill="#1C1D29"/>
<path fill-rule="evenodd" clip-rule="evenodd" d="M84.583 103.521C81.4268 104.109 76.1715 105.234 73.7861 106.302C80.1976 114.442 87.3018 122 94.9007 129.099C97.7393 126.963 100.562 124.828 103.401 122.692C95.7705 116.687 89.1507 110.38 84.583 103.521Z" fill="#961818"/>
<path d="M69.9998 148.495C69.9842 149.625 69.9842 150.75 69.9842 151.88C79.5519 147.667 88.6821 143.182 97.2915 137.932C106.437 132.349 115.042 125.88 123.062 117.922L122.646 115.906C122.312 114.25 121.969 112.563 121.547 110.865C113.599 119.453 105.281 126.62 96.6613 132.755C88.0103 138.927 79.0884 144.042 69.9998 148.495ZM65.8696 152.995C65.854 151.068 65.854 149.115 65.9009 147.229C65.8853 146.448 66.3175 145.698 67.0728 145.334C76.3696 140.839 85.4686 135.677 94.255 129.401C103.042 123.141 111.531 115.771 119.609 106.86C119.984 106.453 120.526 106.182 121.125 106.182H122.885C123.802 106.156 124.672 106.74 124.927 107.672C125.661 110.219 126.172 112.698 126.667 115.094C126.88 116.13 127.088 117.141 127.286 118.057C127.463 118.75 127.302 119.516 126.76 120.057C118.255 128.636 109.14 135.542 99.4217 141.469C89.7498 147.365 79.5519 152.287 68.828 156.906C68.5571 157.042 68.255 157.115 67.9269 157.115C66.7863 157.115 65.854 156.182 65.854 155.042C65.8696 152.5 65.8696 153.235 65.8696 152.995Z" fill="#1C1D29"/>
<path fill-rule="evenodd" clip-rule="evenodd" d="M67.9739 147.188C67.8958 149.761 67.9427 152.438 67.9427 155.026C89.3124 145.834 108.568 135.479 125.318 118.584C124.583 115.302 124.01 111.797 122.974 108.229C122.375 108.229 121.755 108.229 121.156 108.245C104.771 126.302 86.7447 138.115 67.9739 147.188Z" fill="#D62727"/>
<path fill-rule="evenodd" clip-rule="evenodd" d="M107.396 133.75C113.646 129.313 119.625 124.328 125.302 118.599V118.584C125.078 117.558 124.864 116.506 124.64 115.438C124.13 113.104 123.547 110.714 122.901 108.245H121.125C113.015 117.183 104.515 124.589 95.6978 130.891C97.2134 131.401 98.7603 131.854 100.323 132.261C102.922 132.938 105.219 133.417 107.396 133.75Z" fill="#961818"/>
<path fill-rule="evenodd" clip-rule="evenodd" d="M66.8278 148.573C66.8018 151.203 66.7861 154.422 66.7549 157.057C86.583 161.932 107.203 161.057 128.578 154.437C128.724 152.333 128.739 147.88 128.89 145.771C110.104 150.677 88.307 153.281 66.8278 148.573Z" fill="#1C1D29"/>
<path fill-rule="evenodd" clip-rule="evenodd" d="M174.146 66.0104C164.203 70.4792 155.807 62.5365 148.073 49.125C146.781 51.2344 145.547 56.2604 147.682 59.7656C152.516 67.724 165.031 78.6042 172.719 76.4688C172.312 73.1719 172.958 70.6146 174.146 66.0104Z" fill="#1C1D29"/>
<path fill-rule="evenodd" clip-rule="evenodd" d="M178.864 40.7607C170.781 47.8962 158.463 39.6774 147.411 52.5107C144.708 55.641 145.937 60.7451 148.146 63.7243C157.234 43.318 170.557 60.3805 182.963 53.4587C180.604 50.0889 179.041 45.5316 178.864 40.7607Z" fill="#1C1D29"/>
<path d="M147.349 27.5369C151.557 32.6359 154.786 49.6254 154.786 66.2036C154.771 79.6723 152.667 93.1098 147.292 100.089C147.229 100.167 147.188 100.224 147.125 100.287C138.896 108.938 118.677 113.891 98.4323 114.657C78.1875 115.438 57.651 112.068 48.7917 104.079C48.7031 104 48.625 103.928 48.5677 103.839C42.6927 97.2609 39.5677 84.0682 38.5312 70.6723C37.2396 54.0004 39.2083 36.6515 43.0833 31.4015C43.1458 31.3286 43.2031 31.2504 43.2656 31.1932L43.3542 31.089C53.1927 20.4952 73.8437 14.5786 94.5729 13.7817C115.297 12.9848 136.328 17.2869 146.943 27.0838L147.036 27.1723C147.156 27.2973 147.26 27.4171 147.349 27.5369ZM149.755 66.2036C149.771 50.6463 147.052 35.089 143.521 30.8025C133.906 21.9379 114.276 18.0734 94.7344 18.8234C75.1979 19.5786 55.9427 24.9327 47.0365 34.5161C43.849 39.0473 42.3333 54.7869 43.5365 70.3129C44.4948 82.714 47.2135 94.7504 52.2448 100.438C60.1615 107.464 79.2083 110.381 98.25 109.662C117.281 108.922 136.057 104.542 143.401 96.9327C147.969 90.8546 149.755 78.6359 149.755 66.2036Z" fill="#1C1D29"/>
<path fill-rule="evenodd" clip-rule="evenodd" d="M145.338 29.0414C152.395 37.1925 156.557 83.932 145.291 98.557C129.776 114.864 67.1923 117.286 50.458 102.213C38.0986 88.4893 38.6819 41.5883 45.083 32.906C63.7653 12.6091 125.166 10.2445 145.338 29.0414Z" fill="#384357"/>
<path fill-rule="evenodd" clip-rule="evenodd" d="M98.3278 112.156C78.6507 112.911 58.8226 109.75 50.458 102.214C38.0986 88.4896 38.6819 41.5885 45.083 32.9063C54.6194 22.526 75.333 16.8385 95.984 16.2656C81.3069 18.4479 67.0257 23.2031 55.6246 30.0156C50.0517 33.3594 48.5361 34.1406 46.9423 40.7188C42.6767 58.3802 44.6923 77.3385 49.7548 92.2344C51.9892 98.8281 52.6351 100.677 58.7965 103.521C70.0465 108.714 83.3538 110.896 98.3278 112.156Z" fill="#697791"/>
<path fill-rule="evenodd" clip-rule="evenodd" d="M145.339 29.042C152.396 37.193 156.557 83.9326 145.292 98.5576C142.245 101.761 137.391 104.407 131.432 106.516C148.854 83.0264 149.031 37.6618 117.266 17.5732C128.906 19.443 139.089 23.2347 145.339 29.042Z" fill="#263042"/>
<path d="M153.536 52.6928C151.557 66.8699 141.776 77.2032 128.667 83.5522C119.417 88.0209 108.495 90.5053 97.4999 90.9272C86.5051 91.3491 75.4374 89.7241 65.8697 85.9741C52.2447 80.6511 41.6874 71.0366 38.6665 56.9689C38.4426 55.8699 39.1353 54.7866 40.229 54.5418C40.5311 54.4845 40.8332 54.4845 41.1145 54.5574C61.6457 59.3595 79.0728 61.4793 96.3592 60.8178C113.63 60.1564 130.828 56.698 150.943 50.3334C152.005 49.9845 153.161 50.5886 153.495 51.6564C153.614 52.0001 153.614 52.3647 153.536 52.6928ZM126.911 79.8803C137.875 74.5886 146.255 66.3126 148.943 55.2084C129.885 61.0314 113.271 64.2188 96.5103 64.8647C79.7759 65.5157 62.9686 63.6043 43.5051 59.2709C47.0363 70.1303 56.0311 77.7293 67.354 82.172C76.3957 85.7032 86.9113 87.2553 97.3488 86.8491C107.802 86.4584 118.167 84.1095 126.911 79.8803Z" fill="#1C1D29"/>
<path fill-rule="evenodd" clip-rule="evenodd" d="M151.557 52.2705C145.292 98.5726 50.4582 102.229 40.6665 56.5465C82.0728 66.2184 111.015 65.109 151.557 52.2705Z" fill="#263042"/>
<path fill-rule="evenodd" clip-rule="evenodd" d="M136.625 76.3906C115.974 91.8281 79.1924 93.2448 57.3955 79.4479C53.4164 75.0833 50.4424 66.9271 52.9372 59.1458C90.1872 64.5677 100.817 65.8437 138.411 57.3125C140.547 63.1979 137.994 73.4427 136.625 76.3906Z" fill="#FACF89"/>
<path fill-rule="evenodd" clip-rule="evenodd" d="M52.0518 64.1875C52.1247 62.5208 52.4111 60.8333 52.9372 59.1458C90.1872 64.5677 100.817 65.8437 138.411 57.3125C138.953 58.8177 139.192 60.5937 139.224 62.474C108.916 72.7813 79.7757 73.4427 52.0518 64.1875Z" fill="#F5986A"/>
<path fill-rule="evenodd" clip-rule="evenodd" d="M75.8121 66.1462C80.2288 65.9796 83.9684 70.3285 84.1767 75.8494C84.3902 81.3858 80.9944 86.0056 76.5777 86.1723C72.1611 86.3389 68.4215 81.99 68.2132 76.4692C67.9996 70.9431 71.3954 66.3285 75.8121 66.1462Z" fill="#1C1D29"/>
<path fill-rule="evenodd" clip-rule="evenodd" d="M78.1407 69.2449C79.823 69.1824 81.2501 70.8386 81.3386 72.948C81.4167 75.0522 80.1251 76.8282 78.4428 76.8907C76.7605 76.948 75.3334 75.2918 75.2396 73.1876C75.1511 71.0782 76.4428 69.3178 78.1407 69.2449Z" fill="white"/>
<path d="M151.359 39.6459C151.844 41.6043 152.276 43.7553 152.651 46.0261C153.026 48.3126 153.359 50.7657 153.63 53.323C153.734 54.3178 153.089 55.2188 152.172 55.4897C132.089 61.9793 112.698 65.4063 94.0469 65.7241C75.3333 66.0418 57.3542 63.2241 40.1406 57.1928C39.2552 56.8907 38.7292 56.0313 38.7865 55.1459C38.8646 53.6876 38.9375 52.3334 39.0417 51.1147C39.1511 49.7918 39.2865 48.4949 39.4323 47.2761C39.5677 46.1616 40.5781 45.3647 41.6875 45.4845L41.8698 45.5157C58.8229 47.6511 76.0365 48.797 93.7448 47.9063C111.469 47.0209 129.703 44.0886 148.75 38.0522C149.813 37.7084 150.969 38.3074 151.302 39.3751C151.333 39.4845 151.344 39.573 151.359 39.6459ZM148.641 46.7032C148.401 45.2761 148.146 43.922 147.875 42.6251C129.25 48.3282 111.365 51.1303 93.9427 52.0001C76.6354 52.8595 59.8177 51.823 43.25 49.8022C43.1875 50.3438 43.1458 50.9011 43.099 51.4584C43.0365 52.2866 42.9792 53.0834 42.9323 53.8647C59.2604 59.3907 76.2761 61.9793 93.9844 61.6772C111.771 61.3751 130.245 58.172 149.422 52.1199C149.182 50.2397 148.927 48.4376 148.641 46.7032Z" fill="#1C1D29"/>
<path fill-rule="evenodd" clip-rule="evenodd" d="M149.364 40.0264C150.323 43.891 151.088 48.542 151.614 53.5368C111.771 66.4014 74.7913 67.1826 40.8174 55.2816C40.9372 52.542 41.1611 49.9378 41.4476 47.5316C75.6924 51.8337 110.942 52.1982 149.364 40.0264Z" fill="#1C1D29"/>
<path fill-rule="evenodd" clip-rule="evenodd" d="M115.885 65.255C111.468 65.2862 107.922 69.8019 107.953 75.3227C107.984 80.8592 111.588 85.3279 116.005 85.2967C120.422 85.2706 123.963 80.755 123.937 75.2342C123.89 69.6977 120.286 65.229 115.885 65.255Z" fill="#1C1D29"/>
<path fill-rule="evenodd" clip-rule="evenodd" d="M113.693 68.4482C112.01 68.4639 110.656 70.1774 110.656 72.2972C110.672 74.4222 112.052 76.1201 113.734 76.1045C115.417 76.0889 116.771 74.3753 116.771 72.2555C116.755 70.1462 115.375 68.4482 113.693 68.4482Z" fill="white"/>
<path fill-rule="evenodd" clip-rule="evenodd" d="M108.042 166.489C103.536 170.734 90.724 172.932 84.3125 172.75C88.9844 169.833 102.411 166.927 108.042 166.489Z" fill="#1C1D29"/>
<mask id="mask0_1313_3259" style="mask-type:luminance" maskUnits="userSpaceOnUse" x="0" y="0" width="51" height="138">
<path d="M0 0H51V138H0V0Z" fill="white"/>
</mask>
<g mask="url(#mask0_1313_3259)">
<path d="M48.177 133.073L36.5936 136.698L2.46862 27.2344C0.999869 22.526 0.0363267 18.5208 0.411327 14.5365C0.801951 10.474 2.54674 6.63542 6.51029 2.39063L8.74987 0C22.5207 44.1615 36.2811 88.3073 50.052 132.469L48.177 133.073ZM39.0572 131.328L45.0051 129.464L7.20299 8.19792C5.44258 10.651 4.58841 12.9115 4.38008 15.2135V15.2292C4.07799 18.401 4.94779 21.8802 6.23945 26.0469L39.0572 131.328Z" fill="#1C1D29"/>
</g>
<path fill-rule="evenodd" clip-rule="evenodd" d="M47.5311 130.979L37.8279 134.021L4.34877 26.6458C1.56752 17.7552 0.682107 11.7344 7.93732 4L47.5311 130.979Z" fill="white"/>
<path fill-rule="evenodd" clip-rule="evenodd" d="M47.5309 130.979L39.7184 133.416L6.23925 26.0466C3.68716 17.8434 2.96841 12.8643 8.53612 5.94238L47.5309 130.979Z" fill="#B3B3B3"/>
<path fill-rule="evenodd" clip-rule="evenodd" d="M17.1615 67.7083L14.4844 59.1771L20.375 43.8906L23.0313 52.4375L17.1615 67.7083Z" fill="white"/>
<path fill-rule="evenodd" clip-rule="evenodd" d="M23.0938 86.7607L19.2031 74.3024L25.0885 59.0264L28.9792 71.4847L23.0938 86.7607Z" fill="white"/>
<path d="M41.505 119.047L36.0102 120.766C35.8435 120.823 35.7081 120.933 35.6508 121.052C35.6196 121.094 35.604 121.141 35.6196 121.157L44.9321 151.037C44.9321 151.052 44.9738 151.084 45.0206 151.115C45.1404 151.172 45.3071 151.188 45.4894 151.146L50.9842 149.427C51.1508 149.37 51.2863 149.261 51.3435 149.141C51.3748 149.084 51.3904 149.052 51.3904 149.037L42.0779 119.157C42.0779 119.141 42.031 119.11 41.9894 119.078C41.8383 119.021 41.6717 119.006 41.505 119.047ZM34.7029 116.584L40.1977 114.865C41.3123 114.521 42.4842 114.672 43.4581 115.183C44.5258 115.74 45.38 116.719 45.7706 117.98L55.0831 147.865C55.4738 149.141 55.3383 150.438 54.7863 151.49C54.2758 152.485 53.3852 153.266 52.2758 153.61L46.781 155.328C45.6665 155.672 44.4946 155.521 43.5206 155.011C42.4685 154.453 41.6144 153.474 41.2081 152.198L31.8956 122.313C31.505 121.052 31.656 119.756 32.2081 118.688C32.7029 117.724 33.5935 116.927 34.7029 116.584Z" fill="#1C1D29"/>
<path fill-rule="evenodd" clip-rule="evenodd" d="M40.8437 116.959L35.3489 118.672C34.0572 119.079 33.3385 120.464 33.7395 121.745L43.052 151.625C43.4583 152.917 44.828 153.641 46.1197 153.235L51.6145 151.521C52.9062 151.115 53.6301 149.745 53.2239 148.448L43.9114 118.568C43.5051 117.287 42.1353 116.553 40.8437 116.959Z" fill="#697791"/>
<path fill-rule="evenodd" clip-rule="evenodd" d="M39.9581 117.245L36.2498 118.401C35.38 118.672 34.8956 119.604 35.1664 120.479L44.9633 151.88C45.2289 152.755 46.1612 153.234 47.0362 152.963L50.7446 151.807C51.6144 151.536 52.0935 150.604 51.8227 149.729L42.031 118.328C41.7602 117.453 40.8331 116.974 39.9581 117.245Z" fill="#384357"/>
<path d="M24.8644 123.88L25.0727 124.599C25.2863 125.338 25.5884 126.406 25.7186 126.812L53.328 118.177L52.3071 114.911L24.7602 123.531L24.8644 123.88ZM21.1248 125.791L20.9425 125.172C20.6873 124.359 20.479 123.458 20.6144 122.51C20.8071 121.187 21.5154 120.088 23.1977 119.562L51.6925 110.635H51.7498C52.6196 110.458 53.4946 110.609 54.229 111H54.2446C55.0988 111.448 55.7915 112.234 56.104 113.255L57.3696 117.286C57.6821 118.312 57.5623 119.38 57.0988 120.255C56.6457 121.125 55.8644 121.817 54.8748 122.119V122.135L26.6665 130.963C25.9894 131.177 25.3019 131.177 24.6404 131.01C23.979 130.843 23.3644 130.484 22.8696 129.989C22.0884 129.177 21.4998 127.114 21.1248 125.791Z" fill="#1C1D29"/>
<path fill-rule="evenodd" clip-rule="evenodd" d="M22.9112 124.526C23.1664 125.37 23.8123 127.943 24.3383 128.484C24.7758 128.932 25.4529 129.13 26.0831 128.922L54.2862 120.089C55.1873 119.802 55.6977 118.839 55.4164 117.938L54.1508 113.901C53.8696 113 52.906 112.49 52.005 112.776L23.7966 121.609C22.281 122.073 22.5518 123.396 22.9112 124.526Z" fill="#F2E827"/>
<path fill-rule="evenodd" clip-rule="evenodd" d="M26.6823 122.495L27.9427 126.526C28.2292 127.432 29.1927 127.943 30.0938 127.656L50.2656 121.339C51.1667 121.052 51.6771 120.089 51.3906 119.182L50.1302 115.151C49.8438 114.25 48.8802 113.74 47.9792 114.026L27.8073 120.344C26.9063 120.63 26.3958 121.594 26.6823 122.495Z" fill="#EBA50E"/>
<path d="M38.083 148C38.7132 147.818 39.3278 147.594 39.9423 147.323C40.5309 147.068 41.0986 146.765 41.6715 146.416C43.76 145.156 44.6611 144.146 44.885 143.109C45.1403 141.948 44.708 140.354 44.0882 138.203C43.7757 137.073 43.2809 135.526 42.5569 134.291C42.0309 133.39 41.385 132.666 40.6507 132.62C39.2548 132.547 37.9319 132.604 36.6715 132.818C35.3798 133.026 34.1455 133.39 32.958 133.87C32.6455 134.005 32.4371 134.609 32.3278 135.479C32.1507 136.937 32.4059 138.864 33.0048 140.896C33.6663 143.14 34.7496 145.427 36.0413 146.87C36.7757 147.698 37.4944 148.166 38.083 148ZM41.5517 151.021C40.8017 151.354 40.0205 151.625 39.1923 151.864C36.8486 152.541 34.7496 151.505 33.0205 149.578C31.3382 147.698 29.958 144.838 29.1455 142.083C28.3955 139.541 28.0934 137.062 28.333 135.057C28.6194 132.713 29.609 130.937 31.458 130.182C32.9319 129.568 34.4632 129.13 36.0257 128.875C37.6142 128.604 39.2392 128.515 40.9215 128.62C43.2913 128.755 44.9319 130.318 46.0725 132.276C47.0205 133.885 47.6038 135.765 47.9944 137.12C48.7757 139.844 49.3017 141.906 48.8642 143.969C48.4007 146.146 46.9423 147.969 43.7913 149.896C43.0673 150.302 42.3173 150.677 41.5517 151.021Z" fill="#1C1D29"/>
<path fill-rule="evenodd" clip-rule="evenodd" d="M38.6406 149.927C40.0781 149.521 41.4479 148.917 42.7239 148.151C47.9791 144.958 47.4374 142.536 46.0416 137.646C45.3385 135.161 43.8801 130.802 40.7864 130.604C37.7239 130.422 34.8697 130.922 32.2083 132.021C29.9843 132.937 29.776 137.073 31.0833 141.484C32.4218 146.057 35.3958 150.859 38.6406 149.927Z" fill="#384357"/>
<path fill-rule="evenodd" clip-rule="evenodd" d="M38.6406 149.927C40.0781 149.521 41.4479 148.917 42.7239 148.151C47.9792 144.958 47.4375 142.536 46.0417 137.646C45.9062 137.182 45.7552 136.651 45.5625 136.099C45.5469 138.37 45.5625 140.594 44.4948 142.266C43.6094 143.651 38.3802 145.802 36.2187 144.615C33.6667 143.214 31.6979 136.609 31.5052 132.469C29.9583 133.917 29.9271 137.589 31.0833 141.484C32.4219 146.057 35.3958 150.859 38.6406 149.927Z" fill="#263042"/>
<path fill-rule="evenodd" clip-rule="evenodd" d="M62.6403 25.3853C66.4268 23.3384 71.0049 23.0051 72.8695 24.6613C74.7289 26.3176 73.1508 29.3124 69.3695 31.3593C65.583 33.4009 60.9997 33.7343 59.1403 32.078C57.2758 30.4218 58.8539 27.4322 62.6403 25.3853Z" fill="#697791"/>
<path fill-rule="evenodd" clip-rule="evenodd" d="M73.5727 32.8746C75.8122 31.6715 78.5154 31.4788 79.6091 32.4527C80.7081 33.4319 79.7758 35.1923 77.5414 36.3954C75.3018 37.5986 72.5987 37.7965 71.4997 36.8173C70.4216 35.8538 71.3383 34.0777 73.5727 32.8746Z" fill="#697791"/>
</svg>
