<svg width="177" height="195" viewBox="0 0 177 195" fill="none" xmlns="http://www.w3.org/2000/svg">
<path d="M130.12 142.844C124.151 139.771 118.12 135.74 112.724 131.188C107.563 126.844 103.005 122.021 99.6927 117.151L99.5677 116.948C94.6302 108.75 96.7031 96.2657 100.359 88.6563C101.422 86.4636 102.625 84.625 103.875 83.3282C105.521 81.6146 107.339 80.7396 109.208 80.9948C111.156 81.25 112.771 82.6094 113.813 85.3386C116.599 92.6667 120.339 99.2969 124.755 105.417C129.219 111.589 134.38 117.234 140 122.531C144.396 126.667 147.229 129.984 148.813 132.76C150.729 136.104 150.984 138.833 149.984 141.307V141.323C149.922 141.495 149.813 141.719 149.672 142.005V142.021C148.688 143.938 146.917 145.604 143.984 146.193C141.547 146.682 138.24 146.349 133.854 144.573C132.714 144.115 131.479 143.542 130.12 142.844ZM116.172 127.083C121.24 131.349 126.938 135.151 132.573 138.057C133.729 138.656 134.823 139.151 135.849 139.563C139.141 140.896 141.406 141.198 142.927 140.896C143.953 140.688 144.557 140.167 144.875 139.547L144.984 139.292C145.349 138.391 145.125 137.167 144.13 135.422C142.797 133.109 140.281 130.188 136.292 126.432C130.438 120.896 125.036 115.01 120.385 108.557C115.682 102.073 111.724 95.0157 108.781 87.2292V87.2136C108.542 86.5625 108.557 86.2917 108.51 86.2917C108.479 86.2917 108.198 86.5625 107.75 87.0209C106.896 87.9115 106.026 89.2709 105.203 90.9532C102.115 97.3438 100.281 107.672 104.177 114.141C107.229 118.646 111.427 123.068 116.172 127.083Z" fill="#1C1D29"/>
<path fill-rule="evenodd" clip-rule="evenodd" d="M131.354 140.448C120.021 134.615 108.448 125.24 101.911 115.631C93.7292 102.23 107.026 75.0785 111.281 86.292C117.026 101.407 126.651 113.667 138.13 124.495C146.521 132.396 148.828 136.927 147.469 140.323C146.219 143.448 142.057 145.969 131.354 140.448Z" fill="#384357"/>
<path fill-rule="evenodd" clip-rule="evenodd" d="M125.417 137.089C116.521 131.651 105.995 122.688 101.911 115.646C93.7292 102.245 107.026 75.0941 111.281 86.3077C116.109 99.0264 123.708 109.73 132.844 119.261C123.693 116.677 119.516 130.855 125.417 137.089Z" fill="#263042"/>
<path d="M136.943 127.1L141.547 139.037L29.0156 182.605C24.1719 184.475 20.0573 185.777 15.8281 185.667C11.5365 185.537 7.39062 183.969 2.65625 180.084L0 177.896L136.198 125.178L136.943 127.1ZM135.74 136.834L133.38 130.699L8.71875 178.959C11.4115 180.636 13.849 181.386 16.2865 181.449C19.6458 181.542 23.2188 180.386 27.5104 178.735L135.74 136.834Z" fill="#1C1D29"/>
<path fill-rule="evenodd" clip-rule="evenodd" d="M134.792 127.938L138.651 137.943L28.271 180.667C19.1356 184.208 12.87 185.568 4.25537 178.464L134.792 127.938Z" fill="white"/>
<path fill-rule="evenodd" clip-rule="evenodd" d="M134.792 127.938L137.891 135.995L27.5104 178.719C19.0729 181.984 13.8958 183.078 6.25 177.688L134.792 127.938Z" fill="#B3B3B3"/>
<path fill-rule="evenodd" clip-rule="evenodd" d="M70.4741 164.318L61.7033 167.729L45.2554 162.589L54.0418 159.198L70.4741 164.318Z" fill="white"/>
<path fill-rule="evenodd" clip-rule="evenodd" d="M90.0522 156.756L77.2502 161.704L60.8022 156.563L73.6095 151.615L90.0522 156.756Z" fill="white"/>
<path d="M122.682 135.105L124.865 140.782C124.927 140.959 125.052 141.084 125.182 141.146C125.229 141.162 125.276 141.183 125.292 141.183L156.016 129.287C156.031 129.287 156.063 129.24 156.078 129.193C156.146 129.047 156.146 128.875 156.078 128.698L153.896 123.021C153.833 122.849 153.708 122.719 153.578 122.657C153.531 122.641 153.485 122.626 153.469 122.626L122.745 134.521C122.729 134.521 122.698 134.568 122.682 134.615C122.615 134.756 122.615 134.933 122.682 135.105ZM120.557 142.448L118.375 136.771C117.932 135.631 118.011 134.376 118.485 133.313C118.99 132.157 119.974 131.188 121.271 130.683L151.995 118.787C153.297 118.282 154.672 118.344 155.828 118.865C156.906 119.344 157.792 120.214 158.235 121.355L160.417 127.032C160.86 128.178 160.781 129.428 160.307 130.49C159.802 131.652 158.818 132.615 157.521 133.126L126.797 145.016C125.5 145.527 124.12 145.464 122.964 144.938C121.891 144.464 121 143.589 120.557 142.448Z" fill="#1C1D29"/>
<path fill-rule="evenodd" clip-rule="evenodd" d="M120.526 135.948L122.714 141.626C123.219 142.959 124.724 143.62 126.053 143.099L156.776 131.204C158.11 130.698 158.771 129.193 158.25 127.86L156.063 122.183C155.558 120.849 154.053 120.183 152.724 120.704L122 132.599C120.688 133.11 120.021 134.615 120.526 135.948Z" fill="#697791"/>
<path fill-rule="evenodd" clip-rule="evenodd" d="M120.891 136.865L122.365 140.703C122.714 141.594 123.724 142.052 124.609 141.703L156.885 129.208C157.776 128.859 158.234 127.844 157.885 126.953L156.411 123.115C156.063 122.229 155.052 121.766 154.167 122.115L121.891 134.615C120.984 134.948 120.542 135.964 120.891 136.865Z" fill="#384357"/>
<path d="M128.537 152.438L131.891 151.141L120.922 122.719L117.568 124.021L128.537 152.438ZM133.87 155.058L129.724 156.657C128.677 157.073 127.557 157.005 126.604 156.578C125.672 156.167 124.896 155.407 124.5 154.391L113.276 125.287C112.88 124.276 112.943 123.198 113.354 122.261C113.781 121.308 114.557 120.5 115.62 120.104L119.766 118.5C120.813 118.089 121.938 118.151 122.886 118.578C123.818 118.995 124.578 119.755 124.974 120.771L136.198 149.87C136.594 150.886 136.531 151.964 136.12 152.901C135.709 153.849 134.917 154.646 133.87 155.058Z" fill="#1C1D29"/>
<path fill-rule="evenodd" clip-rule="evenodd" d="M128.932 154.631L133.078 153.027C134.016 152.662 134.474 151.615 134.125 150.678L122.901 121.579C122.536 120.641 121.495 120.183 120.557 120.532L116.411 122.136C115.479 122.5 115.016 123.547 115.365 124.48L126.589 153.584C126.938 154.516 128 154.98 128.932 154.631Z" fill="#F2E827"/>
<path fill-rule="evenodd" clip-rule="evenodd" d="M127.334 150.474L131.479 148.87C132.417 148.506 132.875 147.459 132.526 146.527L124.5 125.704C124.136 124.766 123.094 124.308 122.156 124.657L118.011 126.256C117.078 126.62 116.615 127.667 116.964 128.605L124.99 149.428C125.339 150.381 126.401 150.839 127.334 150.474Z" fill="#EDBE21"/>
<path fill-rule="evenodd" clip-rule="evenodd" d="M41.6147 166.985C51.8595 164.479 55.0054 155.011 55.0366 142.464C57.0991 143.099 60.4533 145.589 60.3595 148.938C60.1356 156.516 54.9897 170.026 47.6929 172.787C46.4741 170.521 44.7502 169.25 41.6147 166.985Z" fill="#1C1D29"/>
<path fill-rule="evenodd" clip-rule="evenodd" d="M25.8804 153.661C35.8543 153.818 42.0731 142.099 57.1772 144.255C60.8647 144.781 62.2554 148.651 61.8439 151.693C44.8127 143.734 41.9168 161.557 28.5106 163.828C28.8231 160.448 27.9689 156.74 25.8804 153.661Z" fill="#1C1D29"/>
<path d="M27.8283 94.2349C34.5575 94.5838 41.7085 95.7765 48.4689 97.6932C54.9429 99.5317 61.0679 102.058 66.1043 105.131L66.2137 105.214C74.146 110.62 77.4064 122.912 77.1668 131.396C77.1043 133.839 76.7554 136.011 76.1564 137.709C75.3491 139.943 74.0522 141.495 72.245 142.037C70.3804 142.594 68.3543 142.021 66.2762 139.959C60.7554 134.438 54.6252 129.922 48.0731 126.146C41.4897 122.355 34.4585 119.344 27.1616 116.818C21.4637 114.855 17.521 113 14.9272 111.11C11.8075 108.86 10.4637 106.448 10.3491 103.766C10.3335 103.516 10.3335 103.277 10.3491 103.037V103.021C10.4637 100.865 11.396 98.6151 13.8179 96.8859C15.8439 95.4432 18.995 94.3807 23.7293 94.2036C24.995 94.1411 26.3543 94.1567 27.8283 94.2349ZM47.0158 102.881C40.6356 101.073 33.8752 99.9328 27.5575 99.6151C26.2137 99.5526 25.0106 99.5317 23.9325 99.5838C20.3856 99.7244 18.2033 100.375 16.9533 101.277C16.0991 101.896 15.7658 102.625 15.7345 103.308V103.594C15.7658 104.563 16.4793 105.579 18.0939 106.75C20.245 108.303 23.7293 109.922 28.922 111.714C36.5158 114.344 43.8491 117.5 50.7658 121.469C57.6981 125.448 64.1877 130.256 70.0939 136.136C70.5835 136.631 70.6929 136.881 70.7241 136.865C70.7606 136.849 70.9012 136.5 71.12 135.902C71.5314 134.74 71.771 133.141 71.8335 131.282C72.0262 124.178 69.4741 113.98 63.2397 109.698C58.6304 106.875 52.995 104.579 47.0158 102.881Z" fill="#1C1D29"/>
<path fill-rule="evenodd" clip-rule="evenodd" d="M27.6874 96.9173C40.4114 97.5839 54.802 101.36 64.6926 107.433C77.6458 116.282 76.6458 146.511 68.177 138.042C56.7499 126.62 42.9426 119.407 28.0312 114.251C17.1406 110.495 13.1822 107.303 13.0416 103.657C12.9166 100.313 15.6718 96.2819 27.6874 96.9173Z" fill="#384357"/>
<path fill-rule="evenodd" clip-rule="evenodd" d="M42.2035 98.8857C50.7347 100.724 59.6618 103.818 64.693 107.433C77.6462 116.282 76.6462 146.511 68.1774 138.042C60.3597 130.24 51.4274 124.386 41.8076 119.818C44.3545 116.948 45.891 113.203 45.891 109.115C45.891 105.245 44.5107 101.693 42.2035 98.8857Z" fill="#263042"/>
<path d="M62.0056 102.073C60.9587 105.594 60.0577 112.063 59.4066 119.99C58.6983 128.792 58.3024 139.214 58.3649 149.219C58.3649 149.599 58.2868 149.948 58.141 150.281C56.1618 154.932 54.1827 159.896 52.4431 165.016C50.7191 170.089 49.2452 175.307 48.2504 180.495C47.5681 184.078 47.6774 186.458 48.3129 187.854C48.5785 188.443 48.9587 188.787 49.3858 188.932C50.0056 189.136 50.8441 189.057 51.8077 188.771C54.516 187.964 57.7139 185.62 60.4222 182.333C63.6202 178.448 66.7035 174.865 70.016 171.537C73.3702 168.156 76.9795 165.047 81.2035 162.177C81.667 161.875 82.1722 161.719 82.6774 161.719C82.9483 161.719 84.2139 161.417 85.4483 161.13C86.792 160.813 88.0941 160.511 88.8702 160.479C89.3129 160.464 89.7556 160.542 90.1358 160.719C96.2608 163.557 101.516 166.886 106.188 170.599C110.823 174.307 114.86 178.417 118.547 182.86C120.355 185.016 122.141 186.349 123.693 186.807C124.36 186.995 124.927 187.011 125.355 186.839C125.766 186.682 126.131 186.297 126.433 185.714C127.146 184.349 127.412 182.115 127.063 178.958C126.542 174.276 125.021 168.583 123.203 163.271C121.016 156.912 118.438 151.219 116.667 148.568C116.302 148.031 116.157 147.396 116.219 146.792C116.506 138.61 116.318 131.063 115.427 123.307C114.589 115.839 113.105 108.162 110.792 99.4845C105.808 96.9168 94.5681 95.6147 83.7399 96.2033C74.5577 96.7085 65.8806 98.5366 62.0056 102.073ZM54.042 119.563C54.7556 110.776 55.8129 103.531 57.0993 99.7554C57.2243 99.3908 57.4274 99.0418 57.7139 98.7554C62.4014 93.8699 72.7504 91.4272 83.4847 90.8595C95.8024 90.1929 108.938 91.9845 114.386 95.3647C115.016 95.6981 115.526 96.2814 115.73 97.0418C118.266 106.401 119.896 114.662 120.797 122.75C121.683 130.521 121.891 138.12 121.62 146.333C123.584 149.537 126.162 155.297 128.318 161.542C130.245 167.156 131.86 173.261 132.433 178.386C132.907 182.667 132.401 185.932 131.23 188.203C130.308 189.995 128.98 191.214 127.365 191.849C125.797 192.485 124.042 192.516 122.203 191.995C119.672 191.245 116.933 189.328 114.417 186.313C110.964 182.177 107.183 178.323 102.828 174.833C98.667 171.5 93.9952 168.521 88.5837 165.953C88.0941 166.047 87.365 166.224 86.6358 166.396C85.5889 166.636 84.516 166.886 83.6618 167.016C80.0004 169.552 76.8233 172.328 73.8129 175.339C70.6149 178.542 67.6566 182.016 64.5681 185.761C61.1983 189.849 57.016 192.849 53.3285 193.943C51.3493 194.531 49.4379 194.594 47.7399 194.052C45.8754 193.453 44.3702 192.182 43.4222 190.12C42.3285 187.745 42.042 184.271 42.9587 179.495C44.0056 174.057 45.542 168.583 47.3441 163.302C49.0733 158.245 51.016 153.313 52.9795 148.698C52.9483 138.563 53.3285 128.224 54.042 119.563Z" fill="#1C1D29"/>
<path fill-rule="evenodd" clip-rule="evenodd" d="M59.6462 100.615C57.2087 107.844 55.5629 129.193 55.6723 149.219C51.6514 158.625 47.6462 169.344 45.6046 179.99C42.4691 196.37 54.6775 193.547 62.4952 184.047C68.7816 176.417 74.5889 169.933 82.6931 164.412C83.8181 164.396 87.8702 163.24 88.9952 163.177C100.818 168.662 109.318 176.006 116.474 184.604C123.25 192.74 131.136 191.297 129.74 178.688C128.537 167.901 122.381 152.25 118.896 147.094C119.5 130.302 118.12 116.219 113.105 97.7399C104.094 91.8909 68.7296 91.1462 59.6462 100.615Z" fill="#384357"/>
<path fill-rule="evenodd" clip-rule="evenodd" d="M55.6721 149.047V149.234C51.6512 158.641 47.646 169.359 45.6044 180.005C44.5731 185.411 45.2085 188.724 46.7919 190.391C44.5419 181.177 54.5158 157.151 59.8804 149.031L55.6721 149.047Z" fill="#697791"/>
<path fill-rule="evenodd" clip-rule="evenodd" d="M48.5156 191.469C52.1719 192.693 58.0469 189.453 62.4948 184.047C67.7656 177.656 72.6875 172.057 78.9271 167.156L72.9427 167.651C60.9115 174.958 56.6719 191.229 48.5156 191.469Z" fill="#263042"/>
<path fill-rule="evenodd" clip-rule="evenodd" d="M89.9741 163.62C101.307 169.063 109.542 176.229 116.49 184.589C123.266 192.724 131.151 191.281 129.755 178.672C129.219 173.771 127.636 167.87 125.766 162.401C130.406 176.052 119.974 181.859 113.089 175.167C107.766 169.995 101.245 162.984 96.8595 161.844C94.7554 161.307 92.0314 162.417 89.9741 163.62Z" fill="#263042"/>
<path fill-rule="evenodd" clip-rule="evenodd" d="M118.438 126.302C117.63 117.328 115.953 108.24 113.104 97.7396C105.297 92.6667 77.7552 91.4271 64.599 97.3281C63.0625 98.3125 60.6927 99.5677 59.6302 100.594C59.0417 102.229 58.6979 103.99 58.2031 106.859C64.9792 114.63 76.6927 121.563 89.8333 124.974C99.1875 127.396 105.141 127.448 113.781 126.859C114.969 126.797 116.599 126.589 118.438 126.302Z" fill="#263042"/>
<path d="M72.276 97.0735C70.6145 97.4068 68.6666 97.8391 66.8645 98.2975C66.3906 98.4225 65.9114 98.5527 65.4687 98.6777C68.2552 102.089 71.1197 105.386 74.0833 108.558C77.3437 112.079 80.7447 115.475 84.2291 118.787L89.5312 114.792C86.2864 112.157 83.2343 109.449 80.4322 106.626C77.3437 103.563 74.6041 100.376 72.276 97.0735ZM65.7083 94.0943C68.0833 93.4902 70.7239 92.9381 72.6718 92.5735C73.5416 92.3495 74.5104 92.6985 75.0468 93.4902C77.3749 96.9954 80.2239 100.344 83.4687 103.594C86.7291 106.86 90.4322 110.047 94.4218 113.188C94.5677 113.297 94.7083 113.443 94.8177 113.6C95.5468 114.568 95.3749 115.933 94.4218 116.646L85.4479 123.386C84.6249 124.006 83.4374 123.943 82.6614 123.214C78.6249 119.422 74.7135 115.537 70.9635 111.506C67.1822 107.433 63.5729 103.245 60.1822 98.9485C60.0729 98.8027 59.9791 98.662 59.9166 98.485C59.4062 97.3912 59.8802 96.11 60.9583 95.6152C62.1458 95.0943 63.8541 94.5683 65.7083 94.0943Z" fill="#1C1D29"/>
<path fill-rule="evenodd" clip-rule="evenodd" d="M73.2448 94.6826C69.9167 95.2972 64.3802 96.4899 61.8594 97.6149C68.6198 106.193 76.1094 114.157 84.1198 121.641C87.1094 119.391 90.0885 117.136 93.0781 114.886C85.0208 108.558 78.0417 101.912 73.2448 94.6826Z" fill="#961818"/>
<path d="M57.8543 142.084C57.8387 143.272 57.8387 144.464 57.8387 145.652C67.922 141.214 77.547 136.485 86.62 130.954C96.2606 125.069 105.328 118.251 113.781 109.86L113.339 107.735C112.99 105.99 112.63 104.214 112.182 102.423C103.813 111.475 95.0418 119.027 85.9533 125.496C76.8387 131.996 67.4481 137.391 57.8543 142.084ZM53.521 146.829C53.5054 144.798 53.5054 142.735 53.5522 140.751C53.5366 139.928 53.995 139.136 54.7866 138.756C64.5835 134.011 74.1772 128.574 83.4377 121.959C92.6981 115.36 101.641 107.589 110.156 98.2039C110.552 97.7716 111.125 97.4904 111.755 97.4904H113.61C114.573 97.4591 115.495 98.0737 115.761 99.0581C116.537 101.74 117.078 104.355 117.599 106.876C117.818 107.97 118.042 109.032 118.25 110.001C118.438 110.73 118.266 111.537 117.693 112.11C108.735 121.152 99.1252 128.428 88.8856 134.678C78.6877 140.897 67.9429 146.079 56.6356 150.949C56.3543 151.095 56.0366 151.173 55.6877 151.173C54.4845 151.173 53.5054 150.188 53.5054 148.985C53.5054 146.303 53.521 147.079 53.521 146.829Z" fill="#1C1D29"/>
<path fill-rule="evenodd" clip-rule="evenodd" d="M55.719 140.719C55.6409 143.433 55.6878 146.256 55.6878 148.985C78.2138 139.292 98.5055 128.381 116.157 110.574C115.38 107.115 114.782 103.417 113.688 99.6621C113.058 99.6621 112.407 99.6621 111.771 99.6777C94.5211 118.693 75.5055 131.141 55.719 140.719Z" fill="#D62727"/>
<path fill-rule="evenodd" clip-rule="evenodd" d="M97.271 126.542C103.86 121.865 110.156 116.615 116.141 110.574V110.558C115.906 109.48 115.682 108.37 115.448 107.24C114.906 104.782 114.292 102.261 113.61 99.6621H111.74C103.193 109.084 94.2345 116.886 84.9429 123.527C86.5418 124.068 88.172 124.542 89.8179 124.975C92.5575 125.688 94.995 126.193 97.271 126.542Z" fill="#961818"/>
<path fill-rule="evenodd" clip-rule="evenodd" d="M54.5156 142.177C54.4844 144.953 54.4687 148.349 54.4375 151.125C75.3333 156.261 97.0677 155.344 119.594 148.365C119.75 146.146 119.766 141.448 119.927 139.229C100.12 144.386 77.151 147.125 54.5156 142.177Z" fill="#1C1D29"/>
<path fill-rule="evenodd" clip-rule="evenodd" d="M167.62 55.1465C157.141 59.8548 148.292 51.4798 140.141 37.3496C138.776 39.5684 137.479 44.8652 139.729 48.5632C144.828 56.9538 158.011 68.4173 166.115 66.1673C165.688 62.6934 166.37 59.9954 167.62 55.1465Z" fill="#1C1D29"/>
<mask id="mask0_1313_3201" style="mask-type:luminance" maskUnits="userSpaceOnUse" x="137" y="27" width="40" height="27">
<path d="M137.297 27.7031H176.964V53.0365H137.297V27.7031Z" fill="white"/>
</mask>
<g mask="url(#mask0_1313_3201)">
<path fill-rule="evenodd" clip-rule="evenodd" d="M172.609 28.5469C164.089 36.0677 151.109 27.4062 139.458 40.9323C136.609 44.2344 137.906 49.6094 140.234 52.75C149.813 31.2448 163.854 49.2292 176.927 41.9323C174.443 38.3646 172.781 33.5573 172.609 28.5469Z" fill="#1C1D29"/>
</g>
<path d="M139.38 14.5938C143.813 19.9688 147.214 37.8751 147.214 55.349C147.198 69.5418 144.985 83.7084 139.318 91.0626C139.255 91.1459 139.209 91.2084 139.141 91.2709C130.469 100.391 109.162 105.609 87.8231 106.417C66.4846 107.24 44.844 103.688 35.5054 95.2657C35.4117 95.1876 35.3335 95.1095 35.2658 95.0157C29.0783 88.0834 25.7867 74.1772 24.6929 60.0626C23.3335 42.4897 25.4065 24.2032 29.4898 18.6668C29.5523 18.5886 29.6148 18.5105 29.6773 18.448L29.7762 18.3334C40.1408 7.17196 61.9117 0.937587 83.7554 0.0990458C105.599 -0.744705 127.761 3.79175 138.953 14.1147L139.047 14.2136C139.172 14.3543 139.287 14.4636 139.38 14.5938ZM141.927 55.349C141.943 38.9532 139.078 22.5522 135.36 18.0313C125.229 8.6928 104.537 4.61467 83.9429 5.41155C63.3492 6.20321 43.0575 11.849 33.6669 21.9532C30.3127 26.724 28.7137 43.3126 29.9794 59.6772C30.995 72.7501 33.8596 85.4324 39.1617 91.4272C47.5054 98.8334 67.5783 101.912 87.646 101.151C107.703 100.375 127.49 95.7605 135.235 87.7345C140.031 81.3282 141.912 68.448 141.927 55.349Z" fill="#1C1D29"/>
<path fill-rule="evenodd" clip-rule="evenodd" d="M137.261 16.1926C144.698 24.7915 149.084 74.0468 137.214 89.4634C120.86 106.656 54.896 109.208 37.2606 93.3176C24.2346 78.854 24.8491 29.4218 31.5939 20.2707C51.2866 -1.14075 116 -3.63033 137.261 16.1926Z" fill="#384357"/>
<path fill-rule="evenodd" clip-rule="evenodd" d="M87.7291 103.787C66.9895 104.578 46.0937 101.245 37.276 93.3024C24.25 78.8389 24.8698 29.4066 31.6093 20.2555C41.6614 9.31283 63.4895 3.31804 85.2604 2.71387C69.7916 5.01595 54.7395 10.0264 42.7239 17.2087C36.8489 20.7295 35.25 21.5524 33.5729 28.4847C29.0781 47.1045 31.1979 67.0837 36.5312 82.7868C38.8906 89.7347 39.5729 91.6826 46.0625 94.6826C57.9062 100.151 71.9427 102.453 87.7291 103.787Z" fill="#697791"/>
<path fill-rule="evenodd" clip-rule="evenodd" d="M137.26 16.1927C144.698 24.7917 149.083 74.0469 137.214 89.4635C134 92.8385 128.885 95.6302 122.599 97.8542C140.964 73.099 141.151 25.2813 107.672 4.10938C119.958 6.05729 130.688 10.0573 137.26 16.1927Z" fill="#263042"/>
<path d="M145.917 41.1092C143.828 56.0467 133.521 66.9425 119.703 73.6352C109.953 78.3436 98.4427 80.9634 86.8594 81.4061C75.2708 81.8488 63.6042 80.1353 53.5208 76.1873C39.1615 70.5728 28.0312 60.4425 24.849 45.6144C24.6146 44.453 25.3437 43.3123 26.5 43.0571C26.8125 42.9946 27.1302 42.9946 27.4323 43.0727C49.0729 48.1352 67.4323 50.3696 85.6562 49.6717C103.859 48.9738 121.984 45.328 143.177 38.6196C144.302 38.255 145.521 38.8905 145.87 40.0155C145.979 40.38 145.995 40.7602 145.917 41.1092ZM117.833 69.7655C129.391 64.1821 138.224 55.4634 141.057 43.755C120.969 49.8957 103.464 53.255 85.7969 53.9373C68.1615 54.6196 50.4479 52.604 29.9323 48.0363C33.651 59.4894 43.1354 67.4998 55.0729 72.1769C64.599 75.9009 75.6823 77.5363 86.6823 77.1092C97.7135 76.6977 108.625 74.2238 117.833 69.7655Z" fill="#1C1D29"/>
<path fill-rule="evenodd" clip-rule="evenodd" d="M143.813 40.667C137.214 89.4639 37.2606 93.318 26.9429 45.167C70.5835 55.3649 101.089 54.193 143.813 40.667Z" fill="#263042"/>
<path fill-rule="evenodd" clip-rule="evenodd" d="M128.078 66.0889C106.313 82.3597 67.547 83.8493 44.573 69.3076C40.3803 64.7087 37.2449 56.1097 39.8751 47.9118C79.1303 53.6201 90.3387 54.9691 129.964 45.9795C132.208 52.1774 129.537 62.9795 128.078 66.0889Z" fill="#FACF89"/>
<path fill-rule="evenodd" clip-rule="evenodd" d="M38.9375 53.2243C39.0208 51.4639 39.3177 49.6878 39.875 47.9118C79.1302 53.6201 90.3385 54.9691 129.964 45.9795C130.531 47.5628 130.786 49.4326 130.818 51.417C98.8698 62.2816 68.1771 62.9795 38.9375 53.2243Z" fill="#F5986A"/>
<path fill-rule="evenodd" clip-rule="evenodd" d="M63.9847 55.2869C68.6357 55.115 72.5784 59.6984 72.8024 65.5161C73.0212 71.3546 69.443 76.2192 64.792 76.3963C60.1357 76.5682 56.193 71.9848 55.9743 66.1671C55.7503 60.3442 59.3441 55.4796 63.9847 55.2869Z" fill="#1C1D29"/>
<path fill-rule="evenodd" clip-rule="evenodd" d="M66.4378 58.5524C68.2086 58.4899 69.7138 60.2347 69.8076 62.4535C69.8857 64.6774 68.5263 66.5472 66.7555 66.6097C64.9795 66.6722 63.4742 64.9274 63.3805 62.7087C63.2868 60.4899 64.6618 58.6357 66.4378 58.5524Z" fill="white"/>
<path d="M143.604 27.3752C144.115 29.4377 144.573 31.7033 144.969 34.0991C145.365 36.5106 145.714 39.0939 145.995 41.7918C146.11 42.8387 145.427 43.7866 144.448 44.0731C123.281 50.9116 102.844 54.5262 83.1825 54.8595C63.4586 55.1929 44.5107 52.2241 26.37 45.8647C25.4377 45.547 24.8857 44.646 24.9482 43.7085C25.0263 42.172 25.1044 40.7449 25.2138 39.4585C25.3284 38.0627 25.469 36.6981 25.6252 35.4168C25.7711 34.2397 26.8284 33.4012 28.0002 33.5262L28.1929 33.5574C46.0627 35.8127 64.2034 37.0158 82.87 36.0835C101.547 35.146 120.766 32.0522 140.839 25.6929C141.959 25.3283 143.177 25.9637 143.526 27.0887C143.573 27.1981 143.589 27.2814 143.604 27.3752ZM140.74 34.797C140.49 33.2918 140.219 31.8647 139.933 30.5002C120.308 36.5106 101.453 39.4585 83.0888 40.3804C64.8544 41.2814 47.1252 40.1877 29.6617 38.0627C29.5992 38.6356 29.5523 39.2189 29.5054 39.8074C29.4429 40.6824 29.3804 41.521 29.3336 42.3439C46.5367 48.1668 64.4742 50.896 83.1357 50.5783C101.88 50.2606 121.349 46.8804 141.563 40.5054C141.328 38.5262 141.058 36.6199 140.74 34.797Z" fill="#1C1D29"/>
<path fill-rule="evenodd" clip-rule="evenodd" d="M141.5 27.7559C142.516 31.834 143.323 36.7298 143.875 41.9954C101.88 55.5579 62.9064 56.3809 27.0991 43.8392C27.2241 40.9486 27.4637 38.209 27.7658 35.6673C63.8543 40.2194 101.011 40.584 141.5 27.7559Z" fill="#1C1D29"/>
<path fill-rule="evenodd" clip-rule="evenodd" d="M106.219 54.3488C101.563 54.38 97.8283 59.1405 97.8596 64.9582C97.8908 70.7967 101.688 75.505 106.344 75.4738C110.995 75.4425 114.735 70.6873 114.703 64.8644C114.672 59.0311 110.87 54.3175 106.219 54.3488Z" fill="#1C1D29"/>
<path fill-rule="evenodd" clip-rule="evenodd" d="M103.922 57.7296C102.146 57.7452 100.724 59.5525 100.724 61.7869C100.74 64.0265 102.198 65.8181 103.969 65.8025C105.74 65.7869 107.167 63.9796 107.167 61.74C107.151 59.5056 105.693 57.714 103.922 57.7296Z" fill="white"/>
<path fill-rule="evenodd" clip-rule="evenodd" d="M97.9689 161.053C93.2189 165.527 79.7189 167.839 72.9585 167.652C77.8647 164.574 92.0158 161.511 97.9689 161.053Z" fill="#1C1D29"/>
<path d="M18.4431 70.813C21.2608 70.1933 22.7139 72.0526 23.5681 75.1724C24.0108 76.8078 24.2816 78.7922 24.5681 80.886C25.0733 84.6099 25.6254 88.7349 27.0525 90.2558C27.9535 91.2089 27.9066 92.7141 26.9587 93.6203C26.4014 94.1412 25.641 94.3495 24.9327 94.2349L14.3389 92.4433C13.391 92.287 12.6775 91.5891 12.4431 90.7141C11.3493 87.5266 10.5733 83.9433 10.5577 80.787C10.5421 78.7089 10.8598 76.7922 11.5889 75.2037C12.4431 73.3651 13.8181 71.9849 15.8598 71.2714C16.6202 71.0058 17.49 70.8443 18.4431 70.813ZM18.9952 76.4276C18.8702 75.9693 19.7712 75.3964 19.4066 75.4745C19.1983 75.537 18.9796 75.5735 18.7556 75.5735C18.2191 75.5735 17.7764 75.6516 17.3962 75.7766C16.6983 76.0162 16.2243 76.537 15.891 77.2193C15.4639 78.1568 15.2764 79.3912 15.2921 80.7714C15.3077 83.011 15.7973 85.563 16.5421 87.9901L21.1775 88.7818C20.5316 86.5162 20.1827 83.9589 19.8493 81.5318C19.5941 79.5683 19.3441 77.7141 18.9952 76.4276Z" fill="#1C1D29"/>
<path fill-rule="evenodd" clip-rule="evenodd" d="M18.7396 73.1776C23.0781 71.9849 21.1771 87.4797 25.3281 91.8911C21.7969 91.2869 18.2656 90.6984 14.7344 90.0994C12.1719 82.7088 11.3802 73.2244 18.7396 73.1776Z" fill="#697791"/>
<path fill-rule="evenodd" clip-rule="evenodd" d="M21.0053 74.9537C22.5105 78.9954 22.2085 88.5735 25.3282 91.8912L15.4949 90.2246C13.4064 83.5006 13.2501 77.6465 20.0418 74.9069C20.4012 74.8079 20.7189 74.8235 21.0053 74.9537Z" fill="#384357"/>
<path d="M13.3909 94.8073C12.1878 95.7917 12.0315 99.7553 12.3753 104.099C12.7555 108.859 13.8492 113.792 14.9742 116.156C15.0992 116.406 15.193 116.615 15.292 116.74L15.4013 116.802C16.6826 117.531 19.4378 117.708 22.2555 117.438C25.042 117.167 27.7034 116.469 28.7763 115.458L28.8388 115.391C29.5524 113.094 29.4899 107.385 28.4951 102.245C27.7815 98.6146 26.6878 95.4271 25.1826 94.4896C23.4899 93.6823 21.4638 93.2865 19.4065 93.3334C17.3649 93.3646 15.2763 93.8386 13.4378 94.7761L13.3909 94.8073ZM10.4013 91.1303C10.6982 90.8907 11.0159 90.6823 11.3649 90.5105C13.8336 89.2709 16.6201 88.6407 19.344 88.5886C22.1774 88.5417 24.9795 89.1146 27.3388 90.2553L27.5107 90.349C30.4065 92.0313 32.2295 96.474 33.1617 101.375C34.318 107.339 34.2555 114.297 33.2555 117.167C33.2086 117.344 33.1305 117.516 33.0367 117.677C32.7659 118.135 32.4326 118.563 32.0055 118.943C30.1409 120.688 26.4013 121.818 22.6826 122.182C18.9951 122.547 15.1461 122.182 13.0107 120.943V120.927C12.5211 120.641 12.094 120.307 11.7451 119.943L11.6513 119.818C11.2867 119.375 10.9534 118.833 10.667 118.198C9.3232 115.375 8.04195 109.745 7.63049 104.464C7.18779 98.7865 7.78674 93.2553 10.4013 91.1303Z" fill="#1C1D29"/>
<path fill-rule="evenodd" clip-rule="evenodd" d="M12.375 92.667C7.50003 95.0003 10.7292 114.917 13.5157 118.344C16.1615 121.183 28.9532 120.058 30.9948 116.506C32.625 112.219 31.4844 95.4118 26.3229 92.4118C22.2865 90.4482 16.7604 90.4326 12.375 92.667Z" fill="#384357"/>
<path d="M9.65625 91.2395C9.95313 90.9999 10.2708 90.7968 10.6198 90.6197C12.2188 89.8124 13.9271 89.2707 15.6563 88.9739C17.4427 88.6718 19.2656 88.6041 21.0208 88.7968C21.4479 88.828 21.8594 88.9739 22.224 89.2395C23.349 90.052 24.3594 91.1457 25.2813 92.427C27.7031 95.8385 29.3646 100.802 29.8385 105.687C30.3281 110.713 29.5521 115.755 27.0677 119.198C26.3854 120.151 25.5625 120.974 24.599 121.656C24.3125 121.864 23.9635 122.005 23.5833 122.068C21.1615 122.448 18.5677 122.531 16.4167 122.26C14.1198 121.974 12.1406 121.26 11.0313 120.057L10.9375 119.927C10.6198 119.531 10.3021 119.026 10.0208 118.437L9.95313 118.297C8.60938 115.474 7.32813 109.844 6.91667 104.562C6.44271 98.9166 7.04167 93.3801 9.65625 91.2395ZM12.6458 94.9322C11.4427 95.9166 11.2865 99.8801 11.6354 104.229C12.0156 108.984 13.1042 113.917 14.2292 116.281L14.276 116.391C14.3698 116.599 14.4688 116.755 14.5469 116.87C14.8802 117.167 15.7969 117.391 16.9844 117.531C18.5677 117.724 20.4531 117.693 22.2396 117.469C22.5885 117.167 22.9063 116.802 23.2031 116.406C24.9792 113.963 25.4844 110.094 25.1042 106.13C24.7083 102.042 23.349 97.9322 21.401 95.1874C20.9271 94.5207 20.4167 93.953 19.8958 93.4739C18.7552 93.3957 17.599 93.4582 16.4479 93.651C15.1302 93.8697 13.8646 94.2864 12.6927 94.8697L12.6458 94.9322Z" fill="#1C1D29"/>
<path fill-rule="evenodd" clip-rule="evenodd" d="M11.6354 92.7766C6.76041 95.1099 9.98957 115.027 12.7552 118.454C14.2448 120.058 18.9948 120.407 23.2031 119.74C30.7864 114.344 27.5729 96.1099 20.8125 91.1933C17.7604 90.8443 14.4687 91.3495 11.6354 92.7766Z" fill="#697791"/>
<path fill-rule="evenodd" clip-rule="evenodd" d="M14.5314 119.454C16.6981 120.167 20.1043 120.23 23.2189 119.74C29.9637 114.933 28.1772 99.9799 22.9377 93.2715C19.9585 93.0007 16.7918 93.5059 14.0731 94.8861C9.57829 97.0424 11.9481 114.094 14.5314 119.454Z" fill="#384357"/>
<path fill-rule="evenodd" clip-rule="evenodd" d="M48.5941 12.4014C52.5056 10.0889 57.3181 9.56288 59.3285 11.2295C61.3546 12.8962 59.8181 16.115 55.9119 18.4327C52.0004 20.7452 47.1879 21.2712 45.1619 19.6045C43.1514 17.9379 44.6879 14.7035 48.5941 12.4014Z" fill="#697791"/>
<path fill-rule="evenodd" clip-rule="evenodd" d="M60.4065 19.8439C62.719 18.4793 65.5524 18.1616 66.7399 19.146C67.9222 20.1252 67.0211 22.0314 64.7294 23.396C62.4169 24.7554 59.5836 25.0731 58.3961 24.0939C57.2086 23.1095 58.1097 21.2033 60.4065 19.8439Z" fill="#697791"/>
</svg>
