<svg width="199" height="186" viewBox="0 0 199 186" fill="none" xmlns="http://www.w3.org/2000/svg">
<path d="M139.266 137.868C133.829 130.337 128.209 116.951 126.761 107.644C126.292 104.665 126.235 102.019 126.714 99.9877C128.141 93.946 133.318 93.9825 137.933 96.446C138.235 96.6023 138.5 96.821 138.704 97.0762C147.105 105.857 151.797 116.774 152.745 125.04C153.11 128.191 152.933 131.029 152.23 133.326C150.49 138.967 145.808 140.743 140.454 138.779C139.964 138.592 139.558 138.269 139.266 137.868ZM131.808 106.863C133.105 115.196 138.047 127.107 142.943 134.201C145.282 134.847 146.615 134.18 147.349 131.821C147.849 130.222 147.954 128.097 147.667 125.623C146.834 118.347 142.672 108.696 135.198 100.8C130.276 98.3054 131.204 103.035 131.808 106.863Z" fill="#1C1D29"/>
<path fill-rule="evenodd" clip-rule="evenodd" d="M141.345 136.373C131.694 123.018 121.459 90.5757 136.74 98.7111C153.214 115.805 154.782 141.305 141.345 136.373Z" fill="#384357"/>
<path fill-rule="evenodd" clip-rule="evenodd" d="M130.079 111.159C127.709 101.524 128.62 94.383 136.74 98.7112C139.699 101.784 142.172 105.123 144.172 108.508C139.87 109.675 135.105 110.55 130.079 111.159Z" fill="#263042"/>
<path d="M85.6673 107.717C86.2662 103.894 87.1985 99.1648 82.2767 101.644C74.8027 109.545 70.6412 119.191 69.8027 126.467C69.5214 128.941 69.6256 131.066 70.1256 132.665C74.1673 145.774 85.1204 111.217 85.6673 107.717ZM90.7142 108.498C89.2558 117.811 83.6464 131.191 78.2037 138.722C75.3287 142.727 67.0787 140.144 65.2402 134.18C64.5319 131.894 64.3652 129.055 64.7194 125.894C65.6725 117.628 70.36 106.712 78.761 97.9304C78.9694 97.6752 79.2298 97.4617 79.5319 97.3002C84.1569 94.8367 89.3339 94.8002 90.7506 100.847C91.2298 102.878 91.1725 105.519 90.7142 108.498Z" fill="#1C1D29"/>
<path fill-rule="evenodd" clip-rule="evenodd" d="M76.1308 137.227C85.7818 123.873 96.011 91.4302 80.7349 99.5656C64.261 116.659 62.6933 142.165 76.1308 137.227Z" fill="#384357"/>
<path fill-rule="evenodd" clip-rule="evenodd" d="M87.3965 112.019C89.7663 102.378 88.8548 95.2426 80.735 99.5655C77.7715 102.644 75.3027 105.977 73.3027 109.362C77.6048 110.529 82.3704 111.414 87.3965 112.019Z" fill="#263042"/>
<path fill-rule="evenodd" clip-rule="evenodd" d="M189.074 59.93C178.475 64.4092 169.782 55.8311 161.933 41.5029C160.527 43.7008 159.094 48.9561 161.266 52.7113C166.183 61.2217 179.162 72.9925 187.324 70.9248C186.969 67.4456 187.709 64.7529 189.074 59.93Z" fill="#1C1D29"/>
<mask id="mask0_1313_3064" style="mask-type:luminance" maskUnits="userSpaceOnUse" x="159" y="33" width="40" height="25">
<path d="M159.345 33.3936H198.678V57.3936H159.345V33.3936Z" fill="white"/>
</mask>
<g mask="url(#mask0_1313_3064)">
<path fill-rule="evenodd" clip-rule="evenodd" d="M194.657 33.4141C185.954 40.7474 173.137 31.7891 161.157 45.0651C158.23 48.2995 159.407 53.7161 161.663 56.9141C171.746 35.5964 185.407 53.9141 198.678 46.9089C196.282 43.2891 194.73 38.4453 194.657 33.4141Z" fill="#1C1D29"/>
</g>
<path d="M83.74 106.185C80.1515 117.857 79.9796 138.966 80.1619 151.31C80.2244 156.164 81.3077 157.321 75.464 158.768L63.8963 162.513L64.0994 177.404C104.526 164.534 110.099 165.748 152.464 177.539L152.667 162.69C148.526 161.451 143.969 160.331 139.917 158.893C135.339 157.253 136.959 153.925 137.209 149.951C138.235 133.081 136.683 119.878 132.162 103.659C122.74 98.7476 91.9275 98.7111 83.74 106.185ZM79.6515 103.029C89.0785 93.2268 124.818 92.9768 135.584 99.7424C137.146 100.628 137.907 105.331 138.349 107.107C142.021 121.737 143.261 134.388 142.292 150.248C141.995 155.149 141.24 153.946 145.865 155.326L154.099 157.784C155.724 158.268 157.797 158.581 157.771 160.821L157.5 180.8C157.511 181.055 157.48 181.31 157.407 181.571C156.74 183.998 154.584 183.446 152.865 182.966C109.235 170.815 104.98 169.628 62.9067 183.143C61.0577 183.737 59.0473 183.169 59.016 180.914L58.7452 160.81C58.6775 159.669 59.3806 158.591 60.5108 158.222C61.6671 157.847 75.141 153.597 75.1306 153.466C75.0942 152.966 75.0473 152.367 75.0317 151.378C74.8963 142.081 74.964 127.435 76.5681 115.581C76.8702 113.503 78.1567 104.576 79.6515 103.029Z" fill="#1C1D29"/>
<path fill-rule="evenodd" clip-rule="evenodd" d="M81.4954 104.794C78.9746 112.253 77.3027 130.815 77.5944 151.341C77.6517 155.075 78.584 155.336 75.1882 156.164L61.3027 160.648L61.5736 180.888C105.334 166.799 109.141 168.133 154.943 180.888L155.214 160.789L141.824 156.794C138.48 155.976 139.464 154.482 139.73 150.101C140.912 130.622 138.876 118.081 134.318 101.971C125.428 96.19 90.4902 95.4556 81.4954 104.794Z" fill="#384357"/>
<path fill-rule="evenodd" clip-rule="evenodd" d="M81.4956 104.795C80.9487 106.42 80.4331 108.602 79.98 111.227C97.2248 114.602 119.537 114.18 136.485 110.128C135.85 107.477 135.136 104.774 134.334 101.967C125.428 96.1908 90.4904 95.4564 81.4956 104.795Z" fill="#263042"/>
<path d="M93.9849 101.316C91.7193 101.769 89.4849 102.264 87.2662 102.894C92.9954 109.93 99.2193 116.514 105.797 122.753L111.032 118.816C104.782 113.717 98.6464 107.936 93.9849 101.316ZM94.3704 96.8679C95.2245 96.6492 96.1829 96.9877 96.7089 97.7794C101.428 104.878 108.021 110.972 114.688 116.295C115.11 116.634 115.896 117.17 116.235 117.613C118.068 120.029 113.698 122.227 111.99 123.519C110.412 124.712 106.339 129.076 104.235 127.097C96.5422 119.915 89.2662 112.243 82.6985 104.003C81.7193 102.774 80.6412 100.826 82.7818 99.8784C85.7506 98.5607 91.3547 97.4304 94.3704 96.8679Z" fill="#1C1D29"/>
<path fill-rule="evenodd" clip-rule="evenodd" d="M94.9329 98.9453C91.6517 99.5547 86.1725 100.732 83.6934 101.831C90.3652 110.305 97.7715 118.159 105.683 125.549C108.636 123.326 111.584 121.107 114.537 118.888C106.574 112.638 99.6882 106.091 94.9329 98.9453Z" fill="#D62727"/>
<path fill-rule="evenodd" clip-rule="evenodd" d="M84.334 102.633C87.1777 106.206 90.1517 109.654 93.2298 113.024C98.0632 113.42 103.053 113.565 108.032 113.482C102.855 108.894 98.3809 104.107 94.9902 99.0186C90.7975 99.8206 87.084 101.013 84.334 102.633Z" fill="#961818"/>
<path d="M79.7663 144.795C79.7559 146.31 79.7454 147.826 79.7454 149.336C99.6413 139.54 118.568 129.029 134.985 113.889C134.469 111.451 134.016 109.008 133.412 106.592C117.87 123.347 100.157 134.847 79.7663 144.795ZM75.4798 143.555C75.4434 142.717 75.8965 141.899 76.6934 141.514C97.0007 131.706 114.631 120.461 130.105 103.847C132.089 101.711 131.563 101.727 134.824 101.722C135.782 101.691 136.678 102.305 136.959 103.274C137.73 105.925 138.256 108.498 138.761 110.993C139.063 112.456 140.094 114.998 138.798 116.201C120.98 132.899 100.376 144.092 78.61 154.696C77.1986 155.461 75.4434 154.446 75.4434 152.8C75.4434 149.717 75.4694 146.628 75.4798 143.555Z" fill="#1C1D29"/>
<path fill-rule="evenodd" clip-rule="evenodd" d="M77.6257 143.451C77.6257 143.461 77.6257 143.482 77.6257 143.487C77.6152 146.883 77.584 149.404 77.584 152.789C99.36 142.18 119.495 131.341 137.334 114.622C136.574 111.206 135.969 107.56 134.891 103.852C134.261 103.852 133.62 103.852 132.99 103.862C115.954 122.648 97.1777 134.003 77.6257 143.451Z" fill="#D62727"/>
<path fill-rule="evenodd" clip-rule="evenodd" d="M136.402 110.154C136.224 109.289 136.037 108.414 135.839 107.529C135.527 106.326 135.198 105.107 134.86 103.862L133 103.873C130.323 106.826 127.599 109.618 124.844 112.263C128.865 111.727 132.756 111.019 136.402 110.154Z" fill="#961818"/>
<path fill-rule="evenodd" clip-rule="evenodd" d="M76.438 146.029C76.4224 148.774 76.3911 152.112 76.3755 154.857C97.0265 159.925 118.49 159.956 140.761 153.05C140.912 150.862 140.933 146.227 141.084 144.034C121.5 149.138 98.8026 150.925 76.438 146.029Z" fill="#1C1D29"/>
<path d="M163.704 19.5549C166.87 27.3205 168.886 42.1851 168.558 56.7164C168.287 68.508 166.615 80.3362 162.667 88.1226C160.204 92.9768 157.631 95.0237 152.662 97.6487C129.271 109.977 76.365 109.701 57.7504 95.8778C55.5473 94.2528 54.6463 93.1435 53.1983 90.7164C48.6619 83.081 46.3286 70.9508 45.6515 58.7112C44.839 43.8622 46.4692 28.5601 49.5265 20.8622C50.7765 17.7008 51.7921 16.7164 54.3286 14.6278C76.6358 -3.76799 133.12 -5.00758 157.219 12.0133C160.589 14.3935 162.151 15.7476 163.704 19.5549ZM163.261 56.6122C163.636 40.1539 161.115 23.6278 157.48 19.0653C137.547 -0.0596593 74.7921 0.945548 55.5004 20.7216C52.0161 25.4195 50.0421 41.9924 50.9536 58.4091C51.6775 71.508 54.2608 84.2789 59.4327 90.3883C75.8181 105.591 139.891 104.571 155.797 88.857C160.776 82.5653 162.959 69.7216 163.261 56.6122Z" fill="#1C1D29"/>
<path fill-rule="evenodd" clip-rule="evenodd" d="M159.464 17.2892C166.73 26.0705 170.027 75.4663 157.782 90.6226C140.995 107.477 74.8444 108.539 57.5215 92.2424C44.7975 77.4767 46.5111 27.9976 53.4798 18.9871C73.6882 -1.98681 138.6 -3.03369 159.464 17.2892Z" fill="#384357"/>
<path fill-rule="evenodd" clip-rule="evenodd" d="M107.855 103.863C87.0475 104.201 66.1882 100.394 57.5215 92.2428C44.7975 77.4772 46.5111 27.998 53.4798 18.9876C63.8027 8.26888 85.8079 2.75846 107.636 2.63867C92.084 4.5918 76.8913 9.27409 64.6829 16.196C58.7142 19.5814 57.0996 20.3835 55.2663 27.2845C50.334 45.8262 52.0267 65.8678 57.0267 81.7116C59.235 88.7272 59.8704 90.6908 66.3184 93.8314C78.0475 99.5658 92.0684 102.18 107.855 103.863Z" fill="#697791"/>
<path fill-rule="evenodd" clip-rule="evenodd" d="M159.464 17.2897C166.729 26.071 170.026 75.4668 157.782 90.623C154.49 93.9251 149.297 96.623 142.953 98.7012C161.917 74.3262 163.167 26.4668 130.089 4.5293C142.339 6.76367 153.006 11.0085 159.464 17.2897Z" fill="#263042"/>
<path d="M168.074 48.0762C165.272 62.5658 154.777 72.972 140.959 79.2637C120.99 88.3575 94.0684 88.8002 73.8184 80.3575C59.3913 74.3366 48.5944 63.9564 45.709 48.8731C45.4851 47.696 45.9903 46.4304 47.1674 46.2012C47.5424 46.1283 47.9174 46.1647 48.2663 46.2793C91.4851 57.3731 122.73 56.847 165.563 44.3522C168.298 43.5397 168.402 46.3731 168.074 48.0762ZM139.167 75.3158C151.006 69.92 160.167 61.295 163.298 49.5033C122.6 60.946 91.5892 61.446 50.5424 51.321C54.0476 62.9981 63.4799 71.3262 75.4799 76.3418C94.6413 84.3262 120.266 83.92 139.167 75.3158Z" fill="#1C1D29"/>
<path fill-rule="evenodd" clip-rule="evenodd" d="M166.162 46.4199C158.365 95.6751 56.9588 97.3105 47.5786 48.3262C91.589 59.6491 122.532 59.1491 166.162 46.4199Z" fill="#263042"/>
<path fill-rule="evenodd" clip-rule="evenodd" d="M149.636 71.8158C127.193 87.8053 87.8548 88.4356 64.9173 73.1803C60.7766 68.4251 57.787 59.6491 60.6308 51.4199C100.308 58.0866 111.631 59.7064 152.001 51.5085C154.126 57.8158 151.167 68.696 149.636 71.8158Z" fill="#FACF89"/>
<path fill-rule="evenodd" clip-rule="evenodd" d="M59.7038 61.1797C59.2872 58.0339 59.4955 54.6745 60.6257 51.4141C100.298 58.0807 111.621 59.6953 151.99 51.4974C152.959 54.3464 152.876 58.1328 152.36 61.7161C119.391 69.5391 88.4747 69.4557 59.7038 61.1797Z" fill="#F5986A"/>
<path d="M167.48 42.4144C167.834 44.7842 168.126 47.2842 168.344 49.8519C168.428 50.8675 167.725 51.779 166.709 52.0133C145.105 58.1331 124.318 61.18 104.376 61.081C84.3705 60.9769 65.2299 57.7008 46.9799 51.1852C44.2351 50.2008 46.1622 43.055 46.4539 41.0967C46.756 39.0915 50.0632 39.5081 51.3497 39.6748C89.6987 44.8935 125.792 44.7165 163.485 34.2321C167.048 33.2738 167.188 40.456 167.48 42.4144ZM162.454 38.8206C124.917 48.8831 88.7195 48.9769 50.4851 43.7373C50.308 45.1123 50.1674 46.4873 50.0528 47.8571C87.3028 60.7477 126.261 58.9092 163.871 48.4977C163.542 45.2633 163.089 42.0185 162.454 38.8206Z" fill="#1C1D29"/>
<path fill-rule="evenodd" clip-rule="evenodd" d="M164.105 36.2266C165.037 40.1745 165.751 44.9141 166.183 50.013C123.303 62.1797 83.7769 62.1224 47.7612 49.2578C47.9591 46.487 48.2456 43.8307 48.6258 41.3984C85.1154 46.5599 122.766 47.7266 164.105 36.2266Z" fill="#1C1D29"/>
<path fill-rule="evenodd" clip-rule="evenodd" d="M85.209 82.4609C89.9225 82.539 93.8236 77.8047 93.9173 71.9036C94.0111 65.9974 90.2715 61.1432 85.5527 61.0703C80.8392 60.9922 76.9382 65.7213 76.8444 71.6276C76.7402 77.5338 80.4902 82.388 85.209 82.4609Z" fill="#1C1D29"/>
<path fill-rule="evenodd" clip-rule="evenodd" d="M87.6099 79.0971C89.4172 79.1231 90.9016 77.321 90.938 75.0606C90.9745 72.8054 89.5474 70.9512 87.7453 70.9252C85.938 70.894 84.4536 72.7012 84.4172 74.9565C84.3807 77.2169 85.8078 79.0658 87.6099 79.0971Z" fill="white"/>
<path fill-rule="evenodd" clip-rule="evenodd" d="M126.761 82.4609C131.48 82.539 135.381 77.8047 135.474 71.9036C135.568 65.9974 131.829 61.1432 127.11 61.0703C122.391 60.9922 118.49 65.7213 118.396 71.6276C118.303 77.5338 122.042 82.388 126.761 82.4609Z" fill="#1C1D29"/>
<path fill-rule="evenodd" clip-rule="evenodd" d="M129.168 79.0971C130.97 79.1231 132.454 77.321 132.496 75.0606C132.532 72.8054 131.105 70.9512 129.298 70.9252C127.496 70.894 126.011 72.7012 125.97 74.9565C125.944 77.2169 127.371 79.0658 129.168 79.0971Z" fill="white"/>
<path d="M81.2716 128.492C81.6362 129.383 81.9487 130.294 82.1831 131.227L82.1883 131.237C82.4279 132.138 82.605 133.081 82.7143 134.055C83.2248 138.31 82.6154 140.914 80.9591 142.899C79.3706 144.805 77.1362 145.784 74.1206 147.013C72.631 147.628 70.5268 148.414 68.3498 148.706C65.7352 149.055 63.1154 148.68 61.256 146.581C59.9591 145.117 58.8654 143.576 57.9904 141.977C57.1102 140.357 56.4227 138.664 55.9279 136.899C55.2977 134.659 56.2091 132.461 58.1414 130.524C59.7873 128.878 62.2664 127.362 65.105 126.242C68.1675 125.029 71.7404 124.248 74.6727 124.44C77.7248 124.643 80.1883 125.841 81.2716 128.492ZM77.3498 132.44C77.1623 131.727 76.9279 131.018 76.6466 130.336C76.4123 129.753 75.5373 129.466 74.381 129.393C72.2196 129.253 69.4487 129.893 66.9956 130.862C64.7768 131.737 62.9071 132.852 61.7404 134.018C61.0633 134.695 60.6883 135.263 60.7768 135.591C61.1675 136.992 61.7143 138.347 62.4175 139.633C63.131 140.94 63.9956 142.175 65.0216 143.331C65.5216 143.893 66.5529 143.961 67.6831 143.8C69.2508 143.591 70.98 142.935 72.2091 142.425C74.5529 141.466 76.2716 140.732 77.0998 139.748C77.8498 138.836 78.0946 137.341 77.7664 134.612C77.6727 133.909 77.5373 133.185 77.3498 132.44Z" fill="#1C1D29"/>
<path fill-rule="evenodd" clip-rule="evenodd" d="M78.9589 129.415C79.6047 131.003 80.037 132.649 80.2454 134.342C81.0839 141.316 78.537 142.529 73.1672 144.732C70.4537 145.842 65.5006 147.628 63.1412 144.956C60.8131 142.321 59.2402 139.409 58.36 136.238C57.6047 133.587 61.1672 130.482 66.0579 128.545C71.0943 126.566 77.5006 125.831 78.9589 129.415Z" fill="#384357"/>
<path fill-rule="evenodd" clip-rule="evenodd" d="M76.3651 143.311C75.4433 143.779 74.3808 144.232 73.1672 144.722C70.4433 145.831 65.5006 147.618 63.1412 144.946C60.8131 142.316 59.2401 139.399 58.3599 136.232C57.7662 134.123 59.8808 131.738 63.2193 129.873C61.9381 131.639 59.912 133.373 60.1933 135.394C60.7193 139.212 63.0214 143.18 65.8183 144.446C68.3495 145.607 71.8912 144.253 76.3651 143.311Z" fill="#697791"/>
<path d="M72.2508 176.409H140.631C142.24 176.409 143.553 177.743 143.553 179.352V182.711C143.553 184.315 142.24 185.654 140.631 185.654H72.2508C70.6414 185.654 69.3237 184.31 69.3237 182.711V179.352C69.3237 177.743 70.6414 176.409 72.2508 176.409Z" fill="#1C1D29"/>
<path fill-rule="evenodd" clip-rule="evenodd" d="M72.2508 178.534H140.631C141.084 178.534 141.449 178.904 141.449 179.352V182.711C141.449 183.159 141.084 183.529 140.631 183.529H72.2508C71.7977 183.529 71.4331 183.159 71.4331 182.711V179.352C71.4331 178.904 71.7977 178.534 72.2508 178.534Z" fill="#697791"/>
<path fill-rule="evenodd" clip-rule="evenodd" d="M76.4696 178.534H136.423C136.871 178.534 137.24 178.904 137.24 179.352V182.711C137.24 183.159 136.871 183.529 136.423 183.529H76.4696C76.0164 183.529 75.6519 183.159 75.6519 182.711V179.352C75.6519 178.904 76.0164 178.534 76.4696 178.534Z" fill="#384357"/>
<path d="M64.0997 133.654H150.433C152.85 133.654 152.803 135.743 152.464 137.388L143.876 178.758C143.589 180.123 142.501 180.586 141.282 180.586H71.2247C70.0685 180.586 69.1101 179.722 68.9591 178.602L60.1987 136.409C59.9487 135.175 60.7351 133.961 61.9695 133.711C62.5789 133.586 63.5112 133.654 64.0997 133.654ZM65.2455 138.222L73.0841 176.003H139.798L147.631 138.222H65.2455Z" fill="#1C1D29"/>
<path fill-rule="evenodd" clip-rule="evenodd" d="M62.4487 135.94H150.433L141.647 178.3H71.2352L62.4487 135.94Z" fill="#697791"/>
<path fill-rule="evenodd" clip-rule="evenodd" d="M93.1675 135.94H105.136L122.756 178.3H110.777L93.1675 135.94Z" fill="#8696B3"/>
<path fill-rule="evenodd" clip-rule="evenodd" d="M82.7559 135.94H88.7507L106.36 178.3H100.376L82.7559 135.94Z" fill="#8696B3"/>
<path d="M143.063 128.987C141.496 130.982 139.006 135.57 140.037 137.914C140.819 139.701 148.433 146.102 150.657 144.685C153.194 143.076 155.303 140.966 156.881 138.419C158.178 136.315 145.49 125.904 143.063 128.987ZM139.126 125.935C140.902 123.685 143.6 123.216 146.569 123.857C151.652 124.956 158.23 129.675 160.777 134.263C162.115 136.664 162.376 139.034 161.157 141.008C159.162 144.221 156.553 146.815 153.365 148.846C151.006 150.352 148.386 149.997 145.959 148.935C142.662 147.487 136.865 143.102 135.444 139.867C133.527 135.513 136.298 129.513 139.126 125.935Z" fill="#1C1D29"/>
<path fill-rule="evenodd" clip-rule="evenodd" d="M141.094 127.456C140.032 128.8 139.167 130.268 138.501 131.836C135.761 138.31 137.886 140.19 142.438 143.779C144.745 145.607 149.006 148.68 152.011 146.768C154.969 144.883 157.282 142.518 159.011 139.716C160.459 137.378 157.896 133.409 153.73 130.201C149.438 126.893 143.49 124.43 141.094 127.456Z" fill="#384357"/>
<path fill-rule="evenodd" clip-rule="evenodd" d="M139.756 141.535C140.511 142.238 141.412 142.962 142.438 143.769C144.745 145.597 149.006 148.67 152.011 146.764C154.969 144.873 157.282 142.514 159.011 139.712C160.157 137.847 158.787 134.972 156.089 132.264C156.834 134.311 158.308 136.529 157.48 138.404C155.923 141.93 152.615 145.107 149.579 145.55C146.834 145.951 143.798 143.675 139.756 141.535Z" fill="#697791"/>
<path d="M152.782 160.894C149.615 162.915 149.719 169.425 150.115 172.472C150.751 177.404 154.501 181.769 159.86 179.388C164.902 177.144 168.579 169.529 165.912 164.498C163.646 160.253 156.954 158.232 152.782 160.894ZM170.042 161.862C171.605 164.805 172.074 168.305 171.219 171.753C169.995 176.711 166.297 182.071 161.558 184.175C153.157 187.92 146.422 181.336 145.376 173.305C145.126 171.362 145.225 165.409 145.865 162.831C146.532 160.112 148.157 157.925 150.433 156.467C156.896 152.336 166.49 155.17 170.042 161.862Z" fill="#1C1D29"/>
<path fill-rule="evenodd" clip-rule="evenodd" d="M160.657 157.592C153.798 155.899 148.308 159.305 147.954 164.956C147.803 167.363 147.511 170.967 147.756 172.883C148.449 178.264 151.506 181.602 155.167 182.409C158.589 183.17 162.548 181.743 165.647 177.743C166.824 176.232 167.844 174.425 168.615 172.196C170.761 165.972 167.433 159.269 160.657 157.592Z" fill="#263042"/>
<path fill-rule="evenodd" clip-rule="evenodd" d="M166.011 177.258C167.037 175.847 167.923 174.191 168.605 172.196C170.761 165.962 167.433 159.269 160.657 157.592C166.183 162.175 168.418 167.675 166.011 177.258Z" fill="#384357"/>
<path d="M51.7244 154.857C55.3911 153.956 59.3546 154.18 62.5994 156.258C64.8911 157.727 66.5265 159.935 67.2036 162.67C67.839 165.269 67.9431 171.274 67.6879 173.232C67.2869 176.342 66.2036 178.92 64.6723 180.878C61.4119 185.071 56.214 186.347 51.3754 184.185C49.2713 183.248 47.2348 181.659 45.4588 179.362C43.9744 177.446 42.8338 175.274 42.0369 172.977C41.8859 172.555 41.7661 172.112 41.6515 171.659C40.7973 168.18 41.2661 164.649 42.8338 161.685C44.3754 158.769 46.9796 156.42 50.4171 155.232C50.8338 155.092 51.2713 154.972 51.7244 154.857ZM51.9692 160.206C49.6879 160.998 47.9848 162.513 47.0056 164.362C45.2765 167.618 46.0473 170.888 47.6827 173.909C48.9067 176.154 50.7452 178.326 53.1046 179.383C55.9796 180.659 59.0369 179.972 60.9796 177.472C61.9484 176.222 62.6515 174.519 62.9275 172.404C63.3181 169.331 63.4223 162.763 60.2296 160.732C57.8963 159.232 54.5369 159.316 51.9692 160.206Z" fill="#1C1D29"/>
<path fill-rule="evenodd" clip-rule="evenodd" d="M52.2976 157.398C59.2143 155.695 64.7508 159.117 65.1049 164.826C65.256 167.253 65.5581 170.888 65.3029 172.815C64.5997 178.242 61.5268 181.602 57.8237 182.419C54.3758 183.18 50.381 181.742 47.2612 177.716C46.0789 176.185 45.0529 174.367 44.2716 172.122C42.1101 165.841 45.4643 159.081 52.2976 157.398Z" fill="#263042"/>
<path fill-rule="evenodd" clip-rule="evenodd" d="M46.9014 177.216C45.8702 175.799 44.9796 174.122 44.2817 172.122C42.1098 165.841 45.4639 159.091 52.2973 157.398C46.7244 162.013 44.4691 167.549 46.9014 177.216Z" fill="#384357"/>
<path d="M42.7507 130.618C43.3965 130.982 43.9642 131.508 44.3757 132.149C45.4278 133.784 46.3601 138.514 46.8549 140.357C47.2038 141.607 46.9903 142.738 46.4226 143.722C45.9069 144.644 45.0788 145.368 44.1674 145.889C40.6465 147.889 36.8601 148.972 32.808 149.008C31.7767 149.019 30.7142 148.821 29.7924 148.295C28.8028 147.732 28.0528 146.873 27.7038 145.613C27.1413 143.576 25.7246 139.717 25.6361 137.659C25.5996 136.764 25.8288 135.899 26.2507 135.149C27.4538 133.05 39.2715 128.644 42.7507 130.618Z" fill="#1C1D29"/>
<path fill-rule="evenodd" clip-rule="evenodd" d="M29.8025 135.508L39.8754 132.732C40.9639 132.43 42.0942 133.081 42.391 134.159L44.2921 141.066C44.5942 142.154 43.8389 143.029 42.865 143.581C39.7452 145.362 36.3858 146.331 32.7817 146.357C31.6514 146.368 30.5629 146.008 30.2608 144.93L28.365 138.024C28.0733 136.935 28.7192 135.805 29.8025 135.508Z" fill="#697791"/>
<path fill-rule="evenodd" clip-rule="evenodd" d="M35.0737 133.305L38.8341 132.269C39.9227 131.972 41.0477 132.617 41.3498 133.701L43.2508 140.602C43.5477 141.69 42.7977 142.565 41.8185 143.123C40.6727 143.769 39.4591 144.185 38.2508 144.617C37.4331 140.8 36.381 137.123 35.0737 133.305Z" fill="#384357"/>
<path d="M24.2869 133.529C16.4379 127.586 11.214 118.399 16.8806 109.055C21.1463 102.019 30.1411 99.5083 37.4119 103.357C47.1098 108.482 47.2609 119.04 43.615 128.191C42.714 130.446 41.9067 132.467 42.2609 134.133C42.8911 137.102 38.2609 138.748 36.2452 139.305C34.115 139.889 29.4431 140.743 28.4848 137.925C27.865 136.144 25.74 134.633 24.2869 133.529ZM32.7817 134.586C33.3702 134.54 34.0942 134.404 34.839 134.201C35.5786 133.993 36.2869 133.737 36.8598 133.435C36.6879 126.602 46.5734 114.217 34.9484 108.066C30.1671 105.54 24.2192 107.175 21.4171 111.8C14.5786 123.086 29.4796 128.649 32.7817 134.586Z" fill="#1C1D29"/>
<path fill-rule="evenodd" clip-rule="evenodd" d="M30.9956 137.087C28.9956 131.191 19.8863 130.561 17.5686 119.832C16.1311 113.191 20.1154 106.509 26.7404 104.681C33.3446 102.858 40.1675 106.535 42.3446 112.936C45.8498 123.233 38.3811 128.696 39.6571 134.686C37.8342 136.483 33.0998 137.681 30.9956 137.087Z" fill="#FAD920"/>
<path fill-rule="evenodd" clip-rule="evenodd" d="M24.287 130.174C21.5058 127.956 18.7141 125.117 17.5683 119.831C16.1308 113.19 20.1204 106.508 26.7454 104.68C17.6881 110.56 16.9902 121.102 24.287 130.174Z" fill="white"/>
<path fill-rule="evenodd" clip-rule="evenodd" d="M23.1465 110.586C21.0267 110.471 19.1726 112.836 19.0059 115.852C18.834 118.883 20.4226 121.43 22.5476 121.539C24.6726 121.654 26.5215 119.294 26.6882 116.274C26.8601 113.247 25.2715 110.701 23.1465 110.586Z" fill="white"/>
<path fill-rule="evenodd" clip-rule="evenodd" d="M23.7766 86.909L25.8443 96.7997C26.4485 99.6799 23.563 100.544 22.5839 97.7528L19.2401 88.159C18.0943 84.857 23.063 83.4976 23.7766 86.909Z" fill="#FAD920"/>
<path fill-rule="evenodd" clip-rule="evenodd" d="M9.12061 94.3102L15.3602 101.409C17.1831 103.477 15.2925 105.706 13.2144 103.899L6.09977 97.7165C3.64665 95.5811 6.95915 91.8467 9.12061 94.3102Z" fill="#FAD920"/>
<path fill-rule="evenodd" clip-rule="evenodd" d="M2.96411 109.264L11.4224 112.805C13.8808 113.842 13.1516 116.753 10.5735 116.087L1.72453 113.795C-1.32234 112.993 0.0318219 108.04 2.96411 109.264Z" fill="#FAD920"/>
<path fill-rule="evenodd" clip-rule="evenodd" d="M36.0683 86.8833L34.3391 96.1698C33.8339 98.8781 36.5943 99.8208 37.4589 97.2167L40.4016 88.2636C41.4172 85.1802 36.6724 83.6646 36.0683 86.8833Z" fill="#FAD920"/>
<path fill-rule="evenodd" clip-rule="evenodd" d="M49.0109 96.5762L43.5577 103.956C41.9692 106.113 44.0942 108.238 45.964 106.347L52.3911 99.8418C54.589 97.5814 50.8963 94.0189 49.0109 96.5762Z" fill="#FAD920"/>
</svg>
