<svg width="402" height="316" viewBox="0 0 402 316" fill="none" xmlns="http://www.w3.org/2000/svg">
<mask id="mask0_1312_1681" style="mask-type:luminance" maskUnits="userSpaceOnUse" x="15" y="133" width="371" height="183">
<path d="M15.896 133.766H385.667V315.766H15.896V133.766Z" fill="white"/>
</mask>
<g mask="url(#mask0_1312_1681)">
<path d="M360.995 315.766H40.7865C39.9844 315.766 39.1823 315.729 38.3854 315.651C37.5885 315.573 36.7969 315.453 36.0156 315.297C35.2292 315.141 34.4531 314.948 33.6875 314.714C32.9167 314.484 32.1667 314.214 31.4271 313.911C30.6875 313.604 29.9635 313.26 29.2552 312.885C28.5521 312.505 27.8646 312.099 27.1979 311.651C26.5313 311.208 25.8906 310.734 25.2708 310.224C24.651 309.719 24.0573 309.182 23.4948 308.615C22.9271 308.052 22.3906 307.458 21.8802 306.844C21.375 306.224 20.8958 305.583 20.4531 304.917C20.0052 304.25 19.5938 303.568 19.2188 302.865C18.8385 302.156 18.5 301.432 18.1927 300.698C17.8854 299.958 17.6146 299.203 17.3802 298.443C17.151 297.677 16.9583 296.901 16.8021 296.115C16.6458 295.333 16.526 294.542 16.4479 293.745C16.3698 292.953 16.3281 292.151 16.3281 291.354V158.182C16.3281 157.38 16.3698 156.583 16.4479 155.786C16.526 154.995 16.6458 154.203 16.8021 153.417C16.9583 152.635 17.151 151.859 17.3802 151.094C17.6146 150.328 17.8854 149.578 18.1927 148.839C18.5 148.099 18.8385 147.38 19.2188 146.672C19.5938 145.969 20.0052 145.281 20.4531 144.62C20.8958 143.953 21.375 143.313 21.8802 142.693C22.3906 142.073 22.9271 141.484 23.4948 140.917C24.0573 140.354 24.651 139.818 25.2708 139.307C25.8906 138.802 26.5313 138.328 27.1979 137.88C27.8646 137.438 28.5521 137.026 29.2552 136.651C29.9635 136.271 30.6875 135.932 31.4271 135.625C32.1667 135.318 32.9167 135.052 33.6875 134.818C34.4531 134.589 35.2292 134.391 36.0156 134.234C36.7969 134.078 37.5885 133.964 38.3854 133.885C39.1823 133.807 39.9844 133.766 40.7865 133.766H360.995C361.797 133.766 362.594 133.807 363.391 133.885C364.188 133.964 364.979 134.078 365.766 134.234C366.552 134.391 367.323 134.589 368.094 134.818C368.859 135.052 369.609 135.318 370.349 135.625C371.089 135.932 371.813 136.271 372.521 136.651C373.224 137.026 373.911 137.438 374.578 137.88C375.24 138.323 375.885 138.802 376.505 139.307C377.12 139.812 377.714 140.349 378.281 140.917C378.849 141.479 379.385 142.073 379.891 142.688C380.401 143.307 380.875 143.948 381.323 144.615C381.766 145.276 382.177 145.964 382.552 146.667C382.932 147.37 383.271 148.094 383.578 148.833C383.885 149.573 384.156 150.323 384.385 151.089C384.62 151.854 384.813 152.625 384.969 153.411C385.125 154.193 385.245 154.984 385.323 155.781C385.401 156.573 385.443 157.37 385.443 158.172V291.365C385.438 292.161 385.401 292.958 385.323 293.755C385.245 294.552 385.125 295.339 384.969 296.125C384.813 296.906 384.62 297.682 384.385 298.448C384.151 299.214 383.885 299.964 383.578 300.703C383.271 301.438 382.927 302.161 382.552 302.865C382.172 303.568 381.76 304.255 381.318 304.917C380.875 305.583 380.396 306.224 379.891 306.844C379.38 307.458 378.844 308.052 378.276 308.615C377.714 309.182 377.12 309.719 376.5 310.224C375.88 310.734 375.24 311.208 374.573 311.651C373.906 312.094 373.224 312.505 372.516 312.88C371.813 313.26 371.089 313.599 370.349 313.906C369.609 314.214 368.854 314.484 368.089 314.714C367.323 314.948 366.547 315.141 365.766 315.297C364.979 315.453 364.188 315.573 363.391 315.651C362.594 315.729 361.797 315.766 360.995 315.766Z" fill="#010101"/>
</g>
<path d="M382.328 158.182V291.354C382.328 292.052 382.297 292.744 382.229 293.442C382.156 294.135 382.057 294.823 381.922 295.51C381.781 296.192 381.615 296.869 381.412 297.536C381.209 298.203 380.974 298.859 380.709 299.505C380.438 300.146 380.141 300.776 379.813 301.396C379.479 302.01 379.125 302.604 378.735 303.187C378.344 303.765 377.932 304.328 377.49 304.864C377.042 305.406 376.573 305.922 376.084 306.411C375.589 306.906 375.068 307.375 374.531 307.817C373.99 308.26 373.427 308.677 372.849 309.062C372.266 309.448 371.667 309.807 371.052 310.135C370.438 310.463 369.807 310.765 369.162 311.031C368.516 311.297 367.86 311.531 367.188 311.734C366.521 311.937 365.844 312.104 365.156 312.244C364.474 312.38 363.781 312.479 363.089 312.552C362.391 312.619 361.693 312.651 360.995 312.651H40.797C40.0939 312.651 39.4012 312.619 38.7033 312.547C38.0106 312.479 37.3179 312.38 36.6356 312.244C35.9481 312.104 35.271 311.937 34.6043 311.734C33.9325 311.531 33.2762 311.297 32.6304 311.031C31.9845 310.765 31.3543 310.463 30.7397 310.135C30.12 309.807 29.521 309.448 28.9429 309.062C28.3595 308.677 27.8022 308.26 27.2606 307.817C26.7189 307.375 26.2033 306.906 25.7085 306.411C25.2137 305.922 24.745 305.406 24.3022 304.864C23.8595 304.328 23.4429 303.765 23.0575 303.187C22.6668 302.604 22.3075 302.01 21.9793 301.396C21.6512 300.776 21.3543 300.146 21.0835 299.505C20.8179 298.859 20.5835 298.203 20.3804 297.536C20.1772 296.869 20.0054 296.192 19.87 295.51C19.7345 294.823 19.6304 294.135 19.5627 293.442C19.495 292.744 19.4585 292.052 19.4585 291.354V158.182C19.4585 157.484 19.495 156.786 19.5627 156.093C19.6304 155.401 19.7345 154.708 19.87 154.026C20.0054 153.343 20.1772 152.666 20.3804 152C20.5835 151.333 20.8179 150.677 21.0835 150.031C21.3543 149.385 21.6512 148.755 21.9793 148.14C22.3075 147.526 22.6668 146.927 23.0575 146.349C23.4429 145.771 23.8595 145.208 24.3022 144.672C24.745 144.13 25.2137 143.614 25.7085 143.119C26.2033 142.63 26.7189 142.161 27.2606 141.718C27.8022 141.276 28.3595 140.859 28.9429 140.474C29.521 140.083 30.12 139.724 30.7397 139.396C31.3543 139.067 31.9845 138.771 32.6304 138.505C33.2762 138.239 33.9325 138 34.6043 137.802C35.271 137.599 35.9481 137.427 36.6356 137.291C37.3179 137.156 38.0106 137.052 38.7033 136.984C39.4012 136.916 40.0939 136.88 40.797 136.88H360.995C361.693 136.88 362.391 136.916 363.089 136.984C363.781 137.052 364.474 137.156 365.156 137.291C365.844 137.427 366.521 137.599 367.188 137.802C367.86 138 368.516 138.239 369.162 138.505C369.807 138.771 370.438 139.067 371.052 139.396C371.667 139.724 372.266 140.083 372.849 140.474C373.427 140.859 373.99 141.276 374.531 141.718C375.068 142.161 375.589 142.63 376.084 143.119C376.573 143.614 377.042 144.13 377.49 144.672C377.932 145.208 378.344 145.771 378.735 146.349C379.125 146.927 379.479 147.526 379.813 148.14C380.141 148.755 380.438 149.385 380.709 150.031C380.974 150.677 381.209 151.333 381.412 152C381.615 152.666 381.781 153.343 381.922 154.026C382.057 154.708 382.156 155.401 382.229 156.093C382.297 156.786 382.328 157.484 382.328 158.182Z" fill="#E44026"/>
<path d="M52.7521 227.291C52.7521 221.567 49.1375 215.838 41.2261 215.838C34.1323 215.838 29.0854 220.687 29.0854 227.13V250.989C29.0854 258.051 34.6844 262.281 41.2261 262.281C47.7365 262.281 52.9448 258.051 52.9448 250.989V246.562C52.9448 245.588 52.6219 245.359 51.8719 245.359H45.7834C45.0386 245.359 44.8094 245.65 44.8094 246.63V250.499C44.8094 252.551 43.6688 254.437 41.2938 254.437C39.049 254.437 37.7469 252.551 37.7469 250.499V227.489C37.7469 225.437 39.1792 223.645 41.2938 223.645C43.4396 223.645 44.6479 225.635 44.6479 227.551V230.583C44.6479 231.494 44.8719 231.885 45.6532 231.885H51.7104C52.5542 231.885 52.7521 231.458 52.7521 230.452V227.291Z" fill="#F3E4CA"/>
<path d="M76.1868 261.567C76.7702 261.567 77.0983 261.177 77.0983 260.396V254.828C77.0983 254.047 76.7702 253.724 76.1868 253.724H65.1816V217.791C65.1816 217.01 64.8587 216.521 64.1087 216.521H57.5983C56.8848 216.521 56.5254 217.01 56.5254 217.791V260.333C56.5254 261.114 56.8848 261.567 57.6296 261.567H76.1868Z" fill="#F3E4CA"/>
<path d="M103.753 227.13C103.753 220.036 98.0866 215.838 91.5449 215.838C85.0345 215.838 79.4355 220.067 79.4355 227.13V250.989C79.4355 257.89 85.0345 262.281 91.5449 262.281C98.0866 262.281 103.753 258.051 103.753 250.989V227.13ZM91.6126 223.645C93.7897 223.645 95.0918 225.536 95.0918 227.619V250.729C95.0918 252.781 93.7897 254.437 91.5449 254.437C89.3314 254.437 88.097 252.583 88.097 250.531V227.619C88.097 225.536 89.3991 223.645 91.6126 223.645Z" fill="#F3E4CA"/>
<path d="M123.05 250.5C123.05 252.552 121.784 254.437 119.602 254.437C117.389 254.437 116.118 252.552 116.118 250.5V217.791C116.118 217.104 115.925 216.521 115.144 216.521H108.274C107.821 216.521 107.43 217.104 107.43 217.791V250.989C107.43 257.239 113.06 262.281 119.571 262.281C126.081 262.281 131.743 257.239 131.743 250.989V217.823C131.743 217.172 131.415 216.521 130.701 216.521H124.092C123.409 216.521 123.05 217.14 123.05 217.823V250.5Z" fill="#F3E4CA"/>
<path d="M144.792 224.427H148.015C150.229 224.427 151.76 225.698 151.76 228.432V249.75C151.76 251.963 150.359 253.656 148.177 253.724H144.792V224.427ZM136.135 260.333C136.135 261.114 136.495 261.567 137.239 261.567H148.599C155.239 261.505 160.417 257.5 160.417 250.01V228.073C160.417 220.619 155.276 216.583 148.536 216.521H137.239C136.557 216.521 136.135 217.01 136.135 217.791V260.333Z" fill="#F3E4CA"/>
<path d="M193.514 229.572C193.514 230.484 193.644 230.807 194.462 230.807H200.285C201.326 230.807 201.556 230.484 201.556 229.572V227.718C201.556 220.525 196.738 215.838 190.004 215.838C185.446 215.838 178.446 219.057 178.446 227.52C178.446 234.973 181.504 237.124 188.311 242.656C192.311 245.911 194.004 247.374 194.004 250.531C194.004 252.911 192.342 254.406 190.295 254.406C188.634 254.406 186.582 253.364 186.582 250.109V248.645C186.582 247.671 186.389 247.312 185.478 247.312H179.55C178.639 247.312 178.446 247.765 178.446 248.874V250.598C178.446 256.718 182.384 262.281 190.228 262.281C197.42 262.281 202.238 257.077 202.238 250.989C202.238 242.755 197.389 239.208 191.3 234.489C188.405 232.239 186.488 230.843 186.488 227.749C186.488 224.786 188.373 223.645 190.004 223.645C192.342 223.645 193.514 225.505 193.514 227.749V229.572Z" fill="#F3E4CA"/>
<path d="M214.182 253.724V242.687H223.687C224.307 242.687 224.729 242.364 224.729 241.583V236.015C224.729 235.203 224.239 234.88 223.687 234.88H214.182V224.427H226.098C226.682 224.427 227.01 224.036 227.01 223.255V217.724C227.01 216.911 226.682 216.521 226.098 216.521H206.63C205.947 216.521 205.525 217.01 205.525 217.791V260.333C205.525 261.114 205.885 261.567 206.63 261.567H226.26C226.781 261.567 227.202 261.208 227.202 260.427V254.828C227.202 254.083 226.781 253.724 226.26 253.724H214.182Z" fill="#F3E4CA"/>
<path d="M253.242 227.291C253.242 221.567 249.627 215.838 241.716 215.838C234.622 215.838 229.575 220.687 229.575 227.13V250.989C229.575 258.051 235.174 262.281 241.716 262.281C248.226 262.281 253.435 258.051 253.435 250.989V246.562C253.435 245.588 253.112 245.359 252.362 245.359H246.273C245.528 245.359 245.299 245.65 245.299 246.63V250.499C245.299 252.551 244.159 254.437 241.784 254.437C239.539 254.437 238.237 252.551 238.237 250.499V227.489C238.237 225.437 239.669 223.645 241.784 223.645C243.929 223.645 245.138 225.635 245.138 227.551V230.583C245.138 231.494 245.362 231.885 246.143 231.885H252.2C253.044 231.885 253.242 231.458 253.242 230.452V227.291Z" fill="#F3E4CA"/>
<path d="M272.343 250.5C272.343 252.552 271.077 254.437 268.895 254.437C266.681 254.437 265.411 252.552 265.411 250.5V217.791C265.411 217.104 265.218 216.521 264.437 216.521H257.567C257.114 216.521 256.723 217.104 256.723 217.791V250.989C256.723 257.239 262.353 262.281 268.864 262.281C275.374 262.281 281.036 257.239 281.036 250.989V217.823C281.036 217.172 280.708 216.521 279.994 216.521H273.385C272.702 216.521 272.343 217.14 272.343 217.823V250.5Z" fill="#F3E4CA"/>
<path d="M301.084 233.672C301.084 235.885 299.715 237.349 297.111 237.349H294.084V224.427H297.34C299.584 224.427 301.084 225.927 301.084 228.271V233.672ZM308.308 261.536C309.189 261.536 309.48 260.755 309.48 260.166V254.307C309.48 247.802 308.048 243.698 305.121 241.224C307.756 239.468 309.772 236.797 309.772 232.927V228.271C309.772 221.791 304.73 216.521 298.022 216.521H286.532C285.85 216.521 285.428 217.01 285.428 217.791V260.364C285.428 261.114 285.751 261.567 286.501 261.567H293.012C293.73 261.567 294.084 261.114 294.084 260.364V244.057C298.543 244.349 300.824 246.984 300.824 253.265V260.073C300.824 261.047 301.574 261.536 302.319 261.536H308.308Z" fill="#F3E4CA"/>
<path d="M322.531 217.791C322.531 217.01 322.208 216.521 321.458 216.521H314.947C314.265 216.521 313.875 217.01 313.875 217.791V260.333C313.875 261.114 314.197 261.567 314.947 261.567H321.458C322.208 261.567 322.531 261.114 322.531 260.333V217.791Z" fill="#F3E4CA"/>
<path d="M346.616 224.427C347.173 224.427 347.564 224.036 347.564 223.255V217.692C347.564 216.911 347.173 216.521 346.616 216.521H325.819C325.267 216.521 324.876 216.942 324.876 217.724V223.255C324.876 224.036 325.267 224.427 325.819 224.427H331.871V260.427C331.871 261.177 332.262 261.567 332.819 261.567H339.621C340.142 261.567 340.564 261.177 340.564 260.427V224.427H346.616Z" fill="#F3E4CA"/>
<path d="M365.334 243.468C369.823 242.005 373.178 238.26 373.178 232.828V217.234C373.178 216.781 372.917 216.521 372.495 216.521H365.204C364.714 216.521 364.485 216.843 364.485 217.271V232.567C364.485 234.619 363.25 236.276 361 236.276C358.756 236.276 357.553 234.422 357.553 232.369V217.203C357.553 216.843 357.261 216.521 356.74 216.521H349.579C349.089 216.521 348.896 216.843 348.896 217.271L348.86 232.828C348.86 238.13 352.183 241.942 356.672 243.437V260.297C356.672 261.114 356.969 261.567 357.652 261.567H364.386C365.073 261.567 365.334 261.114 365.334 260.297V243.468Z" fill="#F3E4CA"/>
<mask id="mask1_1312_1681" style="mask-type:luminance" maskUnits="userSpaceOnUse" x="0" y="170" width="402" height="54">
<path d="M0.525879 170.854H401.526V223.854H0.525879V170.854Z" fill="white"/>
</mask>
<g mask="url(#mask1_1312_1681)">
<path d="M400.875 188.62L400.364 189.464L393.708 199.839C392.687 201.433 391.489 202.876 390.104 204.167C388.724 205.454 387.198 206.553 385.536 207.464C383.875 208.37 382.125 209.053 380.286 209.521C378.448 209.985 376.583 210.214 374.687 210.209H112.578V220.381C112.573 220.844 112.479 221.287 112.302 221.714C112.119 222.141 111.859 222.516 111.531 222.839C111.203 223.167 110.817 223.417 110.39 223.594C109.958 223.771 109.51 223.855 109.047 223.855H105.557C105.088 223.855 104.635 223.766 104.203 223.589C103.771 223.412 103.39 223.157 103.057 222.829C102.729 222.495 102.474 222.115 102.291 221.683C102.114 221.256 102.026 220.803 102.026 220.339V210.167H101.328C100.75 210.501 100.13 210.667 99.4632 210.667H19.8278C19.1611 210.667 18.5361 210.501 17.958 210.167H9.0778C8.56217 210.167 8.04655 210.12 7.54134 210.016C7.03613 209.917 6.54134 209.766 6.06217 209.574C5.58822 209.376 5.12988 209.136 4.7028 208.85C4.27051 208.563 3.87467 208.24 3.50488 207.876C3.1403 207.511 2.81217 207.115 2.52572 206.688C2.23405 206.261 1.98926 205.813 1.79134 205.339C1.58822 204.865 1.43717 204.376 1.33301 203.87C1.23405 203.365 1.17676 202.855 1.17676 202.339V192.334C1.17676 191.818 1.23405 191.308 1.33301 190.803C1.43717 190.298 1.58822 189.808 1.79134 189.334C1.98926 188.86 2.23405 188.412 2.52572 187.985C2.81217 187.558 3.1403 187.162 3.50488 186.798C3.87467 186.433 4.27051 186.11 4.7028 185.824C5.12988 185.537 5.58822 185.298 6.06217 185.1C6.54134 184.907 7.03613 184.756 7.54134 184.657C8.04655 184.553 8.56217 184.506 9.0778 184.506H17.7757C18.3226 184.173 18.9111 184.011 19.5518 184.006H99.7288C100.369 184.006 100.968 184.173 101.521 184.506H102.026V174.334C102.026 173.87 102.114 173.417 102.291 172.99C102.474 172.558 102.729 172.178 103.057 171.844C103.39 171.516 103.771 171.261 104.203 171.084C104.635 170.907 105.088 170.818 105.557 170.818H109.047C109.515 170.818 109.968 170.907 110.401 171.084C110.833 171.261 111.213 171.516 111.547 171.844C111.875 172.178 112.13 172.558 112.312 172.99C112.489 173.417 112.578 173.87 112.578 174.334V184.506H397.625C398.057 184.506 398.468 184.589 398.869 184.751C399.265 184.917 399.614 185.152 399.922 185.454C400.224 185.756 400.458 186.105 400.625 186.501C400.786 186.896 400.869 187.308 400.875 187.735V188.62Z" fill="#010101"/>
</g>
<path d="M19.146 187.552V207.161H9.07829C8.43766 207.161 7.82308 207.036 7.23454 206.797C6.646 206.552 6.12516 206.208 5.67204 205.76C5.21891 205.312 4.86475 204.797 4.61995 204.213C4.36995 203.625 4.24495 203.015 4.23975 202.38V192.416C4.23975 191.776 4.35954 191.161 4.60433 190.567C4.85433 189.979 5.20329 189.458 5.65641 189.005C6.10954 188.552 6.63037 188.203 7.22412 187.963C7.81787 187.718 8.43766 187.593 9.07829 187.593H19.146V187.552Z" fill="#010101"/>
<path d="M100.146 187.735V206.964C100.146 207.157 100.078 207.313 99.9429 207.448C99.8127 207.578 99.6512 207.646 99.4637 207.646H19.8283C19.6408 207.646 19.4793 207.578 19.3439 207.448C19.2085 207.313 19.146 207.157 19.146 206.964V187.735C19.146 187.547 19.2085 187.386 19.3439 187.256C19.4793 187.12 19.6408 187.058 19.8283 187.058H99.4637C99.6512 187.058 99.8127 187.12 99.9429 187.256C100.078 187.386 100.146 187.547 100.146 187.735Z" fill="#353532"/>
<path d="M109.515 174.375V220.339C109.515 220.469 109.474 220.578 109.38 220.667C109.286 220.76 109.177 220.807 109.047 220.807H105.557C105.427 220.807 105.318 220.76 105.224 220.667C105.13 220.578 105.088 220.469 105.088 220.339V174.375C105.088 174.245 105.13 174.135 105.224 174.042C105.318 173.953 105.427 173.906 105.557 173.906H109.047C109.177 173.906 109.286 173.953 109.38 174.042C109.474 174.135 109.515 174.245 109.515 174.375Z" fill="#010101"/>
<path d="M17.7345 197.354V204.375H5.646V197.354H17.7345Z" fill="#353532"/>
<path d="M17.7345 194.745V196.136H5.646V194.745H17.7345Z" fill="#353532"/>
<path d="M105.089 187.552V207.151H100.146V187.552H105.089Z" fill="#010101"/>
<path d="M109.516 207.161V187.552H397.625C397.698 187.552 397.755 187.583 397.792 187.651C397.823 187.713 397.823 187.776 397.781 187.838L391.172 198.198C390.292 199.573 389.25 200.817 388.057 201.932C386.859 203.041 385.542 203.989 384.104 204.776C382.672 205.557 381.156 206.151 379.573 206.552C377.984 206.958 376.375 207.161 374.74 207.161H109.516Z" fill="#353532"/>
<path d="M382.813 188.396L383.344 187.552H109.516V197.354H369.521C376.177 197.354 379.219 193.979 382.813 188.396Z" fill="#010101"/>
<path d="M103.667 197.354V204.375H101.552V197.354H103.667Z" fill="#353532"/>
<path d="M103.667 194.745V196.136H101.552V194.745H103.667Z" fill="#353532"/>
<path d="M108.354 202.188V215.141H106.24V202.188H108.354Z" fill="#353532"/>
<path d="M108.354 197.354V200.865H106.24V197.354H108.354Z" fill="#353532"/>
<path d="M97.6147 187.058V204.365H97.1616V187.058H97.6147Z" fill="#010101"/>
<path d="M95.0728 187.058V204.365H94.6196V187.058H95.0728Z" fill="#010101"/>
<path d="M92.5415 187.058V204.365H92.0884V187.058H92.5415Z" fill="#010101"/>
<path d="M89.9948 187.058V204.365H89.5469V187.058H89.9948Z" fill="#010101"/>
<path d="M87.4635 187.058V204.365H87.0156V187.058H87.4635Z" fill="#010101"/>
<path d="M84.9323 187.058V204.365H84.4844V187.058H84.9323Z" fill="#010101"/>
<path d="M82.3908 187.058V204.365H81.9429V187.058H82.3908Z" fill="#010101"/>
<path d="M79.8595 187.058V204.365H79.4116V187.058H79.8595Z" fill="#010101"/>
<path d="M77.3175 187.058V204.365H76.8696V187.058H77.3175Z" fill="#010101"/>
<path d="M74.7866 187.058V204.365H74.3335V187.058H74.7866Z" fill="#010101"/>
<path d="M72.2554 187.058V204.365H71.8022V187.058H72.2554Z" fill="#010101"/>
<path d="M69.7082 187.058V204.365H69.2603V187.058H69.7082Z" fill="#010101"/>
<path d="M67.1769 187.058V204.365H66.729V187.058H67.1769Z" fill="#010101"/>
<path d="M64.6354 187.058V204.365H64.1875V187.058H64.6354Z" fill="#010101"/>
<path d="M62.1144 187.058V204.365H61.6665V187.058H62.1144Z" fill="#010101"/>
<path d="M59.5729 187.058V204.365H59.125V187.058H59.5729Z" fill="#010101"/>
<path d="M57.0314 187.058V204.365H56.5835V187.058H57.0314Z" fill="#010101"/>
<path d="M54.5002 187.058V204.365H54.0522V187.058H54.5002Z" fill="#010101"/>
<path d="M51.9585 187.058V204.365H51.5054V187.058H51.9585Z" fill="#010101"/>
<path d="M49.4272 187.058V204.365H48.9741V187.058H49.4272Z" fill="#010101"/>
<path d="M46.8908 187.058V204.365H46.4429V187.058H46.8908Z" fill="#010101"/>
<path d="M44.3488 187.058V204.365H43.9009V187.058H44.3488Z" fill="#010101"/>
<path d="M41.8175 187.058V204.365H41.3696V187.058H41.8175Z" fill="#010101"/>
<path d="M39.276 187.058V204.365H38.8281V187.058H39.276Z" fill="#010101"/>
<path d="M36.7448 187.058V204.365H36.2969V187.058H36.7448Z" fill="#010101"/>
<path d="M34.2135 187.058V204.365H33.7656V187.058H34.2135Z" fill="#010101"/>
<path d="M31.672 187.058V204.365H31.2241V187.058H31.672Z" fill="#010101"/>
<path d="M29.1406 187.058V204.365H28.6875V187.058H29.1406Z" fill="#010101"/>
<path d="M26.5991 187.058V204.365H26.146V187.058H26.5991Z" fill="#010101"/>
<path d="M24.0627 187.058V204.365H23.6147V187.058H24.0627Z" fill="#010101"/>
<path d="M21.5314 187.058V204.365H21.0835V187.058H21.5314Z" fill="#010101"/>
<path d="M100.146 191.61V187.485C100.146 187.365 100.109 187.266 100.026 187.183C99.9427 187.099 99.8438 187.058 99.7292 187.058H19.5521C19.4323 187.058 19.3333 187.099 19.25 187.183C19.1667 187.266 19.125 187.365 19.125 187.485V191.61H100.146Z" fill="#010101"/>
<path d="M114.458 187.552V207.151H109.516V187.552H114.458Z" fill="#010101"/>
<path d="M147.068 276.07V290.576L138.11 276.07H129.151V280.763H133.844V297.826H138.11V283.32L147.068 297.826H151.334V280.763H156.026V276.07H147.068Z" fill="black"/>
<path d="M166.136 293.133V297.826H179.787V293.133H175.095V280.763H179.787V276.07H166.136V280.763H170.829V293.133H166.136Z" fill="black"/>
<path d="M207.814 276.07V290.576L198.856 276.07H189.897V280.763H194.59V297.826H198.856V283.32L207.814 297.826H212.08V280.763H216.772V276.07H207.814Z" fill="black"/>
<path d="M226.882 276.07V280.763H231.575V282.852C231.575 292.107 229.315 299.445 227.138 302.091H228.757C233.023 297.357 235.841 290.102 235.841 282.299V280.763H239.679V276.07H226.882Z" fill="black"/>
<path d="M258.494 298.253C257.509 296.888 256.488 293.602 256.233 289.294H263.869V297.826H268.134V280.763H272.827V276.07H249.791V280.763H253.285C252.436 282.68 251.921 284.727 251.921 286.992C251.921 291.383 253.884 295.482 256.869 298.253H258.494ZM257.723 280.763H263.869V284.602H256.358C256.572 283.237 256.999 282.039 257.723 280.763Z" fill="black"/>
<mask id="mask2_1312_1681" style="mask-type:luminance" maskUnits="userSpaceOnUse" x="112" y="140" width="18" height="26">
<path d="M112.042 140H129.667V165.333H112.042V140Z" fill="white"/>
</mask>
<g mask="url(#mask2_1312_1681)">
<path d="M117.911 141.042H125.854C127.234 141.042 128.339 142.37 128.339 144V161.578C128.339 163.208 127.234 164.536 125.854 164.536H117.281C116.859 164.536 116.469 164.417 116.109 164.198C114.766 163.531 113.677 161.953 112.995 159.776C112.401 157.891 112.047 155.427 112.047 152.792C112.047 150.156 112.401 147.687 112.995 145.802C113.729 143.49 114.885 141.844 116.365 141.266C116.536 141.177 116.724 141.13 116.911 141.094C117.115 141.062 117.318 141.026 117.521 141.026C117.656 141.01 117.776 141.026 117.911 141.042ZM123.37 146.943H117.776V146.927H117.724C117.708 147.042 117.792 147.333 117.641 147.828C117.25 149.068 117.01 150.802 117.01 152.755C117.01 154.729 117.25 156.443 117.641 157.687C117.813 158.214 117.693 158.5 117.724 158.604H123.37V146.943Z" fill="#1C1D29"/>
</g>
<path fill-rule="evenodd" clip-rule="evenodd" d="M117.792 143.984H125.875V161.562H117.281V161.526C115.75 161.156 114.547 157.365 114.547 152.755C114.547 148.13 115.75 144.359 117.281 143.984C117.453 143.948 117.625 143.948 117.792 143.984Z" fill="#384357"/>
<path d="M125.396 141.011C127.333 141.011 128.885 142.693 129.818 145.427C130.479 147.349 130.875 149.953 130.875 152.756C130.875 155.563 130.464 158.162 129.818 160.084C128.885 162.818 127.333 164.506 125.396 164.506C123.458 164.506 121.911 162.818 120.974 160.084L120.922 159.912C120.292 158.011 119.922 155.474 119.922 152.756C119.922 149.953 120.328 147.349 120.974 145.427C121.911 142.693 123.458 141.011 125.396 141.011ZM125.396 147.063C125.479 146.959 125.516 146.907 125.396 146.907C125.276 146.907 125.313 146.959 125.396 147.063ZM125.906 152.771C125.906 151.021 125.719 149.459 125.396 148.25C125.073 149.459 124.885 151.021 124.885 152.771C124.885 154.526 125.073 156.104 125.396 157.297C125.719 156.089 125.906 154.526 125.906 152.771ZM125.396 158.62C125.516 158.62 125.479 158.568 125.396 158.469C125.313 158.568 125.276 158.62 125.396 158.62Z" fill="#1C1D29"/>
<path fill-rule="evenodd" clip-rule="evenodd" d="M125.396 143.969C127.047 143.969 128.39 147.911 128.39 152.771C128.39 157.635 127.047 161.578 125.396 161.578C123.745 161.578 122.401 157.635 122.401 152.771C122.401 147.911 123.745 143.969 125.396 143.969Z" fill="#384357"/>
<path d="M129.14 131.386H261.479C263.234 131.386 264.797 132.203 265.885 133.511C266.854 134.667 267.453 136.214 267.453 137.896V167.631C267.453 169.313 266.854 170.875 265.885 172.016C264.781 173.323 263.234 174.141 261.479 174.141H127.708C124.495 174.141 121.927 171.287 120.344 166.662C119.12 163.042 118.354 158.131 118.354 152.756C118.354 147.386 119.12 142.469 120.344 138.849C121.911 134.224 124.495 131.37 127.708 131.37H129.14V131.386ZM261.156 137.662H127.724C127.505 137.662 126.979 138.886 126.312 140.875C125.292 143.865 124.667 148.063 124.667 152.771C124.667 157.485 125.292 161.683 126.312 164.672C126.995 166.662 127.521 167.886 127.724 167.886H261.156C261.177 167.818 261.193 167.75 261.193 167.646V137.917C261.177 137.813 261.177 137.729 261.156 137.662Z" fill="#1C1D29"/>
<path fill-rule="evenodd" clip-rule="evenodd" d="M129.141 134.531H261.479C263.047 134.531 264.323 136.047 264.323 137.896V167.63C264.323 169.484 263.047 170.995 261.479 170.995H129.141C128.662 170.995 128.203 170.995 127.724 170.995C124.292 170.995 121.521 162.839 121.521 152.755C121.521 142.677 124.292 134.516 127.724 134.516C128.203 134.531 128.662 134.531 129.141 134.531Z" fill="#EBA50E"/>
<path fill-rule="evenodd" clip-rule="evenodd" d="M264.323 158.433V166.188C264.323 168.037 263.047 169.552 261.479 169.552H130.229C129.75 169.552 129.292 169.552 128.813 169.552C126.245 169.552 124.037 164.964 123.099 158.417H264.323V158.433Z" fill="#C77914"/>
<path fill-rule="evenodd" clip-rule="evenodd" d="M129.141 134.531H261.479C263.047 134.531 264.323 136.047 264.323 137.896V139.99H123.302C124.427 136.625 125.99 134.531 127.724 134.531C128.203 134.531 128.662 134.531 129.141 134.531Z" fill="#F2E827"/>
<path d="M262.01 131.37C265 131.37 267.349 134.276 268.693 139.006C269.714 142.589 270.359 147.469 270.359 152.771C270.359 158.078 269.729 162.953 268.693 166.542C267.349 171.25 265 174.177 262.01 174.177C259.016 174.177 256.667 171.271 255.323 166.542C254.302 162.953 253.656 158.078 253.656 152.771C253.656 147.469 254.286 142.589 255.323 139.006C256.667 134.276 259 131.37 262.01 131.37ZM262.708 140.74C262.161 138.849 262.13 137.677 262.01 137.677C261.891 137.677 261.854 138.849 261.313 140.74C260.443 143.745 259.917 147.995 259.917 152.756C259.917 157.516 260.443 161.766 261.313 164.776C261.854 166.662 261.891 167.834 262.01 167.834C262.13 167.834 262.161 166.662 262.708 164.776C263.573 161.766 264.099 157.516 264.099 152.756C264.099 147.995 263.557 143.745 262.708 140.74Z" fill="#1C1D29"/>
<path fill-rule="evenodd" clip-rule="evenodd" d="M262.011 134.531C264.901 134.531 267.229 142.693 267.229 152.771C267.229 162.854 264.901 171.016 262.011 171.016C259.12 171.016 256.787 162.854 256.787 152.771C256.787 142.693 259.12 134.531 262.011 134.531Z" fill="#C77914"/>
<path fill-rule="evenodd" clip-rule="evenodd" d="M262.011 134.531C264.901 134.531 267.229 142.693 267.229 152.771C267.229 155.542 267.063 158.177 266.74 160.542C265.854 162.906 264.766 164.297 263.557 164.297C260.667 164.297 258.333 156.141 258.333 146.057C258.333 143.286 258.505 140.651 258.828 138.292C259.714 135.927 260.818 134.531 262.011 134.531Z" fill="#EBA50E"/>
<path d="M263.864 141.042H270.547C271.703 141.042 272.64 142.37 272.64 144V161.578C272.64 163.208 271.703 164.536 270.547 164.536H263.333C262.979 164.536 262.656 164.417 262.364 164.198C261.208 163.552 260.307 161.953 259.729 159.745C259.234 157.875 258.932 155.406 258.932 152.771C258.932 150.12 259.234 147.672 259.729 145.802C260.344 143.458 261.344 141.792 262.62 141.229C262.807 141.13 262.995 141.078 263.198 141.062C263.333 141.042 263.453 141.026 263.557 141.026C263.64 141.01 263.76 141.026 263.864 141.042ZM268.453 146.943H263.76V146.927H263.729C263.708 147.042 263.797 147.333 263.656 147.807C263.333 149.068 263.13 150.802 263.13 152.755C263.13 154.708 263.333 156.443 263.656 157.703C263.797 158.214 263.693 158.5 263.729 158.604H268.453V146.943Z" fill="#1C1D29"/>
<path fill-rule="evenodd" clip-rule="evenodd" d="M263.76 143.984H270.547V161.562H263.354V161.526C262.057 161.156 261.042 157.365 261.042 152.755C261.042 148.13 262.057 144.359 263.354 143.984C263.489 143.948 263.625 143.948 263.76 143.984Z" fill="#263042"/>
<path d="M270.156 141.011C271.786 141.011 273.099 142.709 273.88 145.448C274.427 147.365 274.781 149.969 274.781 152.771C274.781 155.578 274.443 158.162 273.88 160.099C273.099 162.839 271.786 164.537 270.156 164.537C268.521 164.537 267.214 162.839 266.432 160.099C265.885 158.162 265.531 155.578 265.531 152.771C265.531 149.969 265.87 147.386 266.432 145.448C267.214 142.709 268.521 141.011 270.156 141.011ZM270.156 147.063C270.224 146.974 270.26 146.927 270.156 146.927C270.052 146.907 270.089 146.959 270.156 147.063ZM270.583 152.771C270.583 151.037 270.427 149.474 270.156 148.287C269.885 149.474 269.729 151.037 269.729 152.771C269.729 154.506 269.885 156.073 270.156 157.261C270.427 156.052 270.583 154.506 270.583 152.771ZM270.156 158.62C270.26 158.62 270.224 158.568 270.156 158.485C270.089 158.568 270.052 158.62 270.156 158.62Z" fill="#1C1D29"/>
<path fill-rule="evenodd" clip-rule="evenodd" d="M270.156 143.969C271.552 143.969 272.672 147.911 272.672 152.771C272.672 157.635 271.552 161.578 270.156 161.578C268.76 161.578 267.641 157.635 267.641 152.771C267.641 147.911 268.76 143.969 270.156 143.969Z" fill="#384357"/>
<path d="M166.693 112.724C165.552 116.531 164.584 123.568 163.886 132.172C163.12 141.708 162.698 152.979 162.781 163.786V163.958C162.511 168.838 167.766 172.068 175.198 173.854C180.88 175.213 187.735 175.687 194.589 175.401C201.422 175.109 208.209 174.057 213.724 172.375C220.594 170.265 225.323 167.39 224.865 164.213C224.828 163.974 224.828 163.755 224.844 163.531C225.287 154.099 225.167 145.547 224.266 136.828C223.38 128.427 221.75 119.792 219.13 110C213.771 107.25 201.698 105.854 190.063 106.484C180.198 106.974 170.86 108.948 166.693 112.724ZM158.12 131.708C158.886 122.172 160.042 114.318 161.422 110.224C161.558 109.833 161.776 109.458 162.084 109.151C167.12 103.917 178.24 101.297 189.776 100.687C203.005 99.9738 217.125 101.896 222.974 105.515C223.656 105.87 224.198 106.5 224.422 107.318C227.276 117.854 229.063 127.104 230.016 136.213C230.953 145.193 231.068 153.979 230.63 163.651C231.36 170.114 224.912 174.958 215.422 177.864H215.406C209.417 179.698 202.141 180.838 194.823 181.146C187.511 181.453 180.094 180.922 173.886 179.448C163.735 177.015 156.573 171.963 157.047 163.672C156.948 152.604 157.354 141.229 158.12 131.708Z" fill="#1C1D29"/>
<path fill-rule="evenodd" clip-rule="evenodd" d="M164.156 111.157C161.521 118.959 159.734 142.167 159.906 163.808C158.63 185.719 230.135 180.532 227.719 163.808C228.64 144.526 227.276 128.907 221.614 108.099C211.937 101.808 173.937 101.011 164.156 111.157Z" fill="#384357"/>
<path fill-rule="evenodd" clip-rule="evenodd" d="M227.344 138.698C226.479 129.078 224.677 119.333 221.615 108.083C213.229 102.64 183.635 101.317 169.5 107.64C167.849 108.692 166.438 109.796 165.297 110.921C164.667 112.671 164.089 115.187 163.562 118.265C170.844 126.593 182.495 133.63 196.609 137.286C206.661 139.885 213.057 139.937 222.344 139.307C223.62 139.224 225.354 139.005 227.344 138.698Z" fill="#263042"/>
<path d="M177.75 107.365C175.964 107.724 173.87 108.182 171.932 108.677C171.422 108.813 170.912 108.948 170.432 109.083C173.427 112.74 176.505 116.276 179.688 119.677C183.193 123.448 186.849 127.089 190.589 130.641L196.287 126.354C192.802 123.531 189.521 120.625 186.511 117.599C183.193 114.318 180.229 110.901 177.75 107.365ZM170.688 104.172C173.24 103.511 176.083 102.932 178.172 102.542C179.11 102.302 180.146 102.677 180.724 103.526C183.224 107.281 186.287 110.87 189.776 114.354C193.276 117.854 197.255 121.271 201.542 124.641C201.698 124.755 201.849 124.912 201.969 125.078C202.75 126.12 202.563 127.578 201.542 128.344L191.917 135.589C191.031 136.25 189.755 136.182 188.922 135.401C184.583 131.339 180.386 127.172 176.354 122.854C172.287 118.485 168.412 113.995 164.771 109.391C164.651 109.24 164.552 109.083 164.485 108.896C163.938 107.724 164.448 106.349 165.604 105.818C166.844 105.245 168.698 104.682 170.688 104.172Z" fill="#1C1D29"/>
<path fill-rule="evenodd" clip-rule="evenodd" d="M178.771 104.802C175.198 105.463 169.245 106.739 166.542 107.942C173.802 117.14 181.849 125.677 190.453 133.698C193.667 131.286 196.864 128.869 200.078 126.458C191.443 119.677 183.937 112.552 178.771 104.802Z" fill="#961818"/>
<path d="M162.271 155.61L162.255 160.542C172.849 155.287 183.036 149.766 192.75 143.594C203.141 136.98 213.026 129.62 222.313 121.037L221.854 118.808C221.479 116.938 221.089 115.037 220.609 113.115C211.615 122.818 202.188 130.912 192.427 137.849C182.646 144.802 172.563 150.579 162.271 155.61ZM157.609 157.959L157.625 154.25C157.594 153.349 158.068 152.469 158.938 152.042C169.464 146.959 179.771 141.131 189.724 134.042C199.672 126.969 209.281 118.636 218.432 108.573C218.859 108.115 219.469 107.808 220.151 107.808H222.141C223.177 107.776 224.167 108.438 224.453 109.49C225.286 112.365 225.865 115.172 226.427 117.875C226.667 119.079 226.922 120.271 227.156 121.323C227.328 122.105 227.089 122.938 226.479 123.532C216.667 132.714 206.24 140.532 195.266 147.521C184.313 154.49 172.885 160.594 161.031 166.355C160.708 166.542 160.313 166.646 159.922 166.646C158.63 166.646 157.578 165.589 157.578 164.297L157.609 157.959Z" fill="#1C1D29"/>
<path fill-rule="evenodd" clip-rule="evenodd" d="M159.958 154.151C159.958 154.167 159.958 154.182 159.958 154.203C159.943 157.891 159.922 160.625 159.922 164.297C183.599 152.771 205.505 139.99 224.896 121.833C224.063 118.13 223.417 114.167 222.245 110.141C221.563 110.141 220.865 110.141 220.182 110.156C201.63 130.536 181.219 143.88 159.958 154.151Z" fill="#D62727"/>
<path fill-rule="evenodd" clip-rule="evenodd" d="M204.063 138.781C211.271 133.651 218.229 128.057 224.88 121.833C224.047 118.13 223.401 114.167 222.224 110.141C221.547 110.141 220.849 110.141 220.167 110.156C210.964 120.286 201.287 128.682 191.271 135.823C192.479 136.234 193.719 136.604 194.964 136.948C198.021 137.76 201.068 138.375 204.063 138.781Z" fill="#961818"/>
<path d="M142.61 145.104C140.396 142.13 141.115 135.86 143.172 129.146C145.568 121.255 149.771 112.297 152.901 107.927C153.547 107.011 154.651 106.62 155.688 106.808C157.474 107.146 158.834 107.386 160.214 107.604C161.589 107.844 162.969 108.063 164.839 108.422C166.334 108.693 167.323 110.12 167.068 111.599C166.797 113.235 166.453 115.037 166.078 116.938C165.365 120.646 164.568 124.808 164.229 128.058C165.912 128.058 167.797 128.073 169.823 128.141C172.443 128.224 175.281 128.396 178.224 128.651C178.87 125.709 179.672 123.532 180.573 121.985C182.12 119.318 184.078 118.214 186.255 118.229C186.662 118.229 187.037 118.313 187.375 118.469C190.302 119.792 192.276 124.912 193.073 130.625C193.531 133.834 193.667 137.302 193.448 140.313C193.209 143.61 192.511 146.516 191.255 148.287C190.281 149.63 189.042 150.427 187.459 150.511C180.844 151.073 170.198 151.448 160.656 150.479C153.781 149.782 147.422 148.354 143.36 145.771C143.068 145.615 142.813 145.38 142.61 145.104ZM148.479 130.761C147.016 135.589 146.198 139.771 146.88 141.453C150.177 143.302 155.417 144.391 161.198 144.99C170.198 145.907 180.349 145.547 186.781 145.005C187.375 144.104 187.735 142.235 187.901 139.938C188.089 137.287 187.969 134.245 187.563 131.407C187.12 128.261 186.474 125.505 185.724 124.25C185.625 124.401 185.505 124.573 185.37 124.808C184.552 126.219 183.823 128.568 183.209 132.136C182.99 133.599 181.646 134.636 180.146 134.479C176.37 134.058 172.797 133.834 169.636 133.735C166.386 133.63 163.547 133.63 161.318 133.667H161.287C159.755 133.667 158.511 132.443 158.495 130.896C158.459 127 159.62 121.037 160.589 115.938L161.063 113.417L159.261 113.115C158.344 112.959 157.443 112.808 156.422 112.62C153.75 116.922 150.485 124.198 148.479 130.761Z" fill="#1C1D29"/>
<path fill-rule="evenodd" clip-rule="evenodd" d="M144.854 143.459C141.198 138.511 149.839 116.974 155.161 109.526C158.734 110.209 160.74 110.464 164.313 111.157C163.427 116.563 161.25 125.881 161.286 130.875C165.844 130.792 172.865 130.86 180.469 131.709C181.797 123.839 183.87 121.016 186.234 121.037C191.286 123.313 192.818 147.693 187.24 147.776C176.182 148.693 153.75 149.12 144.854 143.459Z" fill="#384357"/>
<path fill-rule="evenodd" clip-rule="evenodd" d="M180.469 131.693C181.797 123.823 183.87 121 186.234 121.016C184.604 122.125 181.693 130.417 182.849 132.797C182.052 132.51 181.271 131.964 180.469 131.693Z" fill="#697791"/>
<path fill-rule="evenodd" clip-rule="evenodd" d="M144.854 143.459C141.198 138.511 149.839 116.974 155.161 109.526C155.911 109.662 156.932 109.886 157.578 110C151.422 119.964 145.109 135.604 146.484 141.063C150.74 145.532 164.875 146.651 177.474 148.266C166.047 148.542 151.573 147.74 144.854 143.459Z" fill="#697791"/>
<path fill-rule="evenodd" clip-rule="evenodd" d="M158.667 156.953C158.646 159.933 158.615 163.568 158.578 166.542C181.031 172.052 204.385 171.063 228.589 163.584C228.755 161.203 228.776 156.172 228.943 153.792C207.667 159.318 182.99 162.261 158.667 156.953Z" fill="#1C1D29"/>
<path d="M237.208 141.453C237.891 139.771 237.073 135.589 235.609 130.761C233.62 124.198 230.339 116.922 227.635 112.604C226.63 112.792 225.714 112.943 224.792 113.094L222.99 113.401L223.469 115.917C224.453 121.037 225.594 126.985 225.557 130.875C225.557 132.406 224.302 133.651 222.771 133.651H222.734C220.51 133.615 217.651 133.599 214.417 133.719C211.24 133.818 207.667 134.058 203.906 134.464C202.427 134.636 201.083 133.578 200.844 132.12C200.234 128.547 199.5 126.203 198.688 124.792C198.552 124.573 198.432 124.386 198.328 124.229C197.578 125.49 196.932 128.245 196.49 131.386C196.083 134.224 195.964 137.271 196.151 139.922C196.323 142.219 196.677 144.089 197.276 144.99C203.703 145.531 213.859 145.87 222.854 144.969C228.672 144.391 233.912 143.302 237.208 141.453ZM240.917 129.146C242.958 135.875 243.672 142.13 241.479 145.125C241.276 145.38 241.037 145.615 240.729 145.802C236.667 148.386 230.307 149.813 223.432 150.511C213.891 151.479 203.229 151.11 196.63 150.547C195.047 150.464 193.787 149.662 192.833 148.318C191.578 146.568 190.88 143.662 190.641 140.344C190.422 137.339 190.573 133.87 191.016 130.656C191.813 124.943 193.787 119.828 196.714 118.5C197.052 118.349 197.443 118.266 197.833 118.266C200.031 118.245 201.969 119.354 203.516 122.021C204.417 123.568 205.198 125.745 205.865 128.683C208.807 128.412 211.646 128.261 214.266 128.177C216.292 128.104 218.177 128.089 219.859 128.089C219.521 124.844 218.724 120.677 218.005 116.974C217.635 115.052 217.292 113.266 217.021 111.636C216.766 110.156 217.771 108.729 219.25 108.453C221.12 108.099 222.5 107.86 223.875 107.641C225.234 107.401 226.615 107.183 228.401 106.839C229.438 106.651 230.542 107.042 231.188 107.964C234.318 112.297 238.521 121.255 240.917 129.146Z" fill="#1C1D29"/>
<path fill-rule="evenodd" clip-rule="evenodd" d="M239.25 143.459C242.906 138.511 234.265 116.974 228.943 109.526C225.37 110.209 223.364 110.464 219.792 111.157C220.677 116.563 222.854 125.881 222.823 130.875C218.26 130.792 211.239 130.86 203.635 131.709C202.307 123.839 200.234 121.016 197.87 121.037C192.818 123.313 191.286 147.693 196.864 147.776C207.906 148.693 230.338 149.12 239.25 143.459Z" fill="#384357"/>
<path fill-rule="evenodd" clip-rule="evenodd" d="M203.62 131.693C202.292 123.823 200.219 121 197.854 121.016C199.484 122.125 202.396 130.417 201.239 132.797C202.036 132.51 202.818 131.964 203.62 131.693Z" fill="#697791"/>
<path fill-rule="evenodd" clip-rule="evenodd" d="M239.25 143.459C242.906 138.511 234.266 116.974 228.943 109.526C228.198 109.662 227.177 109.886 226.531 110C232.688 119.964 238.995 135.604 237.62 141.063C233.365 145.532 219.235 146.651 206.63 148.266C218.042 148.542 232.516 147.74 239.25 143.459Z" fill="#697791"/>
<path fill-rule="evenodd" clip-rule="evenodd" d="M277.453 70.1403C264.953 70.682 259.338 58.6611 256.771 41.083C254.489 42.7861 251.057 47.5986 251.838 52.2549C253.625 62.7757 262.385 79.6768 271.5 80.6768C272.453 76.9893 274.239 74.5413 277.453 70.1403Z" fill="#1C1D29"/>
<mask id="mask3_1312_1681" style="mask-type:luminance" maskUnits="userSpaceOnUse" x="245" y="40" width="46" height="26">
<path d="M245.667 40H290.042V65.3333H245.667V40Z" fill="white"/>
</mask>
<g mask="url(#mask3_1312_1681)">
<path fill-rule="evenodd" clip-rule="evenodd" d="M290.036 49.313C277.843 51.438 270.698 36.0213 252.177 41.9536C247.651 43.3963 245.802 49.1255 246.192 53.3598C267.317 38.8598 270.156 63.5265 286.448 64.188C286.161 59.4796 287.369 54.0734 290.036 49.313Z" fill="#1C1D29"/>
</g>
<path d="M251.224 17.4901C255.99 23.2557 259.339 42.9744 258.896 62.1463C258.537 77.5838 255.781 92.9171 249.422 100.787C249.323 100.907 249.219 101.011 249.115 101.11C239.386 110.75 216.12 115.865 192.922 116.24C169.651 116.615 146.146 112.23 136.162 102.844C136.042 102.745 135.958 102.625 135.854 102.521C129.307 94.8234 126.078 79.6567 125.224 64.3234C124.172 45.1671 126.875 25.3442 131.453 19.4484C131.521 19.3599 131.589 19.2765 131.656 19.2088L131.823 19.0369C143.427 7.18798 167.24 0.969231 191.031 0.578607C214.86 0.182774 238.912 5.65673 250.87 17.1671L250.969 17.2713C251.073 17.3234 251.156 17.4067 251.224 17.4901ZM253.13 62.0317C253.537 44.1619 250.802 26.214 246.839 21.2453C236.005 10.8599 213.583 5.9484 191.151 6.30257C168.698 6.66194 146.438 12.3078 135.958 23.0474C132.167 28.1672 130.021 46.1515 131.011 63.9849C131.792 78.214 134.615 92.0838 140.229 98.714C149.141 106.974 170.943 110.818 192.833 110.464C214.708 110.105 236.375 105.568 245.016 97.0317C250.427 90.2296 252.807 76.2765 253.13 62.0317Z" fill="#1C1D29"/>
<path fill-rule="evenodd" clip-rule="evenodd" d="M248.995 19.3286C256.891 28.865 260.479 82.5161 247.162 98.9848C228.912 117.276 156.964 118.433 138.135 100.74C124.292 84.7088 126.162 30.9692 133.745 21.1775C155.724 -1.59851 226.307 -2.73913 248.995 19.3286Z" fill="#384357"/>
<path fill-rule="evenodd" clip-rule="evenodd" d="M192.87 113.37C170.25 113.724 147.557 109.594 138.135 100.74C124.291 84.7087 126.161 30.9691 133.75 21.1774C144.974 9.53679 168.906 3.55241 192.646 3.41699C175.724 5.54199 159.208 10.6253 145.942 18.1514C139.442 21.8232 137.692 22.693 135.703 30.1878C130.344 50.3337 132.182 72.0941 137.609 89.2972C140.005 96.9118 140.703 99.0524 147.713 102.469C160.469 108.693 175.708 111.532 192.87 113.37Z" fill="#697791"/>
<path fill-rule="evenodd" clip-rule="evenodd" d="M248.995 19.3278C256.891 28.8643 260.479 82.5153 247.162 98.9841C243.589 102.573 237.943 105.494 231.037 107.76C251.651 81.2913 253.011 29.307 217.037 5.47363C230.391 7.90072 241.99 12.5101 248.995 19.3278Z" fill="#263042"/>
<path d="M257.86 46.4586C255.271 62.745 243.761 74.4065 228.469 81.3596C217.735 86.2346 205.115 88.8023 192.495 89.0055C179.86 89.2138 167.167 87.0523 156.302 82.5315C140.787 76.0732 128.901 64.7815 125.787 48.5836C125.547 47.3232 126.38 46.0992 127.641 45.844C128.052 45.7607 128.459 45.7971 128.813 45.9325C152.203 51.9325 172.104 54.8023 191.933 54.4794C211.802 54.1565 231.651 50.6409 254.901 43.8544C256.141 43.5003 257.433 44.2138 257.792 45.4534C257.891 45.7971 257.912 46.1357 257.86 46.4586ZM226.531 77.1253C239.271 71.3284 249.115 62.0628 252.469 49.4013C230.406 55.6044 211.24 58.8336 192 59.1409C172.766 59.4482 153.511 56.8284 131.266 51.3544C135.042 63.9013 145.177 72.8388 158.089 78.2138C168.375 82.4951 180.417 84.5367 192.427 84.3492C204.417 84.1617 216.375 81.7346 226.531 77.1253Z" fill="#1C1D29"/>
<path fill-rule="evenodd" clip-rule="evenodd" d="M255.547 46.0986C247.162 98.9841 138.151 100.739 128.068 48.1559C175.386 60.3122 208.651 59.7705 255.547 46.0986Z" fill="#263042"/>
<path fill-rule="evenodd" clip-rule="evenodd" d="M237.786 73.3698C213.672 90.5365 171.37 91.2187 146.708 74.8281C142.25 69.7292 139.036 60.2969 142.099 51.4531C184.755 58.6146 196.917 60.3437 240.323 51.5417C242.62 58.3385 239.437 70.0208 237.786 73.3698Z" fill="#FACF89"/>
<path fill-rule="evenodd" clip-rule="evenodd" d="M140.943 57.2184C141.063 55.3122 141.438 53.3747 142.099 51.4736C184.755 58.6299 196.917 60.3643 240.323 51.557C240.901 53.2913 241.141 55.3486 241.12 57.4893C206.031 68.5205 172.563 68.5205 140.943 57.2184Z" fill="#F5986A"/>
<path d="M255.615 31.5002C256.141 33.8127 256.583 36.3284 256.974 38.9794C257.365 41.6461 257.672 44.469 257.911 47.3752C257.995 48.5315 257.245 49.5523 256.156 49.8231C232.943 56.7242 210.594 60.1617 189.146 60.0575C167.646 59.9377 147.063 56.2502 127.453 48.9065C126.469 48.5315 125.875 47.5627 125.943 46.5575C126.042 45.0106 126.177 43.4481 126.349 41.9013C126.521 40.3388 126.688 38.8752 126.891 37.5159C127.078 36.2398 128.255 35.3596 129.531 35.5263H129.547C149.057 38.4169 168.87 40.2034 189.266 39.6409C209.656 39.0784 230.698 36.1877 252.703 29.7659C253.948 29.4065 255.24 30.12 255.599 31.3648L255.615 31.5002ZM252.349 39.6409C252.109 37.9898 251.854 36.4273 251.568 34.9325C230.016 40.9846 209.385 43.7398 189.38 44.2971C169.448 44.844 150.161 43.2086 131.198 40.4898C131.13 41.12 131.042 41.7502 130.974 42.3804C130.891 43.2606 130.807 44.1825 130.719 45.1304C149.328 51.8804 168.818 55.2815 189.161 55.3804C209.589 55.4846 230.901 52.2867 253.078 45.844C252.875 43.7034 252.635 41.6148 252.349 39.6409Z" fill="#1C1D29"/>
<path fill-rule="evenodd" clip-rule="evenodd" d="M253.333 32.0107C254.339 36.4639 255.104 41.818 255.563 47.5628C209.469 61.2816 166.964 61.2295 128.255 46.7139C128.474 43.5837 128.781 40.5941 129.172 37.8389C168.412 43.6722 208.891 44.9795 253.333 32.0107Z" fill="#1C1D29"/>
<path d="M158.24 68.8955C161.047 70.9372 165.604 72.109 170.297 72.2965C174.906 72.484 179.552 71.7028 182.63 69.8486L184.313 72.6715C180.672 74.8486 175.37 75.7809 170.162 75.5778C164.891 75.3747 159.651 73.9788 156.302 71.5465L158.24 68.8955Z" fill="#191A21"/>
<path d="M225.729 71.5465C222.38 73.9788 217.141 75.3747 211.87 75.5778C206.661 75.7809 201.354 74.8486 197.719 72.6715L199.401 69.8486C202.479 71.7028 207.12 72.4684 211.729 72.2965C216.411 72.109 220.984 70.9528 223.792 68.8955L225.729 71.5465Z" fill="#191A21"/>
<mask id="mask4_1312_1681" style="mask-type:luminance" maskUnits="userSpaceOnUse" x="141" y="161" width="58" height="37">
<path d="M141.667 161.333H199V197.26H141.667V161.333Z" fill="white"/>
</mask>
<g mask="url(#mask4_1312_1681)">
<path d="M185.536 195.286C182.494 196.036 178.786 196.494 174.395 196.786C170.198 197.057 165.198 197.176 159.411 197.228C159.312 197.228 159.208 197.228 159.109 197.208C150.229 196.327 145.177 190.51 143.375 183.916C142.661 181.317 142.474 178.577 142.781 175.978C143.083 173.343 143.901 170.827 145.192 168.682C147.916 164.213 152.578 161.494 158.869 162.817C162.031 163.484 165.823 164.452 169.703 165.452C175.182 166.864 180.843 168.312 185.453 169.025C190.265 169.755 194.026 172.218 196.218 175.38C197.51 177.234 198.276 179.359 198.411 181.52C198.552 183.713 198.041 185.958 196.797 188.015C194.875 191.192 191.234 193.895 185.536 195.286ZM174.026 191.02C178.088 190.765 181.458 190.343 184.145 189.676C188.192 188.676 190.64 186.973 191.812 185.036C192.427 184.036 192.666 182.947 192.599 181.874C192.531 180.77 192.119 179.666 191.422 178.661C190.078 176.723 187.698 175.213 184.552 174.734C179.859 174.02 173.953 172.494 168.239 171.031C164.531 170.077 160.911 169.145 157.645 168.463C154.14 167.734 151.573 169.213 150.078 171.661C149.224 173.051 148.682 174.77 148.479 176.624C148.255 178.51 148.39 180.499 148.916 182.4C150.145 186.874 153.562 190.833 159.515 191.463C165.026 191.411 169.823 191.291 174.026 191.02Z" fill="#1C1D29"/>
</g>
<path fill-rule="evenodd" clip-rule="evenodd" d="M184.838 192.485C179.109 193.896 170.708 194.235 159.38 194.339C139.937 192.401 142.219 162.276 158.255 165.641C166.198 167.308 177.187 170.693 184.995 171.88C197.172 173.75 200.844 188.558 184.838 192.485Z" fill="#384357"/>
<path fill-rule="evenodd" clip-rule="evenodd" d="M159.38 194.354C139.937 192.417 142.219 162.292 158.255 165.656C160.041 166.031 161.979 166.49 164.005 167C156.677 166.084 153.344 167.021 150.875 169.823C145.328 176.146 147.932 190.938 159.38 194.354Z" fill="#697791"/>
<path fill-rule="evenodd" clip-rule="evenodd" d="M184.839 192.485C182.563 193.047 179.839 193.438 176.693 193.709C186.458 189.849 188.735 175.943 178.38 170.573C180.724 171.115 182.969 171.573 185.011 171.881C197.172 173.75 200.844 188.558 184.839 192.485Z" fill="#263042"/>
<mask id="mask5_1312_1681" style="mask-type:luminance" maskUnits="userSpaceOnUse" x="188" y="161" width="58" height="37">
<path d="M188.333 161.333H245.667V197.26H188.333V161.333Z" fill="white"/>
</mask>
<g mask="url(#mask5_1312_1681)">
<path d="M203.703 189.697C206.391 190.359 209.76 190.765 213.823 191.036C218.026 191.312 222.839 191.432 228.312 191.478C234.286 190.833 237.687 186.89 238.911 182.421C239.422 180.515 239.573 178.525 239.354 176.64C239.13 174.786 238.604 173.072 237.755 171.676C236.26 169.228 233.687 167.749 230.187 168.478C226.922 169.161 223.297 170.093 219.589 171.046C213.875 172.51 207.974 174.041 203.276 174.754C200.13 175.228 197.75 176.76 196.406 178.682C195.708 179.682 195.302 180.786 195.234 181.895C195.167 182.963 195.422 184.051 196.016 185.057C197.208 186.973 199.672 188.692 203.703 189.697ZM213.469 196.786C209.078 196.494 205.37 196.036 202.328 195.286C196.63 193.879 192.99 191.176 191.083 188.031C189.823 185.958 189.312 183.728 189.469 181.536C189.604 179.359 190.37 177.249 191.661 175.4C193.854 172.254 197.615 169.791 202.427 169.041C207.036 168.327 212.703 166.879 218.177 165.473C222.057 164.468 225.849 163.499 229.01 162.838C235.307 161.51 239.964 164.228 242.687 168.702C243.979 170.827 244.797 173.359 245.104 175.994C245.406 178.593 245.219 181.333 244.505 183.932C242.703 190.546 237.635 196.359 228.776 197.244C228.672 197.244 228.568 197.26 228.469 197.26C222.687 197.176 217.682 197.057 213.469 196.786Z" fill="#1C1D29"/>
</g>
<path fill-rule="evenodd" clip-rule="evenodd" d="M203.021 192.485C208.755 193.896 217.156 194.235 228.484 194.339C247.927 192.401 245.646 162.276 229.609 165.641C221.667 167.308 210.677 170.693 202.87 171.88C190.693 173.75 187.016 188.558 203.021 192.485Z" fill="#384357"/>
<path fill-rule="evenodd" clip-rule="evenodd" d="M228.484 194.354C247.927 192.417 245.646 162.292 229.609 165.656C227.823 166.031 225.88 166.49 223.859 167C231.188 166.084 234.521 167.021 236.99 169.823C242.536 176.146 239.932 190.938 228.484 194.354Z" fill="#697791"/>
<path fill-rule="evenodd" clip-rule="evenodd" d="M203.021 192.485C205.302 193.047 208.026 193.438 211.172 193.709C201.406 189.849 199.13 175.943 209.485 170.573C207.141 171.115 204.896 171.573 202.854 171.881C190.693 173.75 187.016 188.558 203.021 192.485Z" fill="#263042"/>
<path d="M165.349 130.625C164.787 130.657 164.245 130.709 163.802 130.761C163.698 130.776 163.599 130.792 163.495 130.792C162.323 130.844 161.318 129.974 161.266 128.839C161.063 125.079 160.724 121.901 160.177 119.318C159.667 116.886 159.005 115 158.089 113.657C157.766 113.183 157.646 112.568 157.813 111.974C158.136 110.886 159.313 110.24 160.433 110.547L168.412 112.724C169.162 112.928 169.771 113.537 169.927 114.339C170.266 116.12 170.417 119.063 170.229 122.037C170.078 124.433 169.703 126.917 169.021 128.974C168.802 129.724 168.156 130.318 167.308 130.438C166.573 130.537 165.964 130.573 165.349 130.625ZM165.365 126.422C165.709 125.011 165.912 123.396 166.011 121.782C166.13 119.761 166.099 117.787 165.943 116.308L163.63 115.683C163.901 116.547 164.141 117.5 164.344 118.5C164.808 120.797 165.146 123.433 165.365 126.422Z" fill="#1C1D29"/>
<path fill-rule="evenodd" clip-rule="evenodd" d="M163.375 128.75C164.568 128.567 165.792 128.583 167 128.396C168.427 124.229 168.411 117.666 167.849 114.713L159.875 112.536C161.979 115.661 162.953 121.052 163.375 128.75Z" fill="#EBA50E"/>
<path fill-rule="evenodd" clip-rule="evenodd" d="M168.208 119.37C168.208 117.516 168.073 115.833 167.849 114.693L159.875 112.516C160.844 113.964 161.589 115.885 162.135 118.313C164.089 118.708 166.115 119.062 168.208 119.37Z" fill="#C77914"/>
<path d="M220.099 130.761C219.656 130.693 219.115 130.656 218.552 130.625C217.938 130.573 217.328 130.537 216.578 130.417C215.729 130.302 215.083 129.703 214.859 128.958C214.182 126.917 213.792 124.333 213.636 121.833C213.448 118.724 213.604 115.63 213.943 113.844C214.094 113.047 214.708 112.432 215.458 112.229L223.417 110.037C224.537 109.729 225.729 110.375 226.037 111.464C226.208 112.057 226.089 112.672 225.766 113.146C224.865 114.474 224.198 116.479 223.703 119.047C223.177 121.781 222.839 125.078 222.636 128.839C222.583 129.974 221.578 130.844 220.406 130.792C220.302 130.792 220.203 130.792 220.099 130.761ZM217.891 121.594C217.99 123.281 218.193 124.964 218.537 126.406C218.755 123.38 219.078 120.646 219.537 118.297C219.761 117.193 220 116.156 220.287 115.188L217.938 115.833C217.802 117.365 217.75 119.453 217.891 121.594Z" fill="#1C1D29"/>
<path fill-rule="evenodd" clip-rule="evenodd" d="M220.526 128.75C219.333 128.568 218.109 128.584 216.901 128.396C215.474 124.229 215.474 117.193 216.036 114.219L223.995 112.026C221.885 115.151 220.948 121.052 220.526 128.75Z" fill="#EBA50E"/>
<path fill-rule="evenodd" clip-rule="evenodd" d="M215.693 118.912C215.693 117.021 215.828 115.339 216.052 114.219L224.011 112.026C223.078 113.417 222.36 115.339 221.833 117.735C219.828 118.162 217.787 118.552 215.693 118.912Z" fill="#C77914"/>
<path fill-rule="evenodd" clip-rule="evenodd" d="M154.599 12.7815C158.886 10.469 164.073 10.094 166.182 11.9637C168.292 13.8335 166.505 17.219 162.219 19.5315C157.932 21.844 152.745 22.219 150.636 20.344C148.526 18.4742 150.313 15.094 154.599 12.7815Z" fill="#697791"/>
<path fill-rule="evenodd" clip-rule="evenodd" d="M166.984 21.2444C169.516 19.8851 172.578 19.6663 173.818 20.7705C175.062 21.8746 174.005 23.8642 171.474 25.2236C168.937 26.583 165.875 26.8069 164.635 25.7028C163.411 24.6142 164.448 22.609 166.984 21.2444Z" fill="#697791"/>
</svg>
