<svg width="402" height="137" viewBox="0 0 402 137" fill="none" xmlns="http://www.w3.org/2000/svg">
<mask id="mask0_1304_686" style="mask-type:luminance" maskUnits="userSpaceOnUse" x="15" y="0" width="371" height="35">
<path d="M15.896 0.520508H385.667V34.5205H15.896V0.520508Z" fill="white"/>
</mask>
<g mask="url(#mask0_1304_686)">
<path d="M360.995 182.521H40.7813C39.9844 182.521 39.1823 182.484 38.3854 182.406C37.5885 182.328 36.7969 182.208 36.0104 182.052C35.2292 181.896 34.4531 181.703 33.6823 181.474C32.9167 181.239 32.1667 180.968 31.4271 180.666C30.6823 180.359 29.9635 180.015 29.2552 179.64C28.5469 179.265 27.8646 178.854 27.1979 178.406C26.5313 177.963 25.8906 177.489 25.2708 176.979C24.651 176.474 24.0573 175.937 23.4896 175.375C22.9271 174.807 22.3854 174.213 21.8802 173.599C21.3698 172.979 20.8958 172.338 20.4479 171.672C20.0052 171.01 19.5937 170.323 19.2135 169.619C18.8385 168.911 18.4948 168.192 18.1875 167.453C17.8854 166.713 17.6146 165.963 17.3802 165.198C17.151 164.432 16.9531 163.656 16.7969 162.869C16.6406 162.088 16.526 161.297 16.4479 160.5C16.3698 159.708 16.3281 158.906 16.3281 158.109V24.9372C16.3281 24.1351 16.3698 23.3382 16.4479 22.5466C16.526 21.7497 16.6406 20.958 16.7969 20.1716C16.9531 19.3903 17.151 18.6143 17.3802 17.8486C17.6146 17.083 17.8854 16.333 18.1875 15.5934C18.4948 14.8538 18.8385 14.1351 19.2135 13.4268C19.5937 12.7236 20.0052 12.0361 20.4479 11.3747C20.8958 10.708 21.3698 10.0674 21.8802 9.44759C22.3854 8.83301 22.9271 8.23926 23.4896 7.67155C24.0573 7.10905 24.651 6.57259 25.2708 6.06217C25.8906 5.55697 26.5313 5.08301 27.1979 4.63509C27.8646 4.19238 28.5469 3.78092 29.2552 3.40592C29.9635 3.03092 30.6823 2.68717 31.4271 2.37988C32.1667 2.0778 32.9167 1.80697 33.6823 1.57259C34.4531 1.34342 35.2292 1.14551 36.0104 0.994466C36.7969 0.838215 37.5885 0.718423 38.3854 0.640299C39.1823 0.562174 39.9844 0.520508 40.7813 0.520508H360.995C361.797 0.520508 362.594 0.562174 363.391 0.640299C364.188 0.718423 364.979 0.838215 365.766 0.994466C366.547 1.14551 367.323 1.34342 368.089 1.57259C368.854 1.80697 369.609 2.07259 370.349 2.37988C371.089 2.68717 371.813 3.02572 372.516 3.40592C373.224 3.78092 373.911 4.19238 374.573 4.63509C375.24 5.0778 375.885 5.55697 376.5 6.06217C377.12 6.56738 377.714 7.10384 378.281 7.67155C378.844 8.23405 379.38 8.8278 379.891 9.44759C380.396 10.0622 380.875 10.7028 381.318 11.3695C381.766 12.0309 382.177 12.7184 382.552 13.4215C382.932 14.1299 383.271 14.8486 383.578 15.5882C383.885 16.3278 384.156 17.0778 384.385 17.8434C384.62 18.6091 384.813 19.3799 384.969 20.1663C385.125 20.9476 385.245 21.7393 385.323 22.5361C385.401 23.3278 385.438 24.1299 385.438 24.9268V158.119C385.438 158.916 385.401 159.713 385.318 160.51C385.24 161.307 385.125 162.093 384.969 162.88C384.813 163.661 384.615 164.437 384.385 165.203C384.151 165.968 383.88 166.718 383.573 167.458C383.271 168.192 382.927 168.916 382.552 169.619C382.172 170.328 381.76 171.01 381.318 171.677C380.87 172.338 380.396 172.979 379.885 173.599C379.38 174.213 378.844 174.807 378.276 175.375C377.708 175.937 377.12 176.474 376.5 176.979C375.88 177.489 375.24 177.963 374.573 178.406C373.906 178.849 373.224 179.26 372.516 179.64C371.807 180.015 371.089 180.359 370.349 180.661C369.609 180.968 368.854 181.239 368.089 181.468C367.323 181.703 366.547 181.896 365.76 182.052C364.979 182.208 364.188 182.328 363.391 182.406C362.594 182.484 361.797 182.521 360.995 182.521Z" fill="#010101"/>
</g>
<mask id="mask1_1304_686" style="mask-type:luminance" maskUnits="userSpaceOnUse" x="19" y="3" width="364" height="32">
<path d="M19 3H383V34.5208H19V3Z" fill="white"/>
</mask>
<g mask="url(#mask1_1304_686)">
<path d="M382.328 24.9375V158.109C382.328 158.807 382.297 159.5 382.224 160.198C382.156 160.891 382.057 161.578 381.917 162.266C381.781 162.948 381.615 163.625 381.412 164.292C381.209 164.958 380.974 165.615 380.703 166.26C380.438 166.906 380.141 167.536 379.807 168.151C379.479 168.766 379.12 169.365 378.735 169.943C378.344 170.521 377.927 171.083 377.485 171.62C377.042 172.161 376.573 172.677 376.078 173.172C375.589 173.661 375.068 174.13 374.531 174.573C373.99 175.016 373.427 175.432 372.849 175.818C372.266 176.208 371.667 176.563 371.052 176.891C370.438 177.224 369.802 177.521 369.156 177.786C368.516 178.052 367.854 178.286 367.188 178.49C366.521 178.693 365.844 178.865 365.156 179C364.469 179.135 363.781 179.234 363.084 179.307C362.391 179.375 361.693 179.406 360.995 179.406H40.7918C40.0939 179.406 39.396 179.375 38.7033 179.307C38.0054 179.234 37.3179 179.135 36.6304 179C35.9481 178.865 35.271 178.693 34.5991 178.49C33.9325 178.286 33.2762 178.052 32.6304 177.786C31.9845 177.521 31.3543 177.224 30.7345 176.891C30.12 176.563 29.521 176.208 28.9429 175.818C28.3595 175.432 27.8022 175.016 27.2606 174.573C26.7189 174.13 26.2033 173.661 25.7085 173.172C25.2137 172.677 24.745 172.161 24.3022 171.62C23.8595 171.083 23.4429 170.521 23.0575 169.943C22.6668 169.365 22.3075 168.766 21.9793 168.151C21.6512 167.536 21.3491 166.906 21.0835 166.26C20.8179 165.615 20.5835 164.958 20.3804 164.292C20.1772 163.625 20.0054 162.948 19.87 162.266C19.7345 161.578 19.6304 160.891 19.5627 160.198C19.495 159.5 19.4585 158.807 19.4585 158.109V24.9375C19.4585 24.2396 19.495 23.5417 19.5627 22.849C19.6304 22.1563 19.7345 21.4687 19.87 20.7813C20.0054 20.099 20.1772 19.4219 20.3804 18.7552C20.5835 18.0885 20.8179 17.4323 21.0835 16.7865C21.3491 16.1406 21.6512 15.5104 21.9793 14.8958C22.3075 14.2813 22.6668 13.6823 23.0575 13.1042C23.4429 12.526 23.8595 11.9635 24.3022 11.4271C24.745 10.8854 25.2137 10.3698 25.7085 9.875C26.2033 9.38542 26.7189 8.91667 27.2606 8.47396C27.8022 8.03125 28.3595 7.61458 28.9429 7.22917C29.521 6.83854 30.12 6.48438 30.7345 6.15104C31.3543 5.82292 31.9845 5.52604 32.6304 5.26042C33.2762 4.99479 33.9325 4.76042 34.5991 4.55729C35.271 4.35417 35.9481 4.18229 36.6304 4.04688C37.3179 3.91146 38.0054 3.80729 38.7033 3.73958C39.396 3.67187 40.0939 3.64062 40.7918 3.64062H360.995C361.693 3.64062 362.391 3.67187 363.084 3.73958C363.781 3.80729 364.469 3.91146 365.156 4.04688C365.844 4.18229 366.521 4.35417 367.188 4.55729C367.854 4.76042 368.516 4.99479 369.156 5.26042C369.802 5.52604 370.438 5.82292 371.052 6.15104C371.667 6.48438 372.266 6.83854 372.849 7.22917C373.427 7.61458 373.99 8.03125 374.531 8.47396C375.068 8.91667 375.589 9.38542 376.078 9.875C376.573 10.3698 377.042 10.8854 377.485 11.4271C377.927 11.9635 378.344 12.526 378.735 13.1042C379.12 13.6823 379.479 14.2813 379.807 14.8958C380.141 15.5104 380.438 16.1406 380.703 16.7865C380.974 17.4323 381.209 18.0885 381.412 18.7552C381.615 19.4219 381.781 20.099 381.917 20.7813C382.057 21.4687 382.156 22.1563 382.224 22.849C382.297 23.5417 382.328 24.2396 382.328 24.9375Z" fill="#E44026"/>
</g>
<mask id="mask2_1304_686" style="mask-type:luminance" maskUnits="userSpaceOnUse" x="15" y="21" width="371" height="116">
<path d="M15.8906 21.9893H385.667V136.989H15.8906V21.9893Z" fill="white"/>
</mask>
<g mask="url(#mask2_1304_686)">
<path d="M360.995 137.275H40.7813C39.9792 137.275 39.1823 137.234 38.3854 137.156C37.5885 137.077 36.7969 136.963 36.0104 136.807C35.224 136.65 34.4479 136.458 33.6823 136.223C32.9167 135.994 32.1615 135.723 31.4219 135.416C30.6823 135.109 29.9583 134.77 29.2552 134.395C28.5469 134.015 27.8594 133.604 27.1979 133.161C26.5313 132.718 25.8854 132.239 25.2708 131.734C24.651 131.229 24.0573 130.692 23.4896 130.124C22.9219 129.562 22.3854 128.968 21.8802 128.348C21.3698 127.734 20.8958 127.088 20.4479 126.426C20.0052 125.76 19.5937 125.077 19.2135 124.369C18.8385 123.666 18.4948 122.942 18.1875 122.202C17.8802 121.463 17.6146 120.713 17.3802 119.947C17.1458 119.182 16.9531 118.411 16.7969 117.624C16.6406 116.838 16.526 116.051 16.4427 115.255C16.3646 114.458 16.3281 113.661 16.3281 112.859V-20.3079C16.3281 -21.11 16.3646 -21.9069 16.4427 -22.7038C16.526 -23.5007 16.6406 -24.2871 16.7969 -25.0736C16.9531 -25.86 17.1458 -26.6309 17.3802 -27.3965C17.6146 -28.1621 17.8802 -28.9121 18.1875 -29.6517C18.4948 -30.3913 18.8385 -31.1152 19.2135 -31.8184C19.5937 -32.5267 20.0052 -33.209 20.4479 -33.8757C20.8958 -34.5371 21.3698 -35.1829 21.8802 -35.7975C22.3854 -36.4173 22.9219 -37.0059 23.4896 -37.5736C24.0573 -38.1413 24.651 -38.6777 25.2708 -39.1829C25.8854 -39.6882 26.5313 -40.1673 27.1979 -40.61C27.8594 -41.0527 28.5469 -41.4642 29.2552 -41.8392C29.9583 -42.2194 30.6823 -42.5579 31.4219 -42.8652C32.1615 -43.1725 32.9167 -43.4434 33.6823 -43.6725C34.4479 -43.9069 35.224 -44.0996 36.0104 -44.2559C36.7969 -44.4121 37.5885 -44.5267 38.3854 -44.6048C39.1823 -44.6829 39.9792 -44.7246 40.7813 -44.7246H360.995C361.792 -44.7246 362.594 -44.6829 363.391 -44.6048C364.188 -44.5267 364.979 -44.4121 365.76 -44.2559C366.547 -44.0996 367.323 -43.9069 368.089 -43.6725C368.854 -43.4434 369.609 -43.1725 370.349 -42.8652C371.089 -42.5632 371.813 -42.2194 372.516 -41.8444C373.224 -41.4642 373.906 -41.0579 374.573 -40.61C375.24 -40.1673 375.88 -39.6934 376.5 -39.1829C377.12 -38.6777 377.714 -38.1413 378.276 -37.5788C378.844 -37.0111 379.38 -36.4225 379.891 -35.8027C380.396 -35.1829 380.875 -34.5423 381.318 -33.8809C381.766 -33.2142 382.172 -32.5319 382.552 -31.8236C382.927 -31.1204 383.271 -30.3965 383.578 -29.6621C383.885 -28.9225 384.151 -28.1673 384.385 -27.4069C384.62 -26.6413 384.813 -25.8652 384.969 -25.084C385.125 -24.2975 385.24 -23.5059 385.318 -22.7142C385.401 -21.9173 385.438 -21.1204 385.438 -20.3184V112.869C385.438 113.671 385.396 114.468 385.318 115.265C385.24 116.057 385.125 116.848 384.969 117.63C384.813 118.416 384.615 119.192 384.385 119.952C384.151 120.718 383.88 121.473 383.573 122.208C383.266 122.947 382.927 123.671 382.547 124.374C382.172 125.077 381.76 125.765 381.318 126.426C380.87 127.093 380.396 127.734 379.885 128.348C379.38 128.968 378.844 129.562 378.276 130.124C377.708 130.692 377.115 131.223 376.5 131.734C375.88 132.239 375.24 132.713 374.573 133.161C373.906 133.604 373.219 134.015 372.516 134.39C371.807 134.77 371.083 135.109 370.349 135.416C369.609 135.723 368.854 135.989 368.089 136.223C367.323 136.452 366.547 136.65 365.76 136.807C364.979 136.963 364.188 137.077 363.391 137.156C362.594 137.234 361.792 137.275 360.995 137.275Z" fill="#010101"/>
</g>
<mask id="mask3_1304_686" style="mask-type:luminance" maskUnits="userSpaceOnUse" x="19" y="21" width="364" height="114">
<path d="M19 21.9893H383V135H19V21.9893Z" fill="white"/>
</mask>
<g mask="url(#mask3_1304_686)">
<path d="M382.328 -20.3073V112.859C382.328 113.557 382.292 114.255 382.224 114.948C382.156 115.646 382.052 116.333 381.917 117.016C381.781 117.703 381.615 118.375 381.412 119.047C381.209 119.714 380.969 120.37 380.703 121.01C380.438 121.656 380.141 122.286 379.807 122.901C379.479 123.516 379.12 124.115 378.735 124.693C378.344 125.276 377.927 125.833 377.485 126.375C377.042 126.911 376.573 127.427 376.078 127.922C375.584 128.417 375.068 128.885 374.526 129.328C373.99 129.771 373.427 130.182 372.844 130.573C372.266 130.958 371.667 131.318 371.052 131.646C370.432 131.974 369.802 132.271 369.156 132.542C368.511 132.807 367.854 133.042 367.188 133.245C366.516 133.448 365.839 133.615 365.156 133.75C364.469 133.885 363.781 133.99 363.084 134.057C362.391 134.125 361.693 134.161 360.995 134.161H40.7918C40.0939 134.161 39.396 134.125 38.7033 134.057C38.0054 133.99 37.3179 133.885 36.6304 133.75C35.9481 133.615 35.271 133.448 34.5991 133.245C33.9325 133.042 33.2762 132.807 32.6304 132.542C31.9845 132.271 31.3543 131.974 30.7345 131.646C30.12 131.318 29.521 130.958 28.9429 130.573C28.3595 130.182 27.797 129.771 27.2606 129.328C26.7189 128.885 26.2033 128.417 25.7085 127.922C25.2137 127.427 24.745 126.911 24.3022 126.375C23.8595 125.833 23.4429 125.276 23.0522 124.693C22.6668 124.115 22.3075 123.516 21.9793 122.901C21.646 122.286 21.3491 121.656 21.0835 121.01C20.8179 120.37 20.5783 119.714 20.3752 119.047C20.172 118.375 20.0054 117.703 19.87 117.016C19.7345 116.333 19.6304 115.646 19.5627 114.948C19.495 114.255 19.4585 113.557 19.4585 112.859V-20.3073C19.4585 -21.0052 19.495 -21.7031 19.5627 -22.3958C19.6304 -23.0937 19.7345 -23.7813 19.87 -24.4635C20.0054 -25.151 20.172 -25.8229 20.3752 -26.4948C20.5783 -27.1615 20.8179 -27.8177 21.0835 -28.4583C21.3491 -29.1042 21.646 -29.7344 21.9793 -30.349C22.3075 -30.9635 22.6668 -31.5625 23.0522 -32.1406C23.4429 -32.724 23.8595 -33.2812 24.3022 -33.8229C24.745 -34.3594 25.2137 -34.875 25.7085 -35.3698C26.2033 -35.8646 26.7189 -36.3333 27.2606 -36.776C27.797 -37.2187 28.3595 -37.6302 28.9429 -38.0208C29.521 -38.4063 30.12 -38.7656 30.7345 -39.0937C31.3543 -39.4219 31.9845 -39.7187 32.6304 -39.9896C33.2762 -40.2552 33.9325 -40.4896 34.5991 -40.6927C35.271 -40.8958 35.9481 -41.0625 36.6304 -41.1979C37.3179 -41.3333 38.0054 -41.4375 38.7033 -41.5052C39.396 -41.5729 40.0939 -41.6094 40.7918 -41.6094H360.995C361.693 -41.6094 362.391 -41.5729 363.084 -41.5052C363.781 -41.4375 364.469 -41.3333 365.156 -41.1979C365.839 -41.0625 366.516 -40.8958 367.188 -40.6927C367.854 -40.4896 368.511 -40.2552 369.156 -39.9896C369.802 -39.7187 370.432 -39.4219 371.052 -39.0937C371.667 -38.7656 372.266 -38.4063 372.844 -38.0208C373.427 -37.6302 373.99 -37.2187 374.526 -36.776C375.068 -36.3333 375.584 -35.8646 376.078 -35.3698C376.573 -34.875 377.042 -34.3594 377.485 -33.8229C377.927 -33.2812 378.344 -32.724 378.735 -32.1406C379.12 -31.5625 379.479 -30.9635 379.807 -30.349C380.141 -29.7344 380.438 -29.1042 380.703 -28.4583C380.969 -27.8177 381.209 -27.1615 381.412 -26.4948C381.615 -25.8229 381.781 -25.151 381.917 -24.4635C382.052 -23.7813 382.156 -23.0937 382.224 -22.3958C382.292 -21.7031 382.328 -21.0052 382.328 -20.3073Z" fill="#E44026"/>
</g>
<mask id="mask4_1304_686" style="mask-type:luminance" maskUnits="userSpaceOnUse" x="0" y="35" width="402" height="54">
<path d="M0.525879 35.6719H401.526V88.6719H0.525879V35.6719Z" fill="white"/>
</mask>
<g mask="url(#mask4_1304_686)">
<path d="M400.875 53.432L400.364 54.2757L393.708 64.6507C392.687 66.2445 391.489 67.6872 390.104 68.9788C388.724 70.2705 387.198 71.3695 385.536 72.2757C383.875 73.182 382.125 73.8643 380.286 74.333C378.448 74.7966 376.583 75.0257 374.687 75.0205H112.578V85.1924C112.573 85.6559 112.479 86.0986 112.302 86.5257C112.119 86.9528 111.859 87.3278 111.531 87.6507C111.203 87.9788 110.817 88.2288 110.39 88.4059C109.958 88.583 109.51 88.6716 109.047 88.6716H105.557C105.088 88.6716 104.635 88.5778 104.203 88.4007C103.771 88.2236 103.39 87.9684 103.057 87.6403C102.729 87.307 102.474 86.9268 102.291 86.4945C102.114 86.0674 102.026 85.6195 102.026 85.1507V74.9841H101.328C100.75 75.3122 100.13 75.4788 99.4632 75.4788H19.8278C19.1611 75.4788 18.5361 75.3122 17.958 74.9841H9.0778C8.56217 74.9788 8.04655 74.932 7.54134 74.8278C7.03613 74.7288 6.54134 74.583 6.06217 74.3851C5.58822 74.1872 5.12988 73.9476 4.7028 73.6611C4.27051 73.3747 3.87467 73.0518 3.50488 72.6872C3.1403 72.3226 2.81217 71.932 2.52572 71.5049C2.23405 71.0778 1.98926 70.6247 1.79134 70.1507C1.58822 69.6768 1.43717 69.1872 1.33301 68.682C1.23405 68.1768 1.17676 67.6663 1.17676 67.1507V57.1455C1.17676 56.6299 1.23405 56.1195 1.33301 55.6143C1.43717 55.1143 1.58822 54.6247 1.79134 54.1455C1.98926 53.6715 2.23405 53.2236 2.52572 52.7965C2.81217 52.3695 3.1403 51.9736 3.50488 51.609C3.87467 51.2445 4.27051 50.9216 4.7028 50.6351C5.12988 50.3538 5.58822 50.109 6.06217 49.9111C6.54134 49.7184 7.03613 49.5674 7.54134 49.4684C8.04655 49.3643 8.56217 49.3174 9.0778 49.3174H17.7757C18.3226 48.9893 18.9111 48.8226 19.5518 48.8174H99.7288C100.369 48.8174 100.968 48.984 101.521 49.3174H102.026V39.1455C102.026 38.682 102.114 38.2288 102.291 37.8018C102.474 37.3695 102.729 36.9893 103.057 36.6611C103.39 36.3278 103.771 36.0726 104.203 35.8955C104.635 35.7184 105.088 35.6299 105.557 35.6299H109.047C109.515 35.6299 109.968 35.7184 110.401 35.8955C110.833 36.0726 111.213 36.3278 111.547 36.6611C111.875 36.9893 112.13 37.3695 112.312 37.8018C112.489 38.2288 112.578 38.682 112.578 39.1455V49.3174H397.625C398.057 49.3174 398.468 49.4007 398.869 49.5622C399.265 49.7288 399.614 49.9632 399.922 50.2653C400.224 50.5674 400.458 50.9163 400.625 51.3122C400.786 51.708 400.869 52.1195 400.875 52.5518V53.432Z" fill="#010101"/>
</g>
<path d="M19.146 52.3643V71.9736H9.07829C8.43766 71.9736 7.82308 71.8486 7.23454 71.6091C6.646 71.3643 6.12516 71.0205 5.67204 70.5726C5.21891 70.1247 4.86475 69.609 4.61995 69.0257C4.36995 68.4372 4.24495 67.8278 4.23975 67.1924V57.2288C4.23975 56.5882 4.35954 55.9736 4.60433 55.3799C4.85433 54.7913 5.20329 54.2705 5.65641 53.8174C6.10954 53.3643 6.63037 53.0205 7.22412 52.7757C7.81787 52.5309 8.43766 52.4059 9.07829 52.4059H19.146V52.3643Z" fill="#010101"/>
<path d="M100.146 52.5524V71.7816C100.146 71.9691 100.078 72.1253 99.9429 72.2607C99.8127 72.3962 99.6512 72.4587 99.4637 72.4587H19.8283C19.6408 72.4587 19.4793 72.3962 19.3439 72.2607C19.2085 72.1253 19.146 71.9691 19.146 71.7816V52.5524C19.146 52.3597 19.2085 52.2035 19.3439 52.068C19.4793 51.9326 19.6408 51.8701 19.8283 51.8701H99.4637C99.6512 51.8701 99.8127 51.9326 99.9429 52.068C100.078 52.2035 100.146 52.3597 100.146 52.5524Z" fill="#353532"/>
<path d="M109.515 39.1875V85.151C109.515 85.2813 109.474 85.3906 109.38 85.4792C109.286 85.5729 109.177 85.6198 109.047 85.6198H105.557C105.427 85.6198 105.318 85.5729 105.224 85.4792C105.13 85.3906 105.088 85.2813 105.088 85.151V39.1875C105.088 39.0573 105.13 38.9479 105.224 38.8594C105.318 38.7656 105.427 38.7188 105.557 38.7188H109.047C109.177 38.7188 109.286 38.7656 109.38 38.8594C109.474 38.9479 109.515 39.0573 109.515 39.1875Z" fill="#010101"/>
<path d="M17.7345 62.1719V69.1875H5.646V62.1719H17.7345Z" fill="#353532"/>
<path d="M17.7345 59.5576V60.9482H5.646V59.5576H17.7345Z" fill="#353532"/>
<path d="M105.089 52.3643V71.9632H100.146V52.3643H105.089Z" fill="#010101"/>
<path d="M109.516 71.9736V52.3643H397.625C397.698 52.3643 397.755 52.4007 397.792 52.4632C397.823 52.5257 397.823 52.5882 397.781 52.6507L391.172 63.0153C390.292 64.3851 389.25 65.6299 388.057 66.7445C386.859 67.8538 385.542 68.8018 384.104 69.5882C382.672 70.3695 381.156 70.9632 379.573 71.3643C377.984 71.7705 376.375 71.9736 374.74 71.9736H109.516Z" fill="#353532"/>
<path d="M382.813 53.208L383.344 52.3643H109.516V62.1715H369.521C376.177 62.1715 379.219 58.7913 382.813 53.208Z" fill="#010101"/>
<path d="M103.667 62.1719V69.1875H101.552V62.1719H103.667Z" fill="#353532"/>
<path d="M103.667 59.5576V60.9482H101.552V59.5576H103.667Z" fill="#353532"/>
<path d="M108.354 67V79.9531H106.24V67H108.354Z" fill="#353532"/>
<path d="M108.354 62.1719V65.6771H106.24V62.1719H108.354Z" fill="#353532"/>
<path d="M97.6147 51.8701V69.1774H97.1616V51.8701H97.6147Z" fill="#010101"/>
<path d="M95.0728 51.8701V69.1774H94.6196V51.8701H95.0728Z" fill="#010101"/>
<path d="M92.5415 51.8701V69.1774H92.0884V51.8701H92.5415Z" fill="#010101"/>
<path d="M89.9948 51.8701V69.1774H89.5469V51.8701H89.9948Z" fill="#010101"/>
<path d="M87.4635 51.8701V69.1774H87.0156V51.8701H87.4635Z" fill="#010101"/>
<path d="M84.9323 51.8701V69.1774H84.4844V51.8701H84.9323Z" fill="#010101"/>
<path d="M82.3908 51.8701V69.1774H81.9429V51.8701H82.3908Z" fill="#010101"/>
<path d="M79.8595 51.8701V69.1774H79.4116V51.8701H79.8595Z" fill="#010101"/>
<path d="M77.3175 51.8701V69.1774H76.8696V51.8701H77.3175Z" fill="#010101"/>
<path d="M74.7866 51.8701V69.1774H74.3335V51.8701H74.7866Z" fill="#010101"/>
<path d="M72.2554 51.8701V69.1774H71.8022V51.8701H72.2554Z" fill="#010101"/>
<path d="M69.7082 51.8701V69.1774H69.2603V51.8701H69.7082Z" fill="#010101"/>
<path d="M67.1769 51.8701V69.1774H66.729V51.8701H67.1769Z" fill="#010101"/>
<path d="M64.6354 51.8701V69.1774H64.1875V51.8701H64.6354Z" fill="#010101"/>
<path d="M62.1144 51.8701V69.1774H61.6665V51.8701H62.1144Z" fill="#010101"/>
<path d="M59.5729 51.8701V69.1774H59.125V51.8701H59.5729Z" fill="#010101"/>
<path d="M57.0314 51.8701V69.1774H56.5835V51.8701H57.0314Z" fill="#010101"/>
<path d="M54.5002 51.8701V69.1774H54.0522V51.8701H54.5002Z" fill="#010101"/>
<path d="M51.9585 51.8701V69.1774H51.5054V51.8701H51.9585Z" fill="#010101"/>
<path d="M49.4272 51.8701V69.1774H48.9741V51.8701H49.4272Z" fill="#010101"/>
<path d="M46.8908 51.8701V69.1774H46.4429V51.8701H46.8908Z" fill="#010101"/>
<path d="M44.3488 51.8701V69.1774H43.9009V51.8701H44.3488Z" fill="#010101"/>
<path d="M41.8175 51.8701V69.1774H41.3696V51.8701H41.8175Z" fill="#010101"/>
<path d="M39.276 51.8701V69.1774H38.8281V51.8701H39.276Z" fill="#010101"/>
<path d="M36.7448 51.8701V69.1774H36.2969V51.8701H36.7448Z" fill="#010101"/>
<path d="M34.2135 51.8701V69.1774H33.7656V51.8701H34.2135Z" fill="#010101"/>
<path d="M31.672 51.8701V69.1774H31.2241V51.8701H31.672Z" fill="#010101"/>
<path d="M29.1406 51.8701V69.1774H28.6875V51.8701H29.1406Z" fill="#010101"/>
<path d="M26.5991 51.8701V69.1774H26.146V51.8701H26.5991Z" fill="#010101"/>
<path d="M24.0627 51.8701V69.1774H23.6147V51.8701H24.0627Z" fill="#010101"/>
<path d="M21.5314 51.8701V69.1774H21.0835V51.8701H21.5314Z" fill="#010101"/>
<path d="M100.146 56.4222V52.2972C100.146 52.1774 100.109 52.0785 100.026 51.9951C99.9427 51.9118 99.8438 51.8701 99.7292 51.8701H19.5521C19.4323 51.8701 19.3333 51.9118 19.25 51.9951C19.1667 52.0785 19.125 52.1774 19.125 52.2972V56.4222H100.146Z" fill="#010101"/>
<path d="M114.458 52.3643V71.9632H109.516V52.3643H114.458Z" fill="#010101"/>
<path d="M52.7521 48.7979C52.7521 43.0739 49.1375 37.3447 41.2261 37.3447C34.1323 37.3447 29.0854 42.1937 29.0854 48.6364V72.4958C29.0854 79.5583 34.6844 83.7874 41.2261 83.7874C47.7365 83.7874 52.9448 79.5583 52.9448 72.4958V68.0687C52.9448 67.0947 52.6219 66.8656 51.8719 66.8656H45.7834C45.0386 66.8656 44.8094 67.1572 44.8094 68.1364V72.0062C44.8094 74.0583 43.6688 75.9437 41.2938 75.9437C39.049 75.9437 37.7469 74.0583 37.7469 72.0062V48.9958C37.7469 46.9437 39.1792 45.152 41.2938 45.152C43.4396 45.152 44.6479 47.1416 44.6479 49.0583V52.0895C44.6479 53.001 44.8719 53.3916 45.6532 53.3916H51.7104C52.5542 53.3916 52.7521 52.9645 52.7521 51.9593V48.7979Z" fill="#F3E4CA"/>
<path d="M76.1868 83.0742C76.7702 83.0742 77.0983 82.6836 77.0983 81.9023V76.3346C77.0983 75.5534 76.7702 75.2305 76.1868 75.2305H65.1816V39.2982C65.1816 38.5169 64.8587 38.0273 64.1087 38.0273H57.5983C56.8848 38.0273 56.5254 38.5169 56.5254 39.2982V81.8398C56.5254 82.6211 56.8848 83.0742 57.6296 83.0742H76.1868Z" fill="#F3E4CA"/>
<path d="M103.753 48.6364C103.753 41.5426 98.0866 37.3447 91.5449 37.3447C85.0345 37.3447 79.4355 41.5739 79.4355 48.6364V72.4958C79.4355 79.3968 85.0345 83.7874 91.5449 83.7874C98.0866 83.7874 103.753 79.5583 103.753 72.4958V48.6364ZM91.6126 45.152C93.7897 45.152 95.0918 47.0426 95.0918 49.126V72.2354C95.0918 74.2874 93.7897 75.9437 91.5449 75.9437C89.3314 75.9437 88.097 74.0895 88.097 72.0374V49.126C88.097 47.0426 89.3991 45.152 91.6126 45.152Z" fill="#F3E4CA"/>
<path d="M123.05 72.0065C123.05 74.0586 121.784 75.944 119.602 75.944C117.389 75.944 116.118 74.0586 116.118 72.0065V39.2982C116.118 38.6107 115.925 38.0273 115.144 38.0273H108.274C107.821 38.0273 107.43 38.6107 107.43 39.2982V72.4961C107.43 78.7461 113.06 83.7878 119.571 83.7878C126.081 83.7878 131.743 78.7461 131.743 72.4961V39.3294C131.743 38.6784 131.415 38.0273 130.701 38.0273H124.092C123.409 38.0273 123.05 38.6471 123.05 39.3294V72.0065Z" fill="#F3E4CA"/>
<path d="M144.792 45.9336H148.015C150.229 45.9336 151.76 47.2044 151.76 49.9388V71.2565C151.76 73.4701 150.359 75.1628 148.177 75.2305H144.792V45.9336ZM136.135 81.8398C136.135 82.6211 136.495 83.0742 137.239 83.0742H148.599C155.239 83.0117 160.417 79.0065 160.417 71.5169V49.5794C160.417 42.1263 155.276 38.0898 148.536 38.0273H137.239C136.557 38.0273 136.135 38.5169 136.135 39.2982V81.8398Z" fill="#F3E4CA"/>
<path d="M193.514 51.0791C193.514 51.9906 193.644 52.3135 194.462 52.3135H200.285C201.326 52.3135 201.556 51.9906 201.556 51.0791V49.2249C201.556 42.0322 196.738 37.3447 190.004 37.3447C185.446 37.3447 178.446 40.5635 178.446 49.027C178.446 56.4801 181.504 58.6312 188.311 64.1624C192.311 67.4176 194.004 68.8812 194.004 72.0374C194.004 74.4176 192.342 75.9124 190.295 75.9124C188.634 75.9124 186.582 74.8708 186.582 71.6156V70.152C186.582 69.1781 186.389 68.8187 185.478 68.8187H179.55C178.639 68.8187 178.446 69.2718 178.446 70.3812V72.1051C178.446 78.2249 182.384 83.7874 190.228 83.7874C197.42 83.7874 202.238 78.5843 202.238 72.4958C202.238 64.2614 197.389 60.7145 191.3 55.9958C188.405 53.7458 186.488 52.3499 186.488 49.2562C186.488 46.2926 188.373 45.152 190.004 45.152C192.342 45.152 193.514 47.0114 193.514 49.2562V51.0791Z" fill="#F3E4CA"/>
<path d="M214.182 75.2305V64.194H223.687C224.307 64.194 224.729 63.8711 224.729 63.0898V57.5221C224.729 56.7096 224.239 56.3867 223.687 56.3867H214.182V45.9336H226.098C226.682 45.9336 227.01 45.543 227.01 44.7617V39.2305C227.01 38.418 226.682 38.0273 226.098 38.0273H206.63C205.947 38.0273 205.525 38.5169 205.525 39.2982V81.8398C205.525 82.6211 205.885 83.0742 206.63 83.0742H226.26C226.781 83.0742 227.202 82.7148 227.202 81.9336V76.3346C227.202 75.5898 226.781 75.2305 226.26 75.2305H214.182Z" fill="#F3E4CA"/>
<path d="M253.242 48.7979C253.242 43.0739 249.627 37.3447 241.716 37.3447C234.622 37.3447 229.575 42.1937 229.575 48.6364V72.4958C229.575 79.5583 235.174 83.7874 241.716 83.7874C248.226 83.7874 253.435 79.5583 253.435 72.4958V68.0687C253.435 67.0947 253.112 66.8656 252.362 66.8656H246.273C245.528 66.8656 245.299 67.1572 245.299 68.1364V72.0062C245.299 74.0583 244.159 75.9437 241.784 75.9437C239.539 75.9437 238.237 74.0583 238.237 72.0062V48.9958C238.237 46.9437 239.669 45.152 241.784 45.152C243.929 45.152 245.138 47.1416 245.138 49.0583V52.0895C245.138 53.001 245.362 53.3916 246.143 53.3916H252.2C253.044 53.3916 253.242 52.9645 253.242 51.9593V48.7979Z" fill="#F3E4CA"/>
<path d="M272.343 72.0065C272.343 74.0586 271.077 75.944 268.895 75.944C266.681 75.944 265.411 74.0586 265.411 72.0065V39.2982C265.411 38.6107 265.218 38.0273 264.437 38.0273H257.567C257.114 38.0273 256.723 38.6107 256.723 39.2982V72.4961C256.723 78.7461 262.353 83.7878 268.864 83.7878C275.374 83.7878 281.036 78.7461 281.036 72.4961V39.3294C281.036 38.6784 280.708 38.0273 279.994 38.0273H273.385C272.702 38.0273 272.343 38.6471 272.343 39.3294V72.0065Z" fill="#F3E4CA"/>
<path d="M301.084 55.1784C301.084 57.3919 299.715 58.8555 297.111 58.8555H294.084V45.9336H297.34C299.584 45.9336 301.084 47.4336 301.084 49.7773V55.1784ZM308.308 83.043C309.189 83.043 309.48 82.2617 309.48 81.6732V75.8138C309.48 69.3086 308.048 65.2044 305.121 62.7305C307.756 60.9753 309.772 58.3034 309.772 54.4336V49.7773C309.772 43.2982 304.73 38.0273 298.022 38.0273H286.532C285.85 38.0273 285.428 38.5169 285.428 39.2982V81.8711C285.428 82.6211 285.751 83.0742 286.501 83.0742H293.012C293.73 83.0742 294.084 82.6211 294.084 81.8711V65.5638C298.543 65.8555 300.824 68.4909 300.824 74.7721V81.5794C300.824 82.5534 301.574 83.043 302.319 83.043H308.308Z" fill="#F3E4CA"/>
<path d="M322.531 39.2982C322.531 38.5169 322.208 38.0273 321.458 38.0273H314.947C314.265 38.0273 313.875 38.5169 313.875 39.2982V81.8398C313.875 82.6211 314.197 83.0742 314.947 83.0742H321.458C322.208 83.0742 322.531 82.6211 322.531 81.8398V39.2982Z" fill="#F3E4CA"/>
<path d="M346.616 45.9336C347.173 45.9336 347.564 45.543 347.564 44.7617V39.1992C347.564 38.418 347.173 38.0273 346.616 38.0273H325.819C325.267 38.0273 324.876 38.4492 324.876 39.2305V44.7617C324.876 45.543 325.267 45.9336 325.819 45.9336H331.871V81.9336C331.871 82.6836 332.262 83.0742 332.819 83.0742H339.621C340.142 83.0742 340.564 82.6836 340.564 81.9336V45.9336H346.616Z" fill="#F3E4CA"/>
<path d="M365.334 64.9753C369.823 63.5117 373.178 59.7669 373.178 54.3346V38.7409C373.178 38.2878 372.917 38.0273 372.495 38.0273H365.204C364.714 38.0273 364.485 38.3503 364.485 38.7773V54.0742C364.485 56.1263 363.25 57.7826 361 57.7826C358.756 57.7826 357.553 55.9284 357.553 53.8763V38.7096C357.553 38.3503 357.261 38.0273 356.74 38.0273H349.579C349.089 38.0273 348.896 38.3503 348.896 38.7773L348.86 54.3346C348.86 59.6367 352.183 63.4492 356.672 64.944V81.8034C356.672 82.6211 356.969 83.0742 357.652 83.0742H364.386C365.073 83.0742 365.334 82.6211 365.334 81.8034V64.9753Z" fill="#F3E4CA"/>
<path d="M147.068 98.4766V112.982L138.11 98.4766H129.151V103.169H133.844V120.232H138.11V105.727L147.068 120.232H151.334V103.169H156.026V98.4766H147.068Z" fill="black"/>
<path d="M166.136 115.539V120.232H179.787V115.539H175.095V103.169H179.787V98.4766H166.136V103.169H170.829V115.539H166.136Z" fill="black"/>
<path d="M207.814 98.4766V112.982L198.856 98.4766H189.897V103.169H194.59V120.232H198.856V105.727L207.814 120.232H212.08V103.169H216.772V98.4766H207.814Z" fill="black"/>
<path d="M226.882 98.4766V103.169H231.575V105.258C231.575 114.513 229.315 121.852 227.138 124.497H228.757C233.023 119.763 235.841 112.508 235.841 104.706V103.169H239.679V98.4766H226.882Z" fill="black"/>
<path d="M258.494 120.659C257.509 119.294 256.488 116.008 256.233 111.701H263.869V120.232H268.134V103.169H272.827V98.4766H249.791V103.169H253.285C252.436 105.086 251.921 107.133 251.921 109.398C251.921 113.789 253.884 117.888 256.869 120.659H258.494ZM257.723 103.169H263.869V107.008H256.358C256.572 105.643 256.999 104.445 257.723 103.169Z" fill="black"/>
</svg>
