<svg width="200" height="195" viewBox="0 0 200 195" fill="none" xmlns="http://www.w3.org/2000/svg">
<path d="M147.276 137.816C140.568 137.165 133.448 135.66 126.776 133.441C120.354 131.316 114.344 128.54 109.443 125.243C109.334 125.176 109.235 125.098 109.156 125.02C101.61 119.202 98.9273 106.91 99.5158 98.5247C99.6929 96.0976 100.136 93.9414 100.818 92.2747C101.719 90.0872 103.099 88.5976 104.922 88.1341C106.828 87.6601 108.823 88.3268 110.807 90.4674C116.104 96.2383 122.031 101.014 128.422 105.072C134.844 109.145 141.745 112.478 148.943 115.316L149.068 115.379C154.62 117.582 158.438 119.582 160.912 121.561C163.927 123.957 165.177 126.4 165.162 129.077C165.162 129.348 165.146 129.603 165.13 129.837C164.927 131.993 163.896 134.202 161.391 135.816C159.297 137.181 156.094 138.087 151.37 138.066C150.115 138.02 148.75 137.957 147.276 137.816ZM128.453 128.348C134.75 130.441 141.459 131.853 147.787 132.473C149.115 132.598 150.323 132.66 151.401 132.66C154.969 132.676 157.172 132.124 158.474 131.28C159.36 130.712 159.724 129.983 159.787 129.316L159.802 129.046C159.802 128.077 159.151 127.014 157.568 125.764C155.49 124.113 152.13 122.368 147.089 120.374L146.959 120.327C139.474 117.374 132.276 113.889 125.537 109.624C118.781 105.342 112.49 100.249 106.844 94.1133C106.365 93.6081 106.271 93.3529 106.24 93.3529C106.209 93.3685 106.047 93.7174 105.797 94.306C105.334 95.431 105.021 97.0143 104.891 98.8893C104.401 105.941 106.479 116.155 112.438 120.754L112.453 120.77C116.959 123.816 122.526 126.384 128.453 128.348Z" fill="#1C1D29"/>
<path fill-rule="evenodd" clip-rule="evenodd" d="M147.531 135.134C134.828 133.916 120.589 129.504 110.948 123.004C98.375 113.588 100.687 83.4418 108.807 92.2907C119.734 104.197 133.245 112.015 147.927 117.822C158.646 122.056 162.484 125.4 162.469 129.046C162.469 132.411 159.531 136.296 147.531 135.134Z" fill="#384357"/>
<path fill-rule="evenodd" clip-rule="evenodd" d="M140.76 134.218C130.453 132.457 117.354 128.03 110.948 123.004C98.375 113.588 100.703 83.4418 108.807 92.2907C118.021 102.312 129.042 109.447 141.062 114.905C131.594 115.9 132.958 130.619 140.76 134.218Z" fill="#263042"/>
<path d="M86.8801 161.582L167.713 68.3631C168.792 67.1288 170.302 66.5246 171.885 66.5558C173.281 66.5715 174.755 67.1079 175.927 68.1392L196.89 86.311C198.083 87.3423 198.812 88.7225 199.031 90.1027C199.286 91.6704 198.906 93.259 197.828 94.4777L116.151 188.702C114.182 190.967 110.599 191.045 106.396 189.332C103.114 188.004 99.1822 185.53 95.3957 182.228C91.5884 178.931 88.5728 175.379 86.7967 172.337C84.5155 168.42 84.0728 164.853 86.0363 162.598L86.8801 161.582ZM171.917 72.4204L90.4322 166.405C90.302 166.545 90.8436 167.676 91.8436 169.368C93.3332 171.936 95.9165 174.952 99.1978 177.806C102.5 180.66 105.844 182.785 108.588 183.91C110.411 184.655 111.599 185.035 111.724 184.879L193.213 90.8944C193.182 90.8475 193.135 90.785 193.073 90.7225L172.109 72.5506C172.047 72.5038 171.979 72.4517 171.917 72.4204Z" fill="#1C1D29"/>
<path fill-rule="evenodd" clip-rule="evenodd" d="M89.0833 163.504L169.922 70.28C170.87 69.1863 172.724 69.2175 174.026 70.3477L194.99 88.5196C196.292 89.6446 196.588 91.4832 195.641 92.5769L114.802 185.796C114.516 186.129 114.229 186.462 113.948 186.796C111.854 189.207 104.401 186.176 97.2968 180.025C90.1926 173.874 86.1353 166.926 88.2239 164.504C88.5103 164.171 88.7968 163.837 89.0833 163.504Z" fill="#EBA50E"/>
<path fill-rule="evenodd" clip-rule="evenodd" d="M188.489 82.8896L193.958 87.6292C195.26 88.7542 195.562 90.5928 194.609 91.6865L114.437 184.15C114.151 184.483 113.864 184.817 113.583 185.15C112.01 186.957 107.427 185.702 102.245 182.374L188.489 82.8896Z" fill="#C77914"/>
<path fill-rule="evenodd" clip-rule="evenodd" d="M89.0836 163.504L169.922 70.28C170.87 69.1863 172.724 69.2175 174.026 70.3477L175.5 71.6134L89.37 170.957C87.6877 168.103 87.1617 165.723 88.2242 164.504C88.5107 164.171 88.7971 163.837 89.0836 163.504Z" fill="#F2E827"/>
<path d="M168.016 67.9991C169.854 65.8897 173.328 66.0147 177.469 67.9366C180.625 69.4106 184.443 71.9314 188.187 75.1814L186.286 77.3845L188.187 75.197C191.943 78.4627 194.99 81.8741 196.875 84.7752C199.365 88.5981 200 92.0199 198.161 94.1293H198.177C196.338 96.2387 192.865 96.1137 188.724 94.1762C185.588 92.7179 181.766 90.1814 178.005 86.9314V86.947C174.266 83.697 171.219 80.2699 169.318 77.3533C166.797 73.5304 166.177 70.1085 168.016 67.9991ZM175.042 73.2335C173.375 72.4522 172.521 71.7543 172.458 71.8533C172.38 71.9314 173.187 72.6762 174.203 74.2127C175.802 76.6554 178.469 79.6397 181.828 82.5408L179.927 84.7439L181.828 82.5564C185.172 85.4574 188.49 87.6606 191.167 88.9158C192.833 89.6918 193.672 90.3741 193.75 90.2908H193.771C193.849 90.2127 193.036 89.4679 192.026 87.9314C190.422 85.4574 187.745 82.4939 184.411 79.5877V79.6085C181.005 76.671 177.687 74.4522 175.042 73.2335Z" fill="#1C1D29"/>
<path fill-rule="evenodd" clip-rule="evenodd" d="M170.219 69.916C171.979 67.89 179.166 71.2337 186.265 77.3848C193.37 83.541 197.703 90.1817 195.942 92.2129C194.182 94.2442 187 90.8952 179.896 84.7442C172.791 78.5931 168.463 71.9473 170.219 69.916Z" fill="#C77914"/>
<path fill-rule="evenodd" clip-rule="evenodd" d="M170.219 69.916C171.979 67.89 179.167 71.2337 186.266 77.3848C188.219 79.0827 189.979 80.8119 191.438 82.4785C192.563 84.5358 192.88 86.1712 192.151 87.0098C190.391 89.041 183.208 85.6973 176.104 79.541C174.151 77.8483 172.396 76.1192 170.932 74.4525C169.807 72.39 169.49 70.7598 170.219 69.916Z" fill="#EBA50E"/>
<path d="M176.01 72.5359L180.052 67.8745C180.75 67.062 182.255 67.2078 183.396 68.2078L195.781 78.9422C196.922 79.937 197.286 81.4161 196.573 82.2234L196.448 82.3484L192.151 87.2964C191.958 87.5203 191.708 87.6609 191.422 87.7547C190.265 88.2182 188.536 87.9005 186.583 86.9318C184.969 86.1401 183.047 84.838 181.177 83.2391C179.307 81.6193 177.771 79.9057 176.755 78.4161C175.469 76.5307 174.917 74.8016 175.297 73.5828C175.344 73.3901 175.422 73.2339 175.515 73.088C175.578 72.9786 175.646 72.8849 175.708 72.8016C175.818 72.7078 175.896 72.6297 176.01 72.5359ZM182.906 72.963L180.021 76.2911C180.099 76.3693 180.354 76.4995 180.609 76.8797C181.292 77.8797 182.385 79.0828 183.76 80.2703C185.14 81.463 186.489 82.3797 187.568 82.9214C188.026 83.1401 188.172 83.4109 188.25 83.4266L191.135 80.0984L182.906 72.963Z" fill="#1C1D29"/>
<path fill-rule="evenodd" clip-rule="evenodd" d="M177.974 74.4681L182.13 69.6816L194.516 80.4316L190.235 85.3639L190.104 85.5046L190.089 85.4889C189.042 86.1712 185.745 84.5671 182.495 81.7493C179.245 78.9264 177.198 75.8952 177.719 74.7546C177.771 74.6452 177.865 74.5462 177.974 74.4681Z" fill="#263042"/>
<path d="M179.781 68.1401C180.781 66.9838 182.781 67.1088 185.187 68.239C186.87 69.0151 188.901 70.364 190.896 72.088C192.88 73.8172 194.5 75.6401 195.51 77.1974C196.974 79.4161 197.37 81.3797 196.37 82.5255C195.37 83.6817 193.37 83.5567 190.963 82.4265C189.281 81.6505 187.25 80.3015 185.255 78.5776C183.286 76.864 181.656 75.0411 180.64 73.4682C179.182 71.2494 178.781 69.2859 179.781 68.1401ZM184.031 71.838C184 71.739 184 71.6765 183.937 71.7547C183.875 71.8224 183.937 71.8224 184.031 71.838ZM188.328 75.0255C187.109 73.9786 185.916 73.1349 184.906 72.5828C185.588 73.4994 186.583 74.5619 187.807 75.6244C189.026 76.6713 190.219 77.5151 191.229 78.0672C190.547 77.1349 189.536 76.0724 188.328 75.0255ZM192.182 78.8953C192.245 78.8119 192.182 78.8119 192.088 78.7963C192.12 78.9109 192.12 78.9734 192.182 78.8953Z" fill="#1C1D29"/>
<path fill-rule="evenodd" clip-rule="evenodd" d="M181.859 69.9317C182.719 68.9526 186.172 70.5672 189.599 73.5307C193.021 76.4994 195.115 79.7026 194.26 80.6869C193.401 81.6661 189.948 80.0515 186.521 77.0828C183.099 74.1192 181.005 70.9161 181.859 69.9317Z" fill="#384357"/>
<path d="M35.328 90.6079C42.0675 90.9569 49.2342 92.1496 56.005 94.0662C62.4894 95.9048 68.6248 98.4256 73.6717 101.504L73.7811 101.582C81.7238 106.988 84.9894 119.28 84.755 127.764C84.6925 130.202 84.3436 132.379 83.7394 134.071C82.9321 136.311 81.63 137.863 79.8228 138.4C77.953 138.957 75.9217 138.384 73.8436 136.327C68.3123 130.806 62.1717 126.285 55.6092 122.514C49.0103 118.722 41.9738 115.712 34.6613 113.191C28.953 111.222 25.005 109.368 22.4061 107.483C19.2811 105.228 17.9321 102.821 17.8228 100.139C17.8071 99.8839 17.8071 99.6496 17.8228 99.41V99.3944C17.9321 97.2381 18.8696 94.9881 21.2967 93.2589C23.3228 91.8162 26.479 90.7537 31.2238 90.5767C32.4894 90.5142 33.854 90.5298 35.328 90.6079ZM54.5467 99.2537C48.1561 97.4464 41.3853 96.3162 35.0571 95.9829C33.7134 95.9204 32.505 95.9048 31.4269 95.9517C27.8748 96.0975 25.6873 96.7485 24.4373 97.6496C23.578 98.2694 23.2446 98.9985 23.2134 99.6808V99.9673C23.2446 100.931 23.9582 101.946 25.578 103.118C27.7342 104.676 31.2238 106.29 36.4217 108.082C44.0363 110.717 51.3748 113.874 58.3071 117.837C65.2498 121.816 71.7498 126.618 77.6665 132.504C78.1561 132.993 78.2707 133.249 78.3019 133.233C78.3332 133.217 78.4738 132.868 78.6978 132.264C79.1092 131.108 79.3488 129.504 79.4113 127.65C79.5988 120.545 77.0467 110.353 70.8019 106.071C66.1873 103.249 60.5415 100.946 54.5467 99.2537Z" fill="#1C1D29"/>
<path fill-rule="evenodd" clip-rule="evenodd" d="M35.1876 93.2905C47.9324 93.9571 62.3491 97.728 72.2605 103.801C85.2293 112.65 84.2293 142.874 75.7449 134.405C64.297 122.988 50.4741 115.775 35.5366 110.624C24.6251 106.863 20.6616 103.676 20.5209 100.03C20.3907 96.6811 23.1511 92.6707 35.1876 93.2905Z" fill="#384357"/>
<path fill-rule="evenodd" clip-rule="evenodd" d="M41.9897 93.9258C52.3595 95.2227 65.6304 99.0768 72.2606 103.801C85.2293 112.65 84.2293 142.874 75.745 134.405C66.1043 124.796 54.7866 118.155 42.5262 113.223C51.9481 111.811 49.9481 97.1758 41.9897 93.9258Z" fill="#263042"/>
<path d="M69.5626 102.056C68.5157 105.577 67.6147 112.051 66.9636 119.978C66.2501 128.775 65.8543 139.197 65.9168 149.202C65.9168 149.582 65.8386 149.931 65.6928 150.264C63.7136 154.91 61.7293 159.874 59.9845 164.994C58.2553 170.067 56.7814 175.285 55.7814 180.468C55.1043 184.051 55.2136 186.431 55.8491 187.827C56.1147 188.416 56.4949 188.764 56.9272 188.905C57.5418 189.113 58.3855 189.03 59.3491 188.749C62.0626 187.936 65.2657 185.593 67.9793 182.311C71.1824 178.426 74.2709 174.843 77.5886 171.509C80.948 168.134 84.5626 165.025 88.797 162.155C89.2553 161.853 89.7657 161.697 90.2709 161.697C90.5418 161.697 91.8126 161.395 93.047 161.108C94.3959 160.791 95.6928 160.488 96.4741 160.457C96.9168 160.442 97.3595 160.52 97.7397 160.697C103.875 163.535 109.141 166.863 113.818 170.577C118.464 174.285 122.511 178.395 126.203 182.832C128.011 184.988 129.802 186.322 131.354 186.78C132.021 186.973 132.594 186.988 133.021 186.811C133.432 186.655 133.797 186.275 134.099 185.686C134.813 184.322 135.083 182.087 134.734 178.931C134.208 174.254 132.688 168.561 130.865 163.249C128.677 156.889 126.094 151.197 124.318 148.551C123.953 148.009 123.807 147.379 123.87 146.775C124.156 138.593 123.969 131.046 123.078 123.291C122.24 115.822 120.75 108.15 118.432 99.4728C113.438 96.9051 102.182 95.603 91.3334 96.1916C82.1355 96.6968 73.448 98.5249 69.5626 102.056ZM61.5886 119.551C62.3022 110.764 63.3647 103.52 64.6459 99.7436C64.7761 99.3791 64.9793 99.0301 65.2657 98.7436C69.9584 93.8582 80.3282 91.4207 91.0782 90.8478C103.417 90.1811 116.578 91.9728 122.031 95.353C122.667 95.6863 123.177 96.2697 123.38 97.0301C125.917 106.374 127.552 114.65 128.453 122.733C129.344 130.504 129.547 138.103 129.281 146.317C131.245 149.52 133.828 155.275 135.984 161.52C137.922 167.134 139.537 173.238 140.109 178.363C140.583 182.645 140.078 185.91 138.906 188.176C137.984 189.968 136.651 191.186 135.037 191.822C133.464 192.457 131.703 192.488 129.865 191.968C127.328 191.223 124.583 189.301 122.063 186.291C118.609 182.15 114.818 178.296 110.458 174.811C106.287 171.478 101.609 168.499 96.1876 165.931C95.6928 166.025 94.9636 166.197 94.2345 166.374C93.1876 166.613 92.1095 166.863 91.2553 166.994C87.5939 169.53 84.4064 172.306 81.3907 175.317C78.1876 178.52 75.2241 181.994 72.1303 185.733C68.7553 189.827 64.5678 192.822 60.8751 193.916C58.8907 194.504 56.9741 194.567 55.2761 194.025C53.4064 193.426 51.9011 192.155 50.948 190.093C49.8543 187.718 49.5678 184.244 50.4897 179.473C51.5366 174.03 53.073 168.561 54.8803 163.28C56.6095 158.223 58.5574 153.291 60.5261 148.676C60.4949 138.546 60.8751 128.207 61.5886 119.551Z" fill="#1C1D29"/>
<path fill-rule="evenodd" clip-rule="evenodd" d="M67.1982 100.598C64.7607 107.832 63.1096 129.176 63.219 149.202C59.1929 158.603 55.1825 169.321 53.1357 179.962C49.995 196.342 62.2242 193.519 70.0523 184.019C76.3492 176.394 82.1669 169.91 90.2867 164.389C91.4117 164.374 95.4742 163.217 96.5992 163.155C108.443 168.639 116.959 175.983 124.125 184.577C130.912 192.712 138.808 191.269 137.412 178.66C136.209 167.879 130.042 152.228 126.552 147.077C127.156 130.285 125.776 116.202 120.75 97.7277C111.724 91.8788 76.3179 91.134 67.1982 100.598Z" fill="#384357"/>
<path fill-rule="evenodd" clip-rule="evenodd" d="M63.2189 149.025V149.218C59.1929 158.619 55.1825 169.338 53.1356 179.979C52.1044 185.385 52.7398 188.702 54.3231 190.364C52.0731 181.15 62.0627 157.13 67.4377 149.01L63.2189 149.025Z" fill="#697791"/>
<path fill-rule="evenodd" clip-rule="evenodd" d="M56.0679 191.442C59.7345 192.666 65.6147 189.432 70.0731 184.02C75.3491 177.63 80.2814 172.036 86.5314 167.135L80.5366 167.624C68.4845 174.937 64.2189 191.208 56.0679 191.442Z" fill="#263042"/>
<path fill-rule="evenodd" clip-rule="evenodd" d="M97.5835 163.598C108.938 169.036 117.182 176.203 124.141 184.562C130.927 192.697 138.823 191.255 137.427 178.645C136.891 173.749 135.307 167.848 133.432 162.38C138.078 176.031 127.63 181.833 120.735 175.14C115.406 169.973 108.87 162.963 104.479 161.822C102.37 161.286 99.6408 162.395 97.5835 163.598Z" fill="#263042"/>
<path fill-rule="evenodd" clip-rule="evenodd" d="M126.11 126.285C125.297 117.311 123.62 108.228 120.766 97.7277C112.948 92.6548 85.3543 91.4204 72.1772 97.3163C70.6408 98.3007 68.2606 99.5507 67.1981 100.582C66.6147 102.217 66.2658 103.978 65.771 106.848C72.5627 114.618 84.2918 121.545 97.4533 124.957C106.828 127.384 112.787 127.431 121.448 126.842C122.62 126.78 124.255 126.571 126.11 126.285Z" fill="#263042"/>
<path d="M79.854 97.0618C78.1873 97.3951 76.2394 97.8274 74.4321 98.2857C73.953 98.4107 73.479 98.541 73.0363 98.666C75.828 102.077 78.6977 105.374 81.6613 108.546C84.9269 112.067 88.3384 115.458 91.828 118.77L97.1352 114.775C93.8852 112.145 90.828 109.432 88.0207 106.609C84.9425 103.551 82.1873 100.364 79.854 97.0618ZM73.2759 94.0826C75.6509 93.4785 78.3019 92.9264 80.2498 92.5618C81.1248 92.3378 82.0884 92.6868 82.63 93.4785C84.9582 96.9837 87.8123 100.333 91.0623 103.583C94.3332 106.848 98.0415 110.036 102.036 113.176C102.182 113.286 102.323 113.426 102.432 113.588C103.161 114.557 102.989 115.916 102.036 116.629L93.0623 123.385C92.2394 124.004 91.0467 123.958 90.2707 123.213C86.229 119.421 82.3123 115.536 78.5519 111.51C74.7655 107.437 71.1509 103.249 67.755 98.9524C67.6457 98.8066 67.5467 98.666 67.4842 98.4889C66.979 97.3951 67.453 96.1139 68.5311 95.6191C69.7082 95.0826 71.4321 94.5566 73.2759 94.0826Z" fill="#1C1D29"/>
<path fill-rule="evenodd" clip-rule="evenodd" d="M80.8229 94.6709C77.4896 95.2855 71.9427 96.4782 69.4219 97.6032C76.1927 106.181 83.6927 114.14 91.7135 121.624C94.7135 119.374 97.6927 117.124 100.688 114.869C92.6198 108.546 85.6406 101.9 80.8229 94.6709Z" fill="#961818"/>
<path d="M65.4271 142.067C65.4063 143.255 65.4063 144.442 65.4063 145.635C75.5104 141.192 85.151 136.468 94.2344 130.932C103.891 125.052 112.979 118.234 121.448 109.843L121 107.718C120.651 105.973 120.286 104.197 119.844 102.406C111.458 111.463 102.672 119.01 93.5677 125.479C84.4219 131.979 75.0156 137.375 65.4271 142.067ZM61.0625 146.807C61.0469 144.776 61.0469 142.718 61.0938 140.734C61.0781 139.911 61.5417 139.114 62.3333 138.734C72.1458 133.994 81.7552 128.557 91.0313 121.942C100.307 115.348 109.266 107.578 117.797 98.1922C118.198 97.7599 118.766 97.4787 119.401 97.4787H121.255C122.224 97.4474 123.141 98.062 123.411 99.0464C124.188 101.729 124.729 104.343 125.25 106.864C125.474 107.958 125.698 109.02 125.901 109.989C126.094 110.718 125.917 111.526 125.349 112.098C116.37 121.135 106.745 128.411 96.4896 134.661C86.276 140.875 75.5104 146.062 64.1875 150.932C63.901 151.072 63.5833 151.151 63.2344 151.151C62.0313 151.151 61.0469 150.166 61.0469 148.963C61.0625 146.286 61.0625 147.062 61.0625 146.807Z" fill="#1C1D29"/>
<path fill-rule="evenodd" clip-rule="evenodd" d="M63.2654 140.687C63.1873 143.395 63.2342 146.218 63.2342 148.947C85.8019 139.26 106.13 128.348 123.807 110.541C123.031 107.088 122.427 103.39 121.333 99.6348C120.703 99.6348 120.052 99.6348 119.416 99.6504C102.13 118.676 83.0883 131.124 63.2654 140.687Z" fill="#D62727"/>
<path fill-rule="evenodd" clip-rule="evenodd" d="M104.906 126.525C111.505 121.848 117.812 116.598 123.807 110.557V110.541C123.573 109.463 123.349 108.354 123.109 107.229C122.573 104.77 121.953 102.249 121.271 99.6504H119.401C110.838 109.067 101.864 116.869 92.5571 123.515C94.1561 124.051 95.7915 124.531 97.4373 124.958C100.167 125.671 102.609 126.176 104.906 126.525Z" fill="#961818"/>
<path fill-rule="evenodd" clip-rule="evenodd" d="M62.0781 142.161C62.0625 144.937 62.0313 148.327 62 151.104C82.9323 156.239 104.703 155.322 127.266 148.343C127.422 146.124 127.438 141.432 127.599 139.213C107.745 144.364 84.7396 147.109 62.0781 142.161Z" fill="#1C1D29"/>
<path fill-rule="evenodd" clip-rule="evenodd" d="M9.30713 61.2282C19.8071 65.9365 28.6665 57.5667 36.8332 43.4365C38.1978 45.6553 39.4998 50.9521 37.2446 54.6449C32.1405 63.0355 18.9321 74.499 10.8123 72.249C11.2446 68.7751 10.5623 66.0824 9.30713 61.2282Z" fill="#1C1D29"/>
<mask id="mask0_1313_2996" style="mask-type:luminance" maskUnits="userSpaceOnUse" x="0" y="34" width="40" height="26">
<path d="M0 34.3584H39.3333V59.6917H0V34.3584Z" fill="white"/>
</mask>
<g mask="url(#mask0_1313_2996)">
<path fill-rule="evenodd" clip-rule="evenodd" d="M4.32813 34.6348C12.8594 42.1504 25.8646 33.4941 37.5313 47.0202C40.3854 50.3171 39.0885 55.6921 36.7552 58.8327C27.1615 37.3327 13.099 55.3118 0 48.0202C2.48958 44.4681 4.14063 39.6452 4.32813 34.6348Z" fill="#1C1D29"/>
</g>
<path d="M147.088 14.5927C151.526 19.9677 154.937 37.8688 154.937 55.3427C154.922 69.5354 152.698 83.6969 147.021 91.0563C146.958 91.1344 146.911 91.1969 146.849 91.2594C138.161 100.379 116.818 105.593 95.4427 106.405C74.0677 107.228 52.3906 103.676 43.0364 95.2542C42.9375 95.176 42.8593 95.0979 42.7968 95.0042C36.5989 88.0719 33.2968 74.1656 32.2031 60.0563C30.8437 42.4833 32.9166 24.2021 37.0104 18.6708C37.0729 18.5875 37.1354 18.5094 37.1979 18.4469L37.2968 18.3375C47.6822 7.17084 69.4843 0.941669 91.3645 0.09792C113.25 -0.740623 135.448 3.79584 146.656 14.1188L146.755 14.2125C146.88 14.3531 146.99 14.4677 147.088 14.5927ZM149.625 55.3427C149.641 38.9469 146.771 22.551 143.042 18.0354C132.896 8.69688 112.172 4.61875 91.5416 5.41042C70.9114 6.2073 50.5833 11.8479 41.1822 21.9521C37.8177 26.7229 36.2187 43.3115 37.4843 59.676C38.5 72.7385 41.3697 85.426 46.6822 91.4208C55.0364 98.8219 75.1458 101.9 95.25 101.14C115.344 100.364 135.161 95.749 142.917 87.7229C147.719 81.3167 149.625 68.4417 149.625 55.3427Z" fill="#1C1D29"/>
<path fill-rule="evenodd" clip-rule="evenodd" d="M144.964 16.197C152.417 24.7907 156.807 74.0408 144.912 89.4522C128.537 106.64 62.4585 109.197 44.7971 93.3064C31.745 78.8428 32.3648 29.421 39.12 20.2699C58.8283 -1.13633 123.651 -3.62592 144.964 16.197Z" fill="#384357"/>
<path fill-rule="evenodd" clip-rule="evenodd" d="M95.3283 103.77C74.5575 104.567 53.6252 101.233 44.7971 93.2907C31.745 78.8271 32.3648 29.4053 39.12 20.2542C49.1877 9.31152 71.0523 3.32194 92.8544 2.71777C77.3648 5.01465 62.2867 10.0251 50.2502 17.2074C44.3648 20.7282 42.7658 21.5563 41.0835 28.4834C36.5835 47.098 38.7085 67.0771 44.0523 82.7751C46.4117 89.723 47.094 91.6709 53.594 94.6709C65.4585 100.14 79.521 102.442 95.3283 103.77Z" fill="#697791"/>
<path fill-rule="evenodd" clip-rule="evenodd" d="M144.963 16.1966C152.417 24.7904 156.807 74.0404 144.911 89.4518C141.693 92.832 136.573 95.6185 130.276 97.8425C148.672 73.0872 148.864 25.2799 115.323 4.11328C127.614 6.0612 138.364 10.056 144.963 16.1966Z" fill="#263042"/>
<path d="M153.62 41.1087C151.526 56.041 141.203 66.9369 127.359 73.6296C117.594 78.3379 106.067 80.9525 94.4581 81.4004C82.8487 81.8431 71.1665 80.1296 61.0623 76.1816C46.6821 70.5671 35.5362 60.4369 32.3487 45.6087C32.1092 44.4525 32.8383 43.3119 33.9946 43.0566C34.3123 42.9941 34.63 42.9941 34.9321 43.0723C56.6092 48.1296 74.9998 50.3639 93.255 49.6712C111.489 48.9733 129.646 45.3223 150.875 38.6191C152 38.2546 153.224 38.8848 153.573 40.0098C153.682 40.3744 153.698 40.7598 153.62 41.1087ZM125.489 69.7598C137.062 64.1764 145.911 55.4577 148.75 43.7546C128.63 49.89 111.094 53.2546 93.3956 53.9316C75.729 54.6139 57.9894 52.6035 37.4373 48.0358C41.1612 59.4837 50.6612 67.4941 62.6196 72.1712C72.1612 75.8952 83.2654 77.5306 94.281 77.0983C105.333 76.6869 116.26 74.2129 125.489 69.7598Z" fill="#1C1D29"/>
<path fill-rule="evenodd" clip-rule="evenodd" d="M151.526 40.6602C144.912 89.4518 44.797 93.306 34.4585 45.1654C78.172 55.3633 108.714 54.1862 151.526 40.6602Z" fill="#263042"/>
<path fill-rule="evenodd" clip-rule="evenodd" d="M135.766 66.082C113.964 82.3477 75.1303 83.8372 52.1199 69.3008C47.9168 64.7018 44.7814 56.1081 47.4116 47.9102C86.7345 53.6185 97.9637 54.9622 137.651 45.9727C139.886 52.1758 137.208 62.9727 135.766 66.082Z" fill="#FACF89"/>
<path fill-rule="evenodd" clip-rule="evenodd" d="M46.4585 53.2174C46.5418 51.4622 46.8387 49.6862 47.396 47.9102C86.7189 53.6185 97.9481 54.9622 137.636 45.9727C138.208 47.5612 138.458 49.431 138.49 51.4102C106.495 62.2747 75.745 62.9727 46.4585 53.2174Z" fill="#F5986A"/>
<path fill-rule="evenodd" clip-rule="evenodd" d="M71.5467 55.2801C76.2082 55.1082 80.1561 59.6915 80.3749 65.5092C80.5988 71.3426 77.0155 76.2124 72.354 76.3842C67.6926 76.5613 63.7447 71.978 63.5207 66.1603C63.3019 60.3374 66.9009 55.4728 71.5467 55.2801Z" fill="#1C1D29"/>
<path fill-rule="evenodd" clip-rule="evenodd" d="M74.0051 58.5456C75.7812 58.4831 77.2864 60.2279 77.3801 62.4466C77.4583 64.6706 76.0937 66.5404 74.3176 66.6029C72.5416 66.6654 71.0364 64.9206 70.9426 62.7018C70.8645 60.4831 72.2291 58.6289 74.0051 58.5456Z" fill="white"/>
<path d="M151.318 27.3742C151.828 29.4367 152.287 31.7023 152.682 34.0981C153.078 36.5096 153.427 39.0929 153.714 41.7856C153.823 42.8325 153.146 43.7856 152.162 44.0721C130.958 50.9054 110.49 54.52 90.797 54.8533C71.0365 55.1867 52.0574 52.2231 33.8855 45.8638C32.948 45.5461 32.3959 44.6398 32.4584 43.7075C32.5365 42.1711 32.6147 40.7388 32.7292 39.4575C32.8386 38.0617 32.9845 36.6971 33.1407 35.4158C33.2813 34.2388 34.3438 33.4002 35.5209 33.5252L35.7084 33.5565C53.6095 35.8117 71.7813 37.0148 90.4792 36.0773C109.188 35.145 128.438 32.0513 148.547 25.6919C149.672 25.3273 150.891 25.9627 151.24 27.0877C151.271 27.2023 151.302 27.2804 151.318 27.3742ZM148.448 34.7961C148.198 33.2908 147.927 31.8638 147.641 30.4992C127.979 36.5096 109.094 39.4575 90.698 40.3742C72.4324 41.2804 54.672 40.1867 37.1824 38.0617C37.1199 38.6346 37.073 39.2179 37.0261 39.8065C36.9636 40.6763 36.8959 41.52 36.849 42.3429C54.0886 48.1606 72.0522 50.8898 90.7501 50.5721C109.521 50.2544 129.026 46.8794 149.276 40.5044C149.021 38.52 148.75 36.619 148.448 34.7961Z" fill="#1C1D29"/>
<path fill-rule="evenodd" clip-rule="evenodd" d="M149.193 27.7539C150.208 31.8268 151.021 36.7279 151.573 41.9935C109.505 55.5508 70.4689 56.3737 34.5991 43.832C34.7241 40.9466 34.9637 38.2018 35.2658 35.6654C71.4325 40.2174 108.636 40.582 149.193 27.7539Z" fill="#1C1D29"/>
<path fill-rule="evenodd" clip-rule="evenodd" d="M113.849 54.3478C109.188 54.3791 105.448 59.1343 105.479 64.952C105.51 70.7905 109.318 75.4989 113.979 75.4676C118.641 75.4364 122.38 70.6759 122.349 64.8582C122.318 59.0249 118.51 54.3166 113.849 54.3478Z" fill="#1C1D29"/>
<path fill-rule="evenodd" clip-rule="evenodd" d="M111.552 57.7228C109.776 57.7384 108.349 59.5457 108.349 61.7853C108.365 64.0196 109.823 65.8113 111.599 65.7957C113.375 65.7801 114.802 63.9728 114.802 61.7332C114.787 59.4988 113.328 57.7071 111.552 57.7228Z" fill="white"/>
<path fill-rule="evenodd" clip-rule="evenodd" d="M105.589 161.03C100.833 165.499 87.3075 167.817 80.5366 167.624C85.4533 164.551 99.6252 161.489 105.589 161.03Z" fill="#1C1D29"/>
<path d="M11.6248 104.088H53.5467C54.2134 104.088 54.8332 104.374 55.2759 104.817L55.2915 104.833C55.7498 105.296 56.0363 105.942 56.0363 106.64V175.333C56.0363 176.046 55.7498 176.682 55.2915 177.14L55.2759 177.156C54.8332 177.598 54.2134 177.885 53.5467 177.885H11.6248C10.9582 177.885 10.3384 177.598 9.89567 177.156L9.88005 177.14C9.4165 176.682 9.13525 176.031 9.13525 175.333V106.64C9.13525 105.926 9.4165 105.296 9.88005 104.833L9.89567 104.817C10.354 104.359 10.9738 104.088 11.6248 104.088ZM51.6144 108.656H13.5728V173.317H51.6144V108.656Z" fill="#1C1D29"/>
<path fill-rule="evenodd" clip-rule="evenodd" d="M11.6248 106.374H53.5467C53.6925 106.374 53.8175 106.499 53.8175 106.64V175.332C53.8175 175.473 53.6925 175.603 53.5467 175.603H11.6248C11.479 175.603 11.354 175.473 11.354 175.332V106.64C11.3696 106.483 11.479 106.374 11.6248 106.374Z" fill="#FFCC00"/>
<path fill-rule="evenodd" clip-rule="evenodd" d="M11.6248 106.374H34.4113C14.9373 126.937 19.1405 162.978 34.7915 175.603H11.6248C11.479 175.603 11.354 175.473 11.354 175.332V106.64C11.3696 106.483 11.479 106.374 11.6248 106.374Z" fill="#EBA50E"/>
<path d="M15.9689 104.437H49.2189C49.646 104.437 50.0575 104.629 50.3752 104.947C50.771 105.343 51.0262 105.91 51.0262 106.577V167.515C51.0262 168.166 50.771 168.739 50.3752 169.134C50.0575 169.452 49.646 169.64 49.2033 169.64H15.9533C15.5262 169.64 15.1095 169.452 14.7918 169.134C14.396 168.739 14.146 168.15 14.146 167.499V106.562C14.146 105.91 14.396 105.327 14.7918 104.931C15.1252 104.629 15.5418 104.437 15.9689 104.437ZM47.8387 108.291H17.3647V165.801H47.8387V108.291Z" fill="#1C1D29"/>
<path fill-rule="evenodd" clip-rule="evenodd" d="M15.9686 106.374H49.2186C49.328 106.374 49.4269 106.468 49.4269 106.577V167.515C49.4269 167.624 49.328 167.723 49.2186 167.723H15.9686C15.854 167.723 15.7603 167.624 15.7603 167.515V106.577C15.7603 106.468 15.854 106.374 15.9686 106.374Z" fill="white"/>
<path fill-rule="evenodd" clip-rule="evenodd" d="M15.9686 106.374H34.4113C18.1092 123.593 18.3957 151.66 28.1144 167.739H15.9686C15.854 167.739 15.7603 167.64 15.7603 167.53V106.593C15.7603 106.468 15.854 106.374 15.9686 106.374Z" fill="#C7D3DE"/>
<path d="M9.38542 104.057H55.2292C56.1146 104.057 56.9427 104.421 57.526 105.025C58.1302 105.624 58.4948 106.452 58.4948 107.354V116.015C58.4948 116.916 58.1302 117.739 57.526 118.343C56.9271 118.947 56.1146 119.312 55.2292 119.312H8.89583C7.27604 119.312 6.01042 118.171 5.26562 116.312C4.75521 115.077 4.45312 113.442 4.45312 111.702C4.45312 109.958 4.77083 108.307 5.26562 107.088C6.01042 105.229 7.27604 104.088 8.89583 104.088H9.38542V104.057ZM53.9271 108.671H9.22917L9.40104 108.749C9.46875 108.765 9.5 108.765 9.5 108.781C9.21354 109.463 9.05208 110.479 9.05208 111.666C9.05208 112.859 9.22917 113.874 9.5 114.557C9.5 114.572 9.46875 114.588 9.40104 114.588L9.22917 114.666H53.9271V108.671ZM8.89583 114.666H9.22917L9.40104 114.588C9.16667 114.635 8.54687 114.666 8.89583 114.666ZM8.89583 108.671C8.5625 108.671 9.16667 108.702 9.40104 108.749L9.22917 108.671H8.89583Z" fill="#1C1D29"/>
<path fill-rule="evenodd" clip-rule="evenodd" d="M9.38558 106.374H55.2293C55.7658 106.374 56.2137 106.817 56.2137 107.353V116.015C56.2137 116.551 55.7658 116.994 55.2293 116.994H9.38558C9.22933 116.994 9.06787 116.994 8.896 116.994C7.7085 116.994 6.73975 114.619 6.73975 111.681C6.73975 108.749 7.7085 106.374 8.896 106.374C9.05225 106.374 9.2137 106.374 9.38558 106.374Z" fill="#EBA50E"/>
<path fill-rule="evenodd" clip-rule="evenodd" d="M56.2137 109.687V113.666H6.896C6.80225 113.046 6.73975 112.379 6.73975 111.681C6.73975 110.989 6.80225 110.306 6.896 109.702H56.2137V109.687Z" fill="#F2E827"/>
<path d="M55.2293 104.057C56.8595 104.057 58.146 105.197 58.8908 107.051C59.3856 108.275 59.6981 109.911 59.6981 111.666C59.6981 113.426 59.4012 115.062 58.8908 116.281C58.146 118.14 56.8595 119.281 55.2293 119.281C53.5939 119.281 52.3127 118.14 51.5679 116.281C51.0731 115.062 50.7554 113.426 50.7554 111.666C50.7554 109.911 51.0575 108.275 51.5679 107.051C52.3127 105.197 53.5939 104.057 55.2293 104.057ZM55.2293 108.687C55.3387 108.671 55.3856 108.671 55.2293 108.671C55.0679 108.671 55.12 108.687 55.2293 108.687ZM55.2293 114.666C55.3856 114.666 55.3387 114.666 55.2293 114.65C55.12 114.666 55.0679 114.666 55.2293 114.666Z" fill="#1C1D29"/>
<path fill-rule="evenodd" clip-rule="evenodd" d="M55.229 106.374C56.4165 106.374 57.3853 108.749 57.3853 111.681C57.3853 114.619 56.4165 116.994 55.229 116.994C54.0415 116.994 53.0728 114.619 53.0728 111.681C53.0728 108.733 54.0415 106.374 55.229 106.374Z" fill="#EBA50E"/>
<path fill-rule="evenodd" clip-rule="evenodd" d="M55.229 109.447C55.7186 109.447 56.13 110.447 56.13 111.666C56.13 112.89 55.7342 113.89 55.229 113.89C54.7394 113.89 54.3228 112.89 54.3228 111.666C54.3228 110.447 54.7394 109.447 55.229 109.447Z" fill="#1C1D29"/>
<path d="M154.156 157.13C152.364 157.494 149.578 156.572 147.073 155.197C144.469 153.749 141.963 151.708 141.125 150.026C140.281 148.343 140.442 146.109 141.312 143.666C142.312 140.859 144.328 137.578 146.755 134.692C149.192 131.776 152.114 129.208 154.922 127.812C157.234 126.671 159.531 126.27 161.609 127.015C161.817 127.083 161.989 127.192 162.151 127.302C164.182 128.682 165.859 130.286 167.146 132.171C168.463 134.104 169.38 136.296 169.854 138.765C169.969 139.338 169.854 139.895 169.604 140.354C168.099 143.463 165.797 146.916 163.099 149.963C160.614 152.77 157.76 155.26 154.823 156.874C154.62 157.005 154.396 157.083 154.156 157.13ZM149.177 151.119C150.734 151.973 152.271 152.609 153.062 152.624C155.411 151.26 157.724 149.203 159.802 146.869C162.041 144.348 163.974 141.526 165.291 138.927C164.927 137.421 164.307 136.072 163.484 134.869C162.562 133.52 161.359 132.359 159.916 131.348C159.088 131.156 158.026 131.427 156.854 132.01C154.62 133.124 152.208 135.281 150.13 137.755C148.036 140.244 146.323 142.999 145.515 145.302C145.073 146.552 144.896 147.52 145.12 147.963C145.547 148.776 147.276 150.072 149.177 151.119Z" fill="#1C1D29"/>
<path fill-rule="evenodd" clip-rule="evenodd" d="M153.776 154.848C151.208 155.416 144.359 151.421 143.135 148.978C140.63 143.905 153.823 126.687 160.88 129.207C164.51 131.645 166.844 134.916 167.651 139.213C164.974 144.859 159.469 151.707 153.776 154.848Z" fill="#384357"/>
<path fill-rule="evenodd" clip-rule="evenodd" d="M146.88 152.421C145.12 151.312 143.63 150.01 143.135 148.994C140.63 143.921 153.823 126.702 160.88 129.223C161.896 129.905 162.818 130.666 163.64 131.489C157.411 132.124 145.281 146.713 146.88 152.421Z" fill="#263042"/>
<path fill-rule="evenodd" clip-rule="evenodd" d="M57.9895 12.0562C61.9843 9.89992 66.8176 9.55096 68.7864 11.2958C70.7499 13.0405 69.0885 16.1968 65.0937 18.353C61.0937 20.5093 56.2604 20.8583 54.2916 19.1135C52.3437 17.3843 53.9895 14.2124 57.9895 12.0562Z" fill="#697791"/>
<path fill-rule="evenodd" clip-rule="evenodd" d="M69.531 19.9525C71.8956 18.6868 74.7498 18.4785 75.906 19.5097C77.0623 20.541 76.0779 22.3952 73.7185 23.666C71.3539 24.9316 68.4998 25.14 67.3435 24.1087C66.2029 23.0931 67.1664 21.2389 69.531 19.9525Z" fill="#697791"/>
<path d="M23.6746 146.651C23.328 146.651 23.0439 146.37 23.0439 146.021V140.977C23.0439 140.631 23.328 140.347 23.6746 140.347H26.1965C26.5456 140.347 26.8268 140.631 26.8268 140.977C26.8268 141.326 26.5456 141.608 26.1965 141.608H24.3049V146.021C24.3049 146.37 24.0237 146.651 23.6746 146.651Z" fill="#FF1616"/>
<path d="M24.9356 144.129H23.6746C23.328 144.129 23.0439 143.847 23.0439 143.499C23.0439 143.152 23.328 142.868 23.6746 142.868H24.9356C25.2846 142.868 25.5659 143.152 25.5659 143.499C25.5659 143.847 25.2846 144.129 24.9356 144.129Z" fill="#FF1616"/>
<path d="M32.5012 157.998C24.5045 157.998 18 151.493 18 143.499C18 135.504 24.5045 129 32.5012 129C40.4955 129 47 135.504 47 143.499C47 151.493 40.4955 157.998 32.5012 157.998ZM32.5012 130.261C25.2002 130.261 19.261 136.2 19.261 143.499C19.261 150.8 25.2002 156.737 32.5012 156.737C39.8002 156.737 45.739 150.8 45.739 143.499C45.739 136.2 39.8002 130.261 32.5012 130.261Z" fill="#FF1616"/>
<path d="M40.367 137.825C40.1822 137.825 39.9994 137.745 39.8751 137.589C38.0658 135.337 35.3776 134.044 32.5006 134.044C29.6216 134.044 26.9335 135.337 25.1241 137.589C24.9078 137.863 24.5104 137.905 24.2392 137.686C23.9661 137.47 23.9241 137.072 24.1428 136.801C26.1918 134.248 29.2371 132.783 32.5006 132.783C35.7626 132.783 38.8099 134.248 40.8589 136.801C41.0751 137.072 41.0332 137.47 40.76 137.686C40.6446 137.781 40.5058 137.825 40.367 137.825Z" fill="#FF1616"/>
<path d="M32.501 154.217C29.538 154.217 26.7805 153.027 24.7315 150.867C24.4918 150.615 24.5003 150.216 24.7549 149.976C25.0071 149.738 25.4061 149.745 25.6458 149.999C27.4531 151.905 29.8887 152.956 32.501 152.956C35.1133 152.956 37.5472 151.905 39.3566 149.999C39.5962 149.747 39.9977 149.738 40.2475 149.976C40.4997 150.216 40.5102 150.615 40.2709 150.867C38.2219 153.027 35.4623 154.217 32.501 154.217Z" fill="#FF1616"/>
<path d="M31.24 146.651C31.0782 146.651 30.9164 146.591 30.7925 146.467L29.3484 145.021V146.021C29.3484 146.37 29.0647 146.651 28.7181 146.651C28.3691 146.651 28.0874 146.37 28.0874 146.021V143.503C28.0874 143.501 28.0874 143.497 28.0874 143.495V140.977C28.0874 140.631 28.3691 140.347 28.7181 140.347H29.979C31.0213 140.347 31.8703 141.196 31.8703 142.238C31.8703 143.199 31.1516 143.993 30.2228 144.113L31.6835 145.576C31.9292 145.821 31.9292 146.221 31.6835 146.467C31.5616 146.591 31.3998 146.651 31.24 146.651ZM29.3484 142.869H29.979C30.3257 142.869 30.6093 142.587 30.6093 142.238C30.6093 141.892 30.3257 141.608 29.979 141.608H29.3484V142.869Z" fill="#FF1616"/>
<path d="M36.2819 146.651H33.762C33.413 146.651 33.1313 146.37 33.1313 146.021V140.977C33.1313 140.631 33.413 140.347 33.762 140.347H36.2819C36.6306 140.347 36.9122 140.631 36.9122 140.977C36.9122 141.326 36.6306 141.608 36.2819 141.608H34.3923V145.391H36.2819C36.6306 145.391 36.9122 145.672 36.9122 146.021C36.9122 146.37 36.6306 146.651 36.2819 146.651Z" fill="#FF1616"/>
<path d="M35.021 144.129H33.762C33.413 144.129 33.1313 143.847 33.1313 143.499C33.1313 143.152 33.413 142.868 33.762 142.868H35.021C35.3696 142.868 35.6512 143.152 35.6512 143.499C35.6512 143.847 35.3696 144.129 35.021 144.129Z" fill="#FF1616"/>
<path d="M41.326 146.651H38.8041C38.4575 146.651 38.1738 146.37 38.1738 146.021V140.977C38.1738 140.631 38.4575 140.347 38.8041 140.347H41.326C41.6751 140.347 41.9567 140.631 41.9567 140.977C41.9567 141.326 41.6751 141.608 41.326 141.608H39.4348V145.391H41.326C41.6751 145.391 41.9567 145.672 41.9567 146.021C41.9567 146.37 41.6751 146.651 41.326 146.651Z" fill="#FF1616"/>
<path d="M40.0651 144.129H38.8041C38.4575 144.129 38.1738 143.847 38.1738 143.499C38.1738 143.152 38.4575 142.868 38.8041 142.868H40.0651C40.4141 142.868 40.6957 143.152 40.6957 143.499C40.6957 143.847 40.4141 144.129 40.0651 144.129Z" fill="#FF1616"/>
</svg>
