<svg xmlns="http://www.w3.org/2000/svg" xmlns:xlink="http://www.w3.org/1999/xlink" width="500" zoomAndPan="magnify" viewBox="0 0 375 374.999991" height="500" preserveAspectRatio="xMidYMid meet" version="1.0"><defs><clipPath id="56e9a3a79b"><path d="M 20.703125 269 L 52 269 L 52 314 L 20.703125 314 Z M 20.703125 269 " clip-rule="nonzero"/></clipPath><clipPath id="dc01203d30"><path d="M 272 81 L 354.453125 81 L 354.453125 126 L 272 126 Z M 272 81 " clip-rule="nonzero"/></clipPath></defs><g clip-path="url(#56e9a3a79b)"><path fill="#1c1d29" d="M 31.714844 269.59375 L 46.609375 269.59375 C 49.191406 269.59375 51.265625 272.078125 51.265625 275.136719 L 51.265625 308.097656 C 51.265625 311.15625 49.191406 313.640625 46.609375 313.640625 L 30.535156 313.640625 C 29.738281 313.640625 29.003906 313.417969 28.335938 313.003906 C 25.816406 311.761719 23.777344 308.796875 22.5 304.71875 C 21.382812 301.179688 20.714844 296.558594 20.714844 291.617188 C 20.714844 286.675781 21.382812 282.054688 22.5 278.515625 C 23.871094 274.179688 26.039062 271.089844 28.8125 270.007812 C 29.132812 269.847656 29.484375 269.75 29.835938 269.6875 C 30.21875 269.625 30.601562 269.558594 30.984375 269.558594 C 31.238281 269.527344 31.460938 269.558594 31.714844 269.59375 Z M 41.953125 280.652344 L 31.460938 280.652344 L 31.460938 280.621094 L 31.367188 280.621094 C 31.332031 280.84375 31.492188 281.386719 31.207031 282.308594 C 30.472656 284.636719 30.027344 287.886719 30.027344 291.554688 C 30.027344 295.25 30.472656 298.46875 31.207031 300.796875 C 31.523438 301.785156 31.300781 302.328125 31.367188 302.519531 L 41.953125 302.519531 Z M 41.953125 280.652344 " fill-opacity="1" fill-rule="nonzero"/></g><path fill="#384357" d="M 31.492188 275.105469 L 46.640625 275.105469 L 46.640625 308.0625 L 30.535156 308.0625 L 30.535156 308 C 27.667969 307.300781 25.402344 300.191406 25.402344 291.554688 C 25.402344 282.882812 27.667969 275.808594 30.535156 275.105469 C 30.855469 275.042969 31.175781 275.042969 31.492188 275.105469 Z M 31.492188 275.105469 " fill-opacity="1" fill-rule="evenodd"/><path fill="#1c1d29" d="M 45.746094 269.527344 C 49.382812 269.527344 52.285156 272.683594 54.039062 277.816406 C 55.28125 281.417969 56.015625 286.292969 56.015625 291.554688 C 56.015625 296.8125 55.25 301.6875 54.039062 305.292969 C 52.285156 310.421875 49.382812 313.578125 45.746094 313.578125 C 42.113281 313.578125 39.210938 310.421875 37.457031 305.292969 L 37.359375 304.972656 C 36.179688 301.402344 35.480469 296.652344 35.480469 291.554688 C 35.480469 286.292969 36.246094 281.417969 37.457031 277.816406 C 39.210938 272.683594 42.113281 269.527344 45.746094 269.527344 Z M 45.746094 280.875 C 45.90625 280.683594 45.972656 280.589844 45.746094 280.589844 C 45.523438 280.589844 45.589844 280.683594 45.746094 280.875 Z M 46.703125 291.585938 C 46.703125 288.300781 46.355469 285.371094 45.746094 283.105469 C 45.140625 285.371094 44.792969 288.300781 44.792969 291.585938 C 44.792969 294.867188 45.140625 297.832031 45.746094 300.0625 C 46.355469 297.800781 46.703125 294.867188 46.703125 291.585938 Z M 45.746094 302.550781 C 45.972656 302.550781 45.90625 302.453125 45.746094 302.261719 C 45.589844 302.453125 45.523438 302.550781 45.746094 302.550781 Z M 45.746094 302.550781 " fill-opacity="1" fill-rule="nonzero"/><path fill="#384357" d="M 45.746094 275.074219 C 48.839844 275.074219 51.359375 282.46875 51.359375 291.585938 C 51.359375 300.703125 48.839844 308.097656 45.746094 308.097656 C 42.65625 308.097656 40.136719 300.703125 40.136719 291.585938 C 40.136719 282.46875 42.65625 275.074219 45.746094 275.074219 Z M 45.746094 275.074219 " fill-opacity="1" fill-rule="evenodd"/><path fill="#1c1d29" d="M 52.761719 251.488281 L 300.898438 251.488281 C 304.183594 251.488281 307.117188 253.015625 309.15625 255.472656 C 310.976562 257.640625 312.09375 260.539062 312.09375 263.695312 L 312.09375 319.441406 C 312.09375 322.597656 310.976562 325.53125 309.15625 327.667969 C 307.085938 330.121094 304.183594 331.652344 300.898438 331.652344 L 50.085938 331.652344 C 44.058594 331.652344 39.242188 326.296875 36.277344 317.625 C 33.980469 310.835938 32.546875 301.625 32.546875 291.554688 C 32.546875 281.480469 33.980469 272.269531 36.277344 265.480469 C 39.210938 256.808594 44.058594 251.457031 50.085938 251.457031 L 52.761719 251.457031 Z M 300.292969 263.25 L 50.117188 263.25 C 49.703125 263.25 48.714844 265.542969 47.46875 269.273438 C 45.554688 274.882812 44.375 282.757812 44.375 291.585938 C 44.375 300.414062 45.554688 308.289062 47.46875 313.898438 C 48.746094 317.625 49.734375 319.921875 50.117188 319.921875 L 300.292969 319.921875 C 300.324219 319.792969 300.355469 319.667969 300.355469 319.476562 L 300.355469 263.726562 C 300.324219 263.535156 300.324219 263.375 300.292969 263.25 Z M 300.292969 263.25 " fill-opacity="1" fill-rule="nonzero"/><path fill="#eba50e" d="M 52.761719 257.382812 L 300.898438 257.382812 C 303.832031 257.382812 306.222656 260.222656 306.222656 263.695312 L 306.222656 319.441406 C 306.222656 322.917969 303.832031 325.753906 300.898438 325.753906 L 52.761719 325.753906 C 51.871094 325.753906 51.007812 325.753906 50.117188 325.753906 C 43.675781 325.753906 38.476562 310.453125 38.476562 291.554688 C 38.476562 272.652344 43.675781 257.351562 50.117188 257.351562 C 51.007812 257.382812 51.871094 257.382812 52.761719 257.382812 Z M 52.761719 257.382812 " fill-opacity="1" fill-rule="evenodd"/><path fill="#c77914" d="M 306.222656 302.199219 L 306.222656 316.734375 C 306.222656 320.207031 303.832031 323.046875 300.898438 323.046875 L 54.804688 323.046875 C 53.910156 323.046875 53.050781 323.046875 52.15625 323.046875 C 47.34375 323.046875 43.195312 314.4375 41.441406 302.167969 L 306.222656 302.167969 Z M 306.222656 302.199219 " fill-opacity="1" fill-rule="evenodd"/><path fill="#f2e827" d="M 52.761719 257.382812 L 300.898438 257.382812 C 303.832031 257.382812 306.222656 260.222656 306.222656 263.695312 L 306.222656 267.617188 L 41.824219 267.617188 C 43.929688 261.304688 46.863281 257.382812 50.117188 257.382812 C 51.007812 257.382812 51.871094 257.382812 52.761719 257.382812 Z M 52.761719 257.382812 " fill-opacity="1" fill-rule="evenodd"/><path fill="#1c1d29" d="M 301.886719 251.457031 C 307.5 251.457031 311.902344 256.90625 314.421875 265.765625 C 316.332031 272.492188 317.546875 281.640625 317.546875 291.585938 C 317.546875 301.53125 316.367188 310.679688 314.421875 317.402344 C 311.902344 326.230469 307.5 331.714844 301.886719 331.714844 C 296.273438 331.714844 291.875 326.265625 289.355469 317.402344 C 287.441406 310.679688 286.230469 301.53125 286.230469 291.585938 C 286.230469 281.640625 287.410156 272.492188 289.355469 265.765625 C 291.875 256.90625 296.242188 251.457031 301.886719 251.457031 Z M 303.195312 269.019531 C 302.175781 265.480469 302.109375 263.28125 301.886719 263.28125 C 301.664062 263.28125 301.601562 265.480469 300.578125 269.019531 C 298.953125 274.660156 297.964844 282.628906 297.964844 291.554688 C 297.964844 300.476562 298.953125 308.445312 300.578125 314.089844 C 301.601562 317.625 301.664062 319.824219 301.886719 319.824219 C 302.109375 319.824219 302.175781 317.625 303.195312 314.089844 C 304.820312 308.445312 305.808594 300.476562 305.808594 291.554688 C 305.808594 282.628906 304.789062 274.660156 303.195312 269.019531 Z M 303.195312 269.019531 " fill-opacity="1" fill-rule="nonzero"/><path fill="#c77914" d="M 301.886719 257.382812 C 307.308594 257.382812 311.675781 272.683594 311.675781 291.585938 C 311.675781 310.488281 307.308594 325.785156 301.886719 325.785156 C 296.464844 325.785156 292.097656 310.488281 292.097656 291.585938 C 292.097656 272.683594 296.464844 257.382812 301.886719 257.382812 Z M 301.886719 257.382812 " fill-opacity="1" fill-rule="evenodd"/><path fill="#eba50e" d="M 301.886719 257.382812 C 307.308594 257.382812 311.675781 272.683594 311.675781 291.585938 C 311.675781 296.78125 311.359375 301.722656 310.753906 306.152344 C 309.09375 310.582031 307.054688 313.195312 304.789062 313.195312 C 299.367188 313.195312 295 297.894531 295 278.996094 C 295 273.800781 295.316406 268.859375 295.925781 264.429688 C 297.582031 259.996094 299.65625 257.382812 301.886719 257.382812 Z M 301.886719 257.382812 " fill-opacity="1" fill-rule="evenodd"/><path fill="#1c1d29" d="M 305.363281 269.59375 L 317.894531 269.59375 C 320.066406 269.59375 321.820312 272.078125 321.820312 275.136719 L 321.820312 308.097656 C 321.820312 311.15625 320.066406 313.640625 317.894531 313.640625 L 304.375 313.640625 C 303.707031 313.640625 303.097656 313.417969 302.558594 313.003906 C 300.386719 311.792969 298.699219 308.796875 297.613281 304.652344 C 296.6875 301.148438 296.117188 296.527344 296.117188 291.585938 C 296.117188 286.613281 296.6875 282.023438 297.613281 278.515625 C 298.761719 274.117188 300.644531 270.996094 303.035156 269.941406 C 303.386719 269.75 303.738281 269.65625 304.121094 269.625 C 304.375 269.59375 304.597656 269.558594 304.789062 269.558594 C 304.949219 269.527344 305.171875 269.558594 305.363281 269.59375 Z M 313.972656 280.652344 L 305.171875 280.652344 L 305.171875 280.621094 L 305.109375 280.621094 C 305.078125 280.84375 305.234375 281.386719 304.980469 282.277344 C 304.375 284.636719 303.992188 287.886719 303.992188 291.554688 C 303.992188 295.21875 304.375 298.46875 304.980469 300.828125 C 305.234375 301.785156 305.042969 302.328125 305.109375 302.519531 L 313.972656 302.519531 Z M 313.972656 280.652344 " fill-opacity="1" fill-rule="nonzero"/><path fill="#263042" d="M 305.171875 275.105469 L 317.894531 275.105469 L 317.894531 308.0625 L 304.40625 308.0625 L 304.40625 308 C 301.984375 307.300781 300.070312 300.191406 300.070312 291.554688 C 300.070312 282.882812 301.984375 275.808594 304.40625 275.105469 C 304.660156 275.042969 304.917969 275.042969 305.171875 275.105469 Z M 305.171875 275.105469 " fill-opacity="1" fill-rule="evenodd"/><path fill="#1c1d29" d="M 317.164062 269.527344 C 320.222656 269.527344 322.679688 272.714844 324.148438 277.847656 C 325.167969 281.449219 325.835938 286.324219 325.835938 291.585938 C 325.835938 296.84375 325.199219 301.6875 324.148438 305.324219 C 322.679688 310.453125 320.222656 313.640625 317.164062 313.640625 C 314.101562 313.640625 311.644531 310.453125 310.179688 305.324219 C 309.160156 301.6875 308.488281 296.84375 308.488281 291.585938 C 308.488281 286.324219 309.125 281.480469 310.179688 277.847656 C 311.644531 272.714844 314.101562 269.527344 317.164062 269.527344 Z M 317.164062 280.875 C 317.289062 280.714844 317.355469 280.621094 317.164062 280.621094 C 316.972656 280.589844 317.035156 280.683594 317.164062 280.875 Z M 317.960938 291.585938 C 317.960938 288.332031 317.671875 285.402344 317.164062 283.171875 C 316.652344 285.402344 316.367188 288.332031 316.367188 291.585938 C 316.367188 294.835938 316.652344 297.769531 317.164062 300 C 317.671875 297.738281 317.960938 294.835938 317.960938 291.585938 Z M 317.164062 302.550781 C 317.355469 302.550781 317.289062 302.453125 317.164062 302.292969 C 317.035156 302.453125 316.972656 302.550781 317.164062 302.550781 Z M 317.164062 302.550781 " fill-opacity="1" fill-rule="nonzero"/><path fill="#384357" d="M 317.164062 275.074219 C 319.777344 275.074219 321.882812 282.46875 321.882812 291.585938 C 321.882812 300.703125 319.777344 308.097656 317.164062 308.097656 C 314.546875 308.097656 312.441406 300.703125 312.441406 291.585938 C 312.441406 282.46875 314.546875 275.074219 317.164062 275.074219 Z M 317.164062 275.074219 " fill-opacity="1" fill-rule="evenodd"/><path fill="#1c1d29" d="M 123.175781 216.488281 C 121.039062 223.628906 119.222656 236.824219 117.914062 252.953125 C 116.480469 270.835938 115.683594 291.96875 115.84375 312.238281 L 115.84375 312.558594 C 115.332031 321.707031 125.1875 327.761719 139.121094 331.109375 C 149.773438 333.660156 162.625 334.550781 175.476562 334.007812 C 188.296875 333.46875 201.019531 331.492188 211.351562 328.335938 C 224.234375 324.382812 233.101562 318.996094 232.238281 313.035156 C 232.175781 312.589844 232.175781 312.175781 232.207031 311.761719 C 233.039062 294.070312 232.8125 278.039062 231.125 261.6875 C 229.464844 245.941406 226.402344 229.75 221.492188 211.390625 C 211.449219 206.226562 188.804688 203.613281 166.992188 204.792969 C 148.496094 205.714844 130.988281 209.414062 123.175781 216.488281 Z M 107.105469 252.09375 C 108.539062 234.210938 110.707031 219.484375 113.289062 211.804688 C 113.546875 211.070312 113.960938 210.371094 114.535156 209.796875 C 123.972656 199.980469 144.828125 195.070312 166.449219 193.921875 C 191.261719 192.582031 217.730469 196.1875 228.699219 202.976562 C 229.976562 203.644531 230.996094 204.824219 231.410156 206.355469 C 236.769531 226.117188 240.117188 243.457031 241.902344 260.539062 C 243.65625 277.371094 243.878906 293.847656 243.050781 311.984375 C 244.421875 324.097656 232.335938 333.179688 214.542969 338.632812 L 214.507812 338.632812 C 203.285156 342.074219 189.636719 344.210938 175.921875 344.785156 C 162.210938 345.355469 148.304688 344.367188 136.664062 341.597656 C 117.628906 337.039062 104.203125 327.570312 105.09375 312.015625 C 104.902344 291.265625 105.667969 269.941406 107.105469 252.09375 Z M 107.105469 252.09375 " fill-opacity="1" fill-rule="nonzero"/><path fill="#384357" d="M 118.425781 213.558594 C 113.480469 228.1875 110.132812 271.695312 110.453125 312.269531 C 108.0625 353.355469 242.125 343.636719 237.597656 312.269531 C 239.320312 276.125 236.769531 246.832031 226.148438 207.820312 C 208.003906 196.027344 136.761719 194.527344 118.425781 213.558594 Z M 118.425781 213.558594 " fill-opacity="1" fill-rule="evenodd"/><path fill="#263042" d="M 236.894531 265.191406 C 235.269531 247.152344 231.890625 228.886719 226.148438 207.789062 C 210.425781 197.589844 154.9375 195.101562 128.4375 206.960938 C 125.34375 208.933594 122.699219 211.007812 120.5625 213.109375 C 119.382812 216.394531 118.296875 221.109375 117.308594 226.878906 C 130.957031 242.5 152.800781 255.695312 179.269531 262.546875 C 198.117188 267.425781 210.109375 267.519531 227.519531 266.339844 C 229.910156 266.179688 233.164062 265.765625 236.894531 265.191406 Z M 236.894531 265.191406 " fill-opacity="1" fill-rule="evenodd"/><path fill="#1c1d29" d="M 143.90625 206.449219 C 140.554688 207.117188 136.632812 207.980469 133 208.902344 C 132.042969 209.160156 131.085938 209.414062 130.191406 209.667969 C 135.804688 216.519531 141.578125 223.152344 147.539062 229.527344 C 154.109375 236.601562 160.964844 243.421875 167.980469 250.085938 L 178.664062 242.050781 C 172.128906 236.761719 165.972656 231.3125 160.328125 225.636719 C 154.109375 219.484375 148.5625 213.078125 143.90625 206.449219 Z M 130.671875 200.457031 C 135.453125 199.214844 140.78125 198.128906 144.703125 197.398438 C 146.457031 196.949219 148.402344 197.652344 149.484375 199.246094 C 154.171875 206.289062 159.914062 213.015625 166.449219 219.550781 C 173.019531 226.117188 180.484375 232.523438 188.519531 238.832031 C 188.804688 239.054688 189.09375 239.34375 189.316406 239.660156 C 190.78125 241.605469 190.433594 244.347656 188.519531 245.78125 L 170.46875 259.359375 C 168.8125 260.601562 166.417969 260.476562 164.855469 259.007812 C 156.726562 251.390625 148.847656 243.582031 141.289062 235.488281 C 133.667969 227.292969 126.398438 218.878906 119.574219 210.242188 C 119.351562 209.957031 119.160156 209.667969 119.03125 209.316406 C 118.011719 207.117188 118.96875 204.535156 121.136719 203.546875 C 123.464844 202.464844 126.941406 201.414062 130.671875 200.457031 Z M 130.671875 200.457031 " fill-opacity="1" fill-rule="nonzero"/><path fill="#961818" d="M 145.816406 201.636719 C 139.121094 202.878906 127.960938 205.269531 122.890625 207.53125 C 136.507812 224.777344 151.589844 240.777344 167.726562 255.824219 C 173.753906 251.296875 179.75 246.769531 185.777344 242.242188 C 169.578125 229.527344 155.511719 216.171875 145.816406 201.636719 Z M 145.816406 201.636719 " fill-opacity="1" fill-rule="evenodd"/><path fill="#1c1d29" d="M 114.886719 296.90625 L 114.851562 306.152344 C 134.71875 296.300781 153.824219 285.945312 172.03125 274.375 C 191.515625 261.972656 210.042969 248.171875 227.457031 232.074219 L 226.59375 227.902344 C 225.894531 224.394531 225.160156 220.824219 224.265625 217.222656 C 207.398438 235.421875 189.730469 250.59375 171.425781 263.597656 C 153.089844 276.636719 134.179688 287.472656 114.886719 296.90625 Z M 106.148438 301.308594 L 106.179688 294.359375 C 106.117188 292.667969 107.007812 291.011719 108.632812 290.214844 C 128.375 280.683594 147.699219 269.75 166.355469 256.460938 C 185.011719 243.199219 203.027344 227.582031 220.183594 208.710938 C 220.984375 207.851562 222.128906 207.277344 223.40625 207.277344 L 227.136719 207.277344 C 229.082031 207.214844 230.933594 208.457031 231.472656 210.433594 C 233.039062 215.820312 234.121094 221.078125 235.171875 226.148438 C 235.621094 228.410156 236.097656 230.640625 236.546875 232.617188 C 236.863281 234.085938 236.417969 235.644531 235.269531 236.761719 C 216.867188 253.972656 197.320312 268.636719 176.75 281.734375 C 156.214844 294.804688 134.785156 306.246094 112.558594 317.050781 C 111.953125 317.402344 111.21875 317.59375 110.484375 317.59375 C 108.0625 317.59375 106.082031 315.617188 106.082031 313.195312 Z M 106.148438 301.308594 " fill-opacity="1" fill-rule="nonzero"/><path fill="#d62727" d="M 110.546875 294.167969 C 110.546875 294.199219 110.546875 294.230469 110.546875 294.261719 C 110.515625 301.179688 110.484375 306.3125 110.484375 313.195312 C 154.875 291.585938 195.949219 267.617188 232.304688 233.574219 C 230.742188 226.625 229.527344 219.199219 227.328125 211.644531 C 226.054688 211.644531 224.746094 211.644531 223.46875 211.675781 C 188.679688 249.894531 150.410156 274.914062 110.546875 294.167969 Z M 110.546875 294.167969 " fill-opacity="1" fill-rule="evenodd"/><path fill="#961818" d="M 193.238281 265.351562 C 206.761719 255.726562 219.804688 245.238281 232.273438 233.574219 C 230.710938 226.625 229.496094 219.199219 227.296875 211.644531 C 226.019531 211.644531 224.714844 211.644531 223.4375 211.675781 C 206.1875 230.671875 188.039062 246.417969 169.257812 259.804688 C 171.519531 260.570312 173.847656 261.273438 176.175781 261.910156 C 181.917969 263.441406 187.625 264.585938 193.238281 265.351562 Z M 193.238281 265.351562 " fill-opacity="1" fill-rule="evenodd"/><path fill="#1c1d29" d="M 78.019531 277.210938 C 73.875 271.632812 75.214844 259.871094 79.074219 247.28125 C 83.570312 232.492188 91.445312 215.691406 97.3125 207.5 C 98.527344 205.78125 100.597656 205.046875 102.542969 205.398438 C 105.890625 206.035156 108.445312 206.480469 111.027344 206.894531 C 113.609375 207.339844 116.191406 207.757812 119.699219 208.425781 C 122.507812 208.933594 124.355469 211.613281 123.878906 214.386719 C 123.367188 217.445312 122.730469 220.824219 122.027344 224.394531 C 120.6875 231.34375 119.191406 239.152344 118.550781 245.238281 C 121.710938 245.238281 125.25 245.273438 129.042969 245.398438 C 133.957031 245.558594 139.28125 245.878906 144.796875 246.355469 C 146.007812 240.839844 147.507812 236.761719 149.199219 233.859375 C 152.101562 228.855469 155.769531 226.785156 159.851562 226.816406 C 160.613281 226.816406 161.316406 226.976562 161.953125 227.261719 C 167.441406 229.75 171.140625 239.34375 172.636719 250.054688 C 173.5 256.078125 173.753906 262.578125 173.339844 268.222656 C 172.894531 274.40625 171.585938 279.855469 169.226562 283.171875 C 167.40625 285.6875 165.078125 287.1875 162.113281 287.347656 C 149.707031 288.398438 129.746094 289.097656 111.855469 287.28125 C 98.972656 285.976562 87.046875 283.296875 79.421875 278.453125 C 78.882812 278.167969 78.402344 277.71875 78.019531 277.210938 Z M 89.023438 250.308594 C 86.28125 259.359375 84.75 267.203125 86.023438 270.355469 C 92.210938 273.832031 102.035156 275.871094 112.875 276.988281 C 129.746094 278.707031 148.785156 278.039062 160.839844 277.019531 C 161.953125 275.328125 162.625 271.824219 162.941406 267.519531 C 163.292969 262.546875 163.070312 256.84375 162.304688 251.519531 C 161.476562 245.621094 160.265625 240.457031 158.859375 238.101562 C 158.667969 238.386719 158.445312 238.707031 158.191406 239.152344 C 156.660156 241.796875 155.289062 246.195312 154.140625 252.890625 C 153.726562 255.632812 151.207031 257.574219 148.402344 257.289062 C 141.320312 256.492188 134.625 256.078125 128.695312 255.886719 C 122.601562 255.695312 117.277344 255.695312 113.097656 255.757812 L 113.035156 255.757812 C 110.164062 255.757812 107.835938 253.464844 107.804688 250.5625 C 107.742188 243.265625 109.910156 232.074219 111.726562 222.515625 L 112.621094 217.796875 L 109.242188 217.222656 C 107.519531 216.9375 105.828125 216.648438 103.914062 216.296875 C 98.910156 224.363281 92.785156 238.003906 89.023438 250.308594 Z M 89.023438 250.308594 " fill-opacity="1" fill-rule="nonzero"/><path fill="#384357" d="M 82.230469 274.117188 C 75.375 264.84375 91.574219 224.457031 101.554688 210.496094 C 108.253906 211.773438 112.015625 212.25 118.710938 213.558594 C 117.054688 223.691406 112.972656 241.160156 113.035156 250.53125 C 121.582031 250.371094 134.753906 250.5 149.007812 252.09375 C 151.496094 237.335938 155.386719 232.042969 159.816406 232.074219 C 169.289062 236.347656 172.160156 282.054688 161.699219 282.214844 C 140.972656 283.933594 98.910156 284.730469 82.230469 274.117188 Z M 82.230469 274.117188 " fill-opacity="1" fill-rule="evenodd"/><path fill="#697791" d="M 149.007812 252.0625 C 151.496094 237.304688 155.386719 232.011719 159.816406 232.042969 C 156.757812 234.117188 151.304688 249.671875 153.472656 254.132812 C 151.972656 253.589844 150.507812 252.570312 149.007812 252.0625 Z M 149.007812 252.0625 " fill-opacity="1" fill-rule="evenodd"/><path fill="#697791" d="M 82.230469 274.117188 C 75.375 264.84375 91.574219 224.457031 101.554688 210.496094 C 102.957031 210.753906 104.871094 211.167969 106.082031 211.390625 C 94.539062 230.066406 82.707031 259.390625 85.292969 269.625 C 93.265625 278.007812 119.765625 280.109375 143.394531 283.136719 C 121.964844 283.648438 94.828125 282.148438 82.230469 274.117188 Z M 82.230469 274.117188 " fill-opacity="1" fill-rule="evenodd"/><path fill="#1c1d29" d="M 108.125 299.425781 C 108.09375 305.003906 108.027344 311.824219 107.964844 317.402344 C 150.058594 327.730469 193.84375 325.882812 239.222656 311.855469 C 239.542969 307.394531 239.574219 297.960938 239.894531 293.496094 C 200 303.855469 153.726562 309.371094 108.125 299.425781 Z M 108.125 299.425781 " fill-opacity="1" fill-rule="evenodd"/><path fill="#1c1d29" d="M 255.390625 270.355469 C 256.667969 267.203125 255.136719 259.359375 252.394531 250.308594 C 248.664062 238.003906 242.507812 224.363281 237.4375 216.265625 C 235.554688 216.617188 233.835938 216.902344 232.113281 217.191406 L 228.730469 217.765625 L 229.625 222.480469 C 231.472656 232.074219 233.609375 243.230469 233.546875 250.53125 C 233.546875 253.398438 231.1875 255.726562 228.316406 255.726562 L 228.253906 255.726562 C 224.078125 255.664062 218.71875 255.632812 212.660156 255.855469 C 206.695312 256.046875 200 256.492188 192.953125 257.257812 C 190.175781 257.574219 187.65625 255.597656 187.210938 252.859375 C 186.0625 246.164062 184.691406 241.765625 183.160156 239.121094 C 182.90625 238.707031 182.683594 238.355469 182.492188 238.066406 C 181.089844 240.425781 179.875 245.589844 179.046875 251.488281 C 178.28125 256.808594 178.058594 262.515625 178.410156 267.488281 C 178.730469 271.792969 179.398438 275.296875 180.515625 276.988281 C 192.570312 278.007812 211.605469 278.644531 228.476562 276.953125 C 239.382812 275.871094 249.207031 273.832031 255.390625 270.355469 Z M 262.34375 247.28125 C 266.171875 259.902344 267.511719 271.632812 263.394531 277.242188 C 263.011719 277.71875 262.566406 278.167969 261.992188 278.515625 C 254.371094 283.363281 242.445312 286.039062 229.5625 287.347656 C 211.671875 289.164062 191.675781 288.460938 179.300781 287.410156 C 176.335938 287.25 173.976562 285.753906 172.191406 283.234375 C 169.832031 279.949219 168.523438 274.5 168.078125 268.285156 C 167.664062 262.644531 167.949219 256.140625 168.777344 250.117188 C 170.277344 239.40625 173.976562 229.8125 179.460938 227.328125 C 180.101562 227.039062 180.832031 226.878906 181.566406 226.878906 C 185.679688 226.847656 189.316406 228.921875 192.21875 233.925781 C 193.910156 236.824219 195.375 240.90625 196.617188 246.417969 C 202.136719 245.910156 207.460938 245.621094 212.371094 245.464844 C 216.167969 245.335938 219.707031 245.304688 222.863281 245.304688 C 222.226562 239.214844 220.726562 231.40625 219.386719 224.457031 C 218.6875 220.855469 218.050781 217.507812 217.539062 214.449219 C 217.058594 211.675781 218.941406 209 221.714844 208.488281 C 225.222656 207.820312 227.808594 207.375 230.390625 206.960938 C 232.941406 206.511719 235.523438 206.097656 238.871094 205.460938 C 240.816406 205.109375 242.890625 205.84375 244.101562 207.566406 C 249.96875 215.691406 257.847656 232.492188 262.34375 247.28125 Z M 262.34375 247.28125 " fill-opacity="1" fill-rule="nonzero"/><path fill="#384357" d="M 259.21875 274.117188 C 266.074219 264.84375 249.875 224.457031 239.894531 210.496094 C 233.195312 211.773438 229.433594 212.25 222.738281 213.558594 C 224.394531 223.691406 228.476562 241.160156 228.414062 250.53125 C 219.867188 250.371094 206.695312 250.5 192.441406 252.09375 C 189.953125 237.335938 186.0625 232.042969 181.628906 232.074219 C 172.160156 236.347656 169.289062 282.054688 179.75 282.214844 C 200.445312 283.933594 242.507812 284.730469 259.21875 274.117188 Z M 259.21875 274.117188 " fill-opacity="1" fill-rule="evenodd"/><path fill="#697791" d="M 192.410156 252.0625 C 189.921875 237.304688 186.03125 232.011719 181.597656 232.042969 C 184.660156 234.117188 190.113281 249.671875 187.945312 254.132812 C 189.445312 253.589844 190.910156 252.570312 192.410156 252.0625 Z M 192.410156 252.0625 " fill-opacity="1" fill-rule="evenodd"/><path fill="#697791" d="M 259.21875 274.117188 C 266.074219 264.84375 249.875 224.457031 239.894531 210.496094 C 238.492188 210.753906 236.578125 211.167969 235.363281 211.390625 C 246.910156 230.066406 258.742188 259.390625 256.15625 269.625 C 248.183594 278.007812 221.683594 280.109375 198.054688 283.136719 C 219.453125 283.648438 246.589844 282.148438 259.21875 274.117188 Z M 259.21875 274.117188 " fill-opacity="1" fill-rule="evenodd"/><path fill="#1c1d29" d="M 330.84375 136.644531 C 307.40625 137.664062 296.878906 115.128906 292.066406 82.171875 C 287.792969 85.359375 281.351562 94.378906 282.816406 103.113281 C 286.164062 122.84375 302.589844 154.527344 319.683594 156.40625 C 321.46875 149.488281 324.816406 144.898438 330.84375 136.644531 Z M 330.84375 136.644531 " fill-opacity="1" fill-rule="evenodd"/><g clip-path="url(#dc01203d30)"><path fill="#1c1d29" d="M 354.441406 97.597656 C 331.578125 101.582031 318.183594 72.671875 283.453125 83.796875 C 274.972656 86.507812 271.496094 97.25 272.230469 105.183594 C 311.835938 77.996094 317.164062 124.246094 347.714844 125.488281 C 347.171875 116.660156 349.433594 106.523438 354.441406 97.597656 Z M 354.441406 97.597656 " fill-opacity="1" fill-rule="evenodd"/></g><path fill="#1c1d29" d="M 281.667969 37.929688 C 290.597656 48.734375 296.878906 85.710938 296.050781 121.664062 C 295.382812 150.605469 290.214844 179.355469 278.289062 194.113281 C 278.097656 194.335938 277.90625 194.527344 277.714844 194.71875 C 259.472656 212.792969 215.847656 222.386719 172.351562 223.085938 C 128.726562 223.789062 84.652344 215.566406 65.933594 197.96875 C 65.710938 197.78125 65.550781 197.554688 65.359375 197.363281 C 53.082031 182.925781 47.023438 154.496094 45.429688 125.742188 C 43.453125 89.820312 48.523438 52.65625 57.101562 41.597656 C 57.226562 41.4375 57.355469 41.277344 57.484375 41.148438 L 57.800781 40.832031 C 79.550781 18.613281 124.195312 6.949219 168.8125 6.214844 C 213.488281 5.480469 258.582031 15.746094 281 37.324219 L 281.191406 37.515625 C 281.382812 37.613281 281.542969 37.769531 281.667969 37.929688 Z M 285.242188 121.441406 C 286.007812 87.941406 280.871094 54.28125 273.441406 44.972656 C 253.128906 25.5 211.097656 16.289062 169.035156 16.957031 C 126.941406 17.625 85.195312 28.207031 65.550781 48.351562 C 58.441406 57.945312 54.421875 91.671875 56.273438 125.105469 C 57.738281 151.785156 63.03125 177.792969 73.554688 190.226562 C 90.265625 205.714844 131.148438 212.917969 172.191406 212.25 C 213.203125 211.582031 253.828125 203.070312 270.03125 187.070312 C 280.171875 174.320312 284.636719 148.152344 285.242188 121.441406 Z M 285.242188 121.441406 " fill-opacity="1" fill-rule="nonzero"/><path fill="#384357" d="M 277.492188 41.371094 C 292.289062 59.253906 299.015625 159.847656 274.046875 190.734375 C 239.828125 225.03125 104.933594 227.199219 69.632812 194.019531 C 43.675781 163.960938 47.183594 63.207031 61.40625 44.847656 C 102.609375 2.136719 234.949219 0 277.492188 41.371094 Z M 277.492188 41.371094 " fill-opacity="1" fill-rule="evenodd"/><path fill="#697791" d="M 172.253906 217.699219 C 129.839844 218.371094 87.300781 210.625 69.632812 194.019531 C 43.675781 163.960938 47.183594 63.207031 61.40625 44.847656 C 82.453125 23.011719 127.320312 11.792969 171.839844 11.539062 C 140.109375 15.523438 109.144531 25.054688 84.269531 39.171875 C 72.089844 46.058594 68.804688 47.683594 65.074219 61.742188 C 55.027344 99.511719 58.472656 140.308594 68.644531 172.566406 C 73.140625 186.847656 74.449219 190.863281 87.585938 197.269531 C 111.503906 208.933594 140.078125 214.257812 172.253906 217.699219 Z M 172.253906 217.699219 " fill-opacity="1" fill-rule="evenodd"/><path fill="#263042" d="M 277.492188 41.371094 C 292.289062 59.253906 299.015625 159.847656 274.046875 190.734375 C 267.351562 197.460938 256.761719 202.941406 243.816406 207.183594 C 282.464844 157.554688 285.015625 60.082031 217.570312 15.394531 C 242.605469 19.953125 264.351562 28.589844 277.492188 41.371094 Z M 277.492188 41.371094 " fill-opacity="1" fill-rule="evenodd"/><path fill="#1c1d29" d="M 294.105469 92.242188 C 289.257812 122.78125 267.667969 144.644531 239 157.679688 C 218.878906 166.828125 195.214844 171.640625 171.554688 172.023438 C 147.859375 172.40625 124.070312 168.359375 103.691406 159.882812 C 74.609375 147.769531 52.316406 126.605469 46.480469 96.226562 C 46.035156 93.871094 47.597656 91.574219 49.957031 91.097656 C 50.722656 90.9375 51.488281 91 52.15625 91.253906 C 96.007812 102.507812 133.316406 107.894531 170.5 107.289062 C 207.75 106.683594 244.964844 100.085938 288.558594 87.367188 C 290.886719 86.699219 293.308594 88.035156 293.980469 90.363281 C 294.171875 91 294.203125 91.636719 294.105469 92.242188 Z M 235.363281 149.746094 C 259.25 138.875 277.714844 121.503906 283.996094 97.757812 C 242.636719 109.390625 206.695312 115.449219 170.628906 116.023438 C 134.5625 116.597656 98.460938 111.6875 56.75 101.421875 C 63.828125 124.945312 82.835938 141.710938 107.039062 151.785156 C 126.332031 159.816406 148.910156 163.640625 171.425781 163.292969 C 193.910156 162.941406 216.328125 158.382812 235.363281 149.746094 Z M 235.363281 149.746094 " fill-opacity="1" fill-rule="nonzero"/><path fill="#263042" d="M 289.769531 91.574219 C 274.046875 190.734375 69.664062 194.019531 50.753906 95.429688 C 139.472656 118.222656 201.847656 117.203125 289.769531 91.574219 Z M 289.769531 91.574219 " fill-opacity="1" fill-rule="evenodd"/><path fill="#facf89" d="M 256.476562 142.699219 C 211.257812 174.894531 131.945312 176.167969 85.707031 145.441406 C 77.351562 135.878906 71.324219 118.191406 77.0625 101.613281 C 157.042969 115.035156 179.84375 118.285156 261.226562 101.773438 C 265.53125 114.523438 259.570312 136.421875 256.476562 142.699219 Z M 256.476562 142.699219 " fill-opacity="1" fill-rule="evenodd"/><path fill="#f5986a" d="M 74.894531 112.421875 C 75.117188 108.851562 75.820312 105.214844 77.0625 101.648438 C 157.042969 115.066406 179.84375 118.316406 261.226562 101.804688 C 262.3125 105.058594 262.757812 108.914062 262.726562 112.929688 C 196.9375 133.617188 134.179688 133.617188 74.894531 112.421875 Z M 74.894531 112.421875 " fill-opacity="1" fill-rule="evenodd"/><path fill="#1c1d29" d="M 289.898438 64.195312 C 290.886719 68.53125 291.714844 73.246094 292.449219 78.21875 C 293.179688 83.222656 293.753906 88.515625 294.203125 93.964844 C 294.363281 96.132812 292.957031 98.046875 290.917969 98.554688 C 247.386719 111.496094 205.484375 117.933594 165.269531 117.742188 C 124.960938 117.519531 86.375 110.601562 49.605469 96.832031 C 47.757812 96.132812 46.640625 94.316406 46.769531 92.433594 C 46.960938 89.535156 47.214844 86.601562 47.535156 83.703125 C 47.851562 80.769531 48.171875 78.027344 48.554688 75.476562 C 48.90625 73.085938 51.105469 71.429688 53.496094 71.75 L 53.527344 71.75 C 90.105469 77.167969 127.257812 80.515625 165.496094 79.460938 C 203.730469 78.410156 243.179688 72.992188 284.445312 60.945312 C 286.773438 60.273438 289.195312 61.613281 289.863281 63.941406 Z M 283.773438 79.460938 C 283.328125 76.371094 282.847656 73.4375 282.308594 70.632812 C 241.902344 81.980469 203.21875 87.144531 165.71875 88.195312 C 128.34375 89.214844 92.179688 86.15625 56.621094 81.054688 C 56.496094 82.234375 56.335938 83.414062 56.207031 84.59375 C 56.046875 86.25 55.890625 87.972656 55.730469 89.757812 C 90.617188 102.410156 127.164062 108.785156 165.304688 108.976562 C 203.601562 109.167969 243.5625 103.175781 285.144531 91.097656 C 284.761719 87.082031 284.316406 83.160156 283.773438 79.460938 Z M 283.773438 79.460938 " fill-opacity="1" fill-rule="nonzero"/><path fill="#1c1d29" d="M 285.625 65.152344 C 287.503906 73.5 288.941406 83.542969 289.800781 94.316406 C 203.378906 120.039062 123.6875 119.941406 51.105469 92.722656 C 51.519531 86.855469 52.09375 81.246094 52.828125 76.082031 C 126.398438 87.015625 202.296875 89.472656 285.625 65.152344 Z M 285.625 65.152344 " fill-opacity="1" fill-rule="evenodd"/><path fill="#191a21" d="M 107.328125 134.316406 C 112.589844 138.144531 121.136719 140.34375 129.9375 140.691406 C 138.578125 141.042969 147.285156 139.578125 153.058594 136.101562 L 156.214844 141.394531 C 149.390625 145.472656 139.441406 147.226562 129.683594 146.84375 C 119.796875 146.460938 109.972656 143.847656 103.691406 139.289062 Z M 107.328125 134.316406 " fill-opacity="1" fill-rule="nonzero"/><path fill="#191a21" d="M 233.867188 139.289062 C 227.582031 143.847656 217.761719 146.460938 207.875 146.84375 C 198.117188 147.226562 188.167969 145.472656 181.34375 141.394531 L 184.5 136.101562 C 190.273438 139.578125 198.980469 141.011719 207.621094 140.691406 C 216.390625 140.34375 224.96875 138.175781 230.230469 134.316406 Z M 233.867188 139.289062 " fill-opacity="1" fill-rule="nonzero"/><path fill="#1c1d29" d="M 158.511719 371.300781 C 152.800781 372.703125 145.851562 373.566406 137.621094 374.109375 C 129.746094 374.617188 120.371094 374.839844 109.527344 374.9375 C 109.335938 374.9375 109.144531 374.9375 108.953125 374.90625 C 92.308594 373.246094 82.835938 362.347656 79.457031 349.980469 C 78.117188 345.101562 77.765625 339.96875 78.339844 335.09375 C 78.914062 330.152344 80.445312 325.4375 82.867188 321.417969 C 87.96875 313.035156 96.707031 307.9375 108.507812 310.421875 C 114.4375 311.664062 121.550781 313.484375 128.820312 315.363281 C 139.089844 318.007812 149.707031 320.71875 158.351562 322.058594 C 167.375 323.425781 174.421875 328.050781 178.539062 333.976562 C 180.960938 337.453125 182.394531 341.4375 182.652344 345.484375 C 182.90625 349.597656 181.949219 353.804688 179.621094 357.660156 C 176.019531 363.621094 169.195312 368.6875 158.511719 371.300781 Z M 136.921875 363.300781 C 144.542969 362.824219 150.855469 362.027344 155.894531 360.785156 C 163.484375 358.902344 168.078125 355.714844 170.277344 352.082031 C 171.425781 350.203125 171.871094 348.160156 171.746094 346.152344 C 171.617188 344.082031 170.851562 342.011719 169.542969 340.128906 C 167.023438 336.496094 162.558594 333.660156 156.660156 332.765625 C 147.859375 331.429688 136.792969 328.558594 126.078125 325.816406 C 119.125 324.03125 112.332031 322.28125 106.210938 321.003906 C 99.640625 319.632812 94.828125 322.40625 92.019531 326.996094 C 90.425781 329.609375 89.40625 332.832031 89.023438 336.304688 C 88.609375 339.84375 88.863281 343.570312 89.851562 347.140625 C 92.148438 355.523438 98.558594 362.953125 109.71875 364.128906 C 120.050781 364.035156 129.042969 363.8125 136.921875 363.300781 Z M 136.921875 363.300781 " fill-opacity="1" fill-rule="nonzero"/><path fill="#384357" d="M 157.203125 366.042969 C 146.457031 368.6875 130.703125 369.328125 109.464844 369.515625 C 73.015625 365.882812 77.285156 309.402344 107.359375 315.714844 C 122.25 318.835938 142.851562 325.179688 157.488281 327.410156 C 180.324219 330.917969 187.210938 358.679688 157.203125 366.042969 Z M 157.203125 366.042969 " fill-opacity="1" fill-rule="evenodd"/><path fill="#697791" d="M 109.464844 369.550781 C 73.015625 365.914062 77.285156 309.433594 107.359375 315.746094 C 110.707031 316.445312 114.34375 317.308594 118.136719 318.265625 C 104.394531 316.542969 98.144531 318.296875 93.519531 323.554688 C 83.121094 335.414062 88.003906 363.144531 109.464844 369.550781 Z M 109.464844 369.550781 " fill-opacity="1" fill-rule="evenodd"/><path fill="#263042" d="M 157.203125 366.042969 C 152.929688 367.09375 147.828125 367.828125 141.925781 368.339844 C 160.234375 361.101562 164.503906 335.03125 145.085938 324.957031 C 149.484375 325.976562 153.695312 326.839844 157.523438 327.410156 C 180.324219 330.917969 187.210938 358.679688 157.203125 366.042969 Z M 157.203125 366.042969 " fill-opacity="1" fill-rule="evenodd"/><path fill="#1c1d29" d="M 192.570312 360.816406 C 197.609375 362.058594 203.921875 362.824219 211.542969 363.332031 C 219.421875 363.84375 228.445312 364.066406 238.714844 364.164062 C 249.90625 362.953125 256.285156 355.558594 258.582031 347.171875 C 259.539062 343.605469 259.824219 339.875 259.410156 336.335938 C 258.996094 332.863281 258.007812 329.644531 256.414062 327.027344 C 253.605469 322.4375 248.789062 319.667969 242.222656 321.035156 C 236.097656 322.3125 229.304688 324.066406 222.355469 325.851562 C 211.640625 328.589844 200.574219 331.460938 191.773438 332.796875 C 185.871094 333.691406 181.40625 336.558594 178.886719 340.160156 C 177.582031 342.042969 176.816406 344.113281 176.6875 346.1875 C 176.558594 348.195312 177.039062 350.234375 178.15625 352.113281 C 180.386719 355.714844 185.011719 358.933594 192.570312 360.816406 Z M 210.875 374.105469 C 202.644531 373.566406 195.695312 372.703125 189.984375 371.300781 C 179.300781 368.65625 172.476562 363.589844 168.90625 357.691406 C 166.546875 353.804688 165.589844 349.628906 165.878906 345.515625 C 166.132812 341.4375 167.566406 337.484375 169.992188 334.007812 C 174.105469 328.113281 181.152344 323.492188 190.175781 322.089844 C 198.820312 320.75 209.4375 318.039062 219.707031 315.394531 C 226.976562 313.515625 234.089844 311.699219 240.019531 310.453125 C 251.820312 307.96875 260.558594 313.066406 265.660156 321.453125 C 268.085938 325.433594 269.613281 330.183594 270.1875 335.125 C 270.761719 340.003906 270.410156 345.132812 269.074219 350.011719 C 265.691406 362.410156 256.1875 373.3125 239.574219 374.96875 C 239.382812 374.96875 239.191406 375 239 375 C 228.15625 374.839844 218.78125 374.617188 210.875 374.105469 Z M 210.875 374.105469 " fill-opacity="1" fill-rule="nonzero"/><path fill="#384357" d="M 191.292969 366.042969 C 202.039062 368.6875 217.792969 369.328125 239.03125 369.515625 C 275.484375 365.882812 271.210938 309.402344 241.136719 315.714844 C 226.246094 318.835938 205.644531 325.179688 191.007812 327.410156 C 168.171875 330.917969 161.285156 358.679688 191.292969 366.042969 Z M 191.292969 366.042969 " fill-opacity="1" fill-rule="evenodd"/><path fill="#697791" d="M 239.03125 369.550781 C 275.484375 365.914062 271.210938 309.433594 241.136719 315.746094 C 237.789062 316.445312 234.152344 317.308594 230.359375 318.265625 C 244.101562 316.542969 250.351562 318.296875 254.976562 323.554688 C 265.375 335.414062 260.496094 363.144531 239.03125 369.550781 Z M 239.03125 369.550781 " fill-opacity="1" fill-rule="evenodd"/><path fill="#263042" d="M 191.292969 366.042969 C 195.566406 367.09375 200.667969 367.828125 206.570312 368.339844 C 188.265625 361.101562 183.992188 335.03125 203.410156 324.957031 C 199.011719 325.976562 194.800781 326.839844 190.972656 327.410156 C 168.171875 330.917969 161.285156 358.679688 191.292969 366.042969 Z M 191.292969 366.042969 " fill-opacity="1" fill-rule="evenodd"/><path fill="#1c1d29" d="M 120.65625 250.054688 C 119.605469 250.117188 118.585938 250.210938 117.753906 250.308594 C 117.5625 250.339844 117.371094 250.371094 117.179688 250.371094 C 114.980469 250.46875 113.097656 248.84375 113.003906 246.707031 C 112.621094 239.660156 111.984375 233.703125 110.960938 228.855469 C 110.007812 224.296875 108.761719 220.761719 107.039062 218.242188 C 106.433594 217.351562 106.210938 216.203125 106.53125 215.085938 C 107.136719 213.046875 109.335938 211.835938 111.441406 212.410156 L 126.398438 216.488281 C 127.800781 216.871094 128.949219 218.019531 129.234375 219.519531 C 129.875 222.863281 130.160156 228.378906 129.808594 233.957031 C 129.523438 238.449219 128.820312 243.105469 127.546875 246.960938 C 127.128906 248.363281 125.917969 249.480469 124.324219 249.703125 C 122.953125 249.894531 121.804688 249.957031 120.65625 250.054688 Z M 120.6875 242.179688 C 121.328125 239.535156 121.710938 236.507812 121.902344 233.476562 C 122.125 229.683594 122.058594 225.988281 121.773438 223.214844 L 117.4375 222.035156 C 117.945312 223.660156 118.394531 225.445312 118.777344 227.328125 C 119.636719 231.628906 120.273438 236.570312 120.6875 242.179688 Z M 120.6875 242.179688 " fill-opacity="1" fill-rule="nonzero"/><path fill="#eba50e" d="M 116.957031 246.546875 C 119.191406 246.195312 121.488281 246.226562 123.75 245.878906 C 126.429688 238.066406 126.398438 225.765625 125.34375 220.21875 L 110.386719 216.140625 C 114.34375 222.003906 116.160156 232.109375 116.957031 246.546875 Z M 116.957031 246.546875 " fill-opacity="1" fill-rule="evenodd"/><path fill="#c77914" d="M 126.015625 228.953125 C 126.015625 225.476562 125.757812 222.324219 125.34375 220.1875 L 110.386719 216.105469 C 112.207031 218.816406 113.609375 222.417969 114.628906 226.976562 C 118.296875 227.710938 122.09375 228.378906 126.015625 228.953125 Z M 126.015625 228.953125 " fill-opacity="1" fill-rule="evenodd"/><path fill="#1c1d29" d="M 223.3125 250.308594 C 222.480469 250.179688 221.460938 250.117188 220.410156 250.054688 C 219.261719 249.957031 218.113281 249.894531 216.710938 249.671875 C 215.113281 249.449219 213.902344 248.332031 213.488281 246.929688 C 212.214844 243.105469 211.480469 238.257812 211.191406 233.574219 C 210.839844 227.742188 211.128906 221.941406 211.765625 218.59375 C 212.054688 217.09375 213.203125 215.949219 214.605469 215.566406 L 229.527344 211.453125 C 231.632812 210.878906 233.867188 212.089844 234.441406 214.128906 C 234.757812 215.246094 234.535156 216.394531 233.929688 217.285156 C 232.238281 219.773438 230.996094 223.535156 230.070312 228.347656 C 229.082031 233.476562 228.445312 239.660156 228.0625 246.707031 C 227.964844 248.84375 226.085938 250.46875 223.882812 250.371094 C 223.695312 250.371094 223.503906 250.371094 223.3125 250.308594 Z M 219.164062 233.128906 C 219.355469 236.285156 219.738281 239.4375 220.375 242.148438 C 220.792969 236.476562 221.398438 231.34375 222.257812 226.945312 C 222.671875 224.871094 223.121094 222.929688 223.660156 221.109375 L 219.261719 222.324219 C 219.003906 225.191406 218.910156 229.113281 219.164062 233.128906 Z M 219.164062 233.128906 " fill-opacity="1" fill-rule="nonzero"/><path fill="#eba50e" d="M 224.109375 246.546875 C 221.875 246.195312 219.578125 246.226562 217.316406 245.878906 C 214.636719 238.066406 214.636719 224.871094 215.6875 219.292969 L 230.613281 215.183594 C 226.660156 221.046875 224.90625 232.109375 224.109375 246.546875 Z M 224.109375 246.546875 " fill-opacity="1" fill-rule="evenodd"/><path fill="#c77914" d="M 215.050781 228.089844 C 215.050781 224.554688 215.304688 221.398438 215.722656 219.292969 L 230.644531 215.183594 C 228.890625 217.796875 227.550781 221.398438 226.5625 225.890625 C 222.800781 226.6875 218.972656 227.421875 215.050781 228.089844 Z M 215.050781 228.089844 " fill-opacity="1" fill-rule="evenodd"/><path fill="#697791" d="M 100.503906 29.101562 C 108.539062 24.765625 118.265625 24.066406 122.21875 27.570312 C 126.175781 31.078125 122.824219 37.421875 114.789062 41.753906 C 106.753906 46.089844 97.027344 46.792969 93.074219 43.285156 C 89.117188 39.777344 92.464844 33.4375 100.503906 29.101562 Z M 100.503906 29.101562 " fill-opacity="1" fill-rule="evenodd"/><path fill="#697791" d="M 123.71875 44.972656 C 128.46875 42.425781 134.210938 42.011719 136.539062 44.082031 C 138.867188 46.152344 136.890625 49.882812 132.136719 52.433594 C 127.386719 54.984375 121.644531 55.398438 119.316406 53.324219 C 117.023438 51.285156 118.96875 47.523438 123.71875 44.972656 Z M 123.71875 44.972656 " fill-opacity="1" fill-rule="evenodd"/></svg>