<svg width="199" height="189" viewBox="0 0 199 189" fill="none" xmlns="http://www.w3.org/2000/svg">
<mask id="mask0_1313_3326" style="mask-type:luminance" maskUnits="userSpaceOnUse" x="27" y="177" width="137" height="12">
<path d="M27.6665 177.667H163.667V188.459H27.6665V177.667Z" fill="white"/>
</mask>
<g mask="url(#mask0_1313_3326)">
<path fill-rule="evenodd" clip-rule="evenodd" d="M95.5208 178.016C132.589 178.016 162.635 180.354 162.635 183.234C162.635 186.115 132.594 188.453 95.5208 188.453C58.4583 188.453 28.4062 186.115 28.4062 183.234C28.4115 180.354 58.4583 178.016 95.5208 178.016Z" fill="#1C1D29"/>
</g>
<path fill-rule="evenodd" clip-rule="evenodd" d="M186.042 134.276C187.792 137.495 176.167 138.698 168.901 139.563C166.833 139.813 166.5 140.464 169.042 140.448C185.271 140.36 197.016 137.683 195.167 134.276C193.682 131.526 183.88 129.256 171.599 128.433C171.38 128.907 171.162 129.375 170.927 129.839C177.802 130.693 184.792 131.964 186.042 134.276Z" fill="#C1C9D9"/>
<path fill-rule="evenodd" clip-rule="evenodd" d="M97.6979 16.7656C140.115 16.7656 174.505 51.1406 174.505 93.5417C174.505 95.6927 174.411 97.8333 174.234 99.9427L157.099 104.422H173.729C173.448 106.422 173.078 108.406 172.641 110.359L159.641 113.76H171.797C162.922 146.354 133.109 170.318 97.6875 170.318C62.2813 170.318 32.474 146.359 23.5885 113.786H36.4115L22.7083 110.203C21.5208 104.839 20.8906 99.2656 20.8906 93.5417C20.8906 86.849 21.7448 80.3594 23.3646 74.1667H33.5625L24.0573 71.6771C33.4792 39.9323 62.8802 16.7656 97.6979 16.7656Z" fill="#FF0000"/>
<path d="M40.1252 95.5417L38.5002 102.359L159.266 131.036C164.052 132.177 168.016 132.87 171.557 132.292C174.125 131.865 176.61 130.74 179.209 128.573L40.1252 95.5417ZM33.2033 103.38L36.3595 90.0781L188.313 126.167L185.797 128.88C181.354 133.672 177.172 135.938 172.646 136.688C168.198 137.417 163.641 136.646 158.24 135.359L32.6929 105.547L33.2033 103.38Z" fill="#1C1D29"/>
<path fill-rule="evenodd" clip-rule="evenodd" d="M38.2394 92.8125L35.5884 103.953L158.75 133.198C168.943 135.62 175.771 136.151 183.88 127.396L38.2394 92.8125Z" fill="#697791"/>
<path fill-rule="evenodd" clip-rule="evenodd" d="M38.2396 92.8125L36.1094 101.776L159.266 131.026C168.682 133.26 174.318 133.672 181.646 126.875L38.2396 92.8125Z" fill="#384357"/>
<path fill-rule="evenodd" clip-rule="evenodd" d="M111.646 122.01L121.443 124.339L138.136 116.536L128.333 114.203L111.646 122.01Z" fill="#697791"/>
<path fill-rule="evenodd" clip-rule="evenodd" d="M89.8071 116.828L104.094 120.218L120.776 112.416L106.489 109.021L89.8071 116.828Z" fill="#697791"/>
<path d="M56.9114 99.7966L55.4114 106.109C55.1041 107.385 54.2916 108.432 53.2239 109.093C52.0729 109.802 50.6302 110.067 49.1771 109.724L14.9062 101.588C13.4531 101.239 12.2812 100.354 11.5729 99.208C10.9166 98.1403 10.6614 96.833 10.9635 95.5622L12.4687 89.2445C12.7708 87.9684 13.5885 86.9216 14.6562 86.2601C15.8021 85.557 17.25 85.2862 18.7031 85.6299V85.6403L52.8541 93.7497H52.8906L52.9739 93.7705C54.4271 94.1143 55.5937 94.9997 56.3021 96.1507C56.9531 97.2184 57.2083 98.5153 56.9114 99.7966Z" fill="#1C1D29"/>
<path fill-rule="evenodd" clip-rule="evenodd" d="M54.505 99.2243L52.9998 105.532C52.6457 107.006 51.1613 107.927 49.6821 107.578L15.4113 99.443C13.9425 99.0889 13.0207 97.5993 13.3644 96.1201L14.8696 89.8024C15.2238 88.3337 16.7082 87.4118 18.1925 87.7555L52.4634 95.8962C53.9373 96.2555 54.8592 97.7503 54.505 99.2243Z" fill="#697791"/>
<path fill-rule="evenodd" clip-rule="evenodd" d="M54.2655 100.25L53.2499 104.51C53.0155 105.51 52.0051 106.135 51.0051 105.89L14.9947 97.3383C13.9947 97.1039 13.3749 96.0935 13.6145 95.0935L14.6301 90.8279C14.8593 89.8331 15.8749 89.2081 16.8749 89.4477L52.8905 98.005C53.8801 98.2393 54.5051 99.2498 54.2655 100.25Z" fill="#384357"/>
<path d="M47.7657 122.448L43.1355 121.349C41.9584 121.073 41.0105 120.343 40.4272 119.401C39.8542 118.474 39.6355 117.328 39.8959 116.208L47.599 83.8121C47.8647 82.6871 48.573 81.7652 49.5105 81.1975C50.4584 80.6142 51.6355 80.3902 52.8022 80.6663L57.4376 81.7652C58.6042 82.0413 59.5574 82.7704 60.1459 83.7184C60.7188 84.6506 60.9376 85.7965 60.6772 86.9163H60.6667L52.9584 119.302H52.9688C52.698 120.432 51.9897 121.343 51.0522 121.921C50.1199 122.505 48.9428 122.724 47.7657 122.448ZM44.6511 116.937L48.3959 117.833L55.922 86.1767L52.172 85.2861L44.6511 116.937Z" fill="#1C1D29"/>
<path fill-rule="evenodd" clip-rule="evenodd" d="M48.297 120.187L43.6668 119.094C42.6303 118.844 41.9793 117.797 42.2293 116.755L49.9272 84.3592C50.1772 83.3227 51.2241 82.6717 52.2657 82.9217L56.9011 84.0206C57.9324 84.2654 58.5834 85.3123 58.3386 86.3539L50.6355 118.75C50.3907 119.786 49.3386 120.437 48.297 120.187Z" fill="#F2E827"/>
<path fill-rule="evenodd" clip-rule="evenodd" d="M49.3956 115.578L44.7654 114.484C43.7289 114.234 43.0779 113.187 43.3279 112.146L48.8383 88.9685C49.0831 87.9321 50.1352 87.281 51.1769 87.531L55.8071 88.63C56.8435 88.8748 57.4946 89.9217 57.2446 90.9633L51.7342 114.14C51.4842 115.177 50.4321 115.817 49.3956 115.578Z" fill="#EDBE21"/>
<path fill-rule="evenodd" clip-rule="evenodd" d="M34.995 142.593C43.7241 147.968 52.1668 144.182 61.547 134.552C62.4481 136.5 62.8439 140.817 60.2866 143.317C54.4845 148.989 40.9429 155.708 33.9897 152.63C34.8908 150.01 35.4116 146.567 34.995 142.593Z" fill="#1C1D29"/>
<path fill-rule="evenodd" clip-rule="evenodd" d="M32.8335 122.146C39.396 129.38 53.1512 125.026 61.6616 137.448C63.7345 140.479 61.7866 144.437 59.245 146.489C53.7658 128.218 38.2762 140.578 27.5835 132.765C30.3179 130.406 31.9272 126.005 32.8335 122.146Z" fill="#1C1D29"/>
<mask id="mask1_1313_3326" style="mask-type:luminance" maskUnits="userSpaceOnUse" x="129" y="60" width="70" height="51">
<path d="M129 60.333H199V111H129V60.333Z" fill="white"/>
</mask>
<g mask="url(#mask1_1313_3326)">
<path d="M181.125 66.0936C174.568 66.4894 167.584 67.7081 160.995 69.6352C154.797 71.4477 148.948 73.8904 144.188 76.854C137.823 81.354 135.287 91.8644 135.542 99.1925C135.604 101.114 135.875 102.76 136.318 103.969C136.552 104.599 136.703 104.963 136.729 104.974C136.781 104.984 136.88 104.724 137.38 104.213C143.448 98.0675 150.141 93.0467 157.281 88.8748C164.386 84.7238 171.959 81.3956 179.823 78.6144C185.177 76.7186 188.776 75.0154 191 73.38C192.672 72.1509 193.391 71.0936 193.417 70.0988L193.412 69.8071C193.37 69.0988 193.021 68.3488 192.13 67.7238C190.818 66.8123 188.557 66.1456 184.875 66.0311C183.776 65.9894 182.531 66.0102 181.125 66.0936ZM159.448 64.3019C166.443 62.255 173.86 60.9634 180.802 60.5415C182.307 60.4529 183.719 60.4321 185.031 60.4738C189.927 60.6196 193.193 61.6821 195.307 63.1613C197.844 64.9321 198.828 67.2446 198.964 69.4738C198.979 69.7081 198.979 69.9634 198.974 70.2446C198.886 73.0154 197.5 75.505 194.287 77.8696C191.625 79.8331 187.557 81.7811 181.672 83.8696C174.141 86.5311 166.896 89.7186 160.089 93.6977C153.323 97.6509 147.016 102.375 141.344 108.125C139.224 110.276 137.125 110.885 135.177 110.318C133.302 109.771 131.932 108.187 131.084 105.89C130.448 104.166 130.073 101.911 129.979 99.3748C129.672 90.6821 132.912 78.0675 140.953 72.3436C141.037 72.2706 141.13 72.2081 141.229 72.1404C146.417 68.9061 152.74 66.2602 159.448 64.3019Z" fill="#1C1D29"/>
</g>
<path fill-rule="evenodd" clip-rule="evenodd" d="M180.963 63.3177C167.786 64.1145 152.901 68.1406 142.703 74.4999C129.354 83.7656 130.646 115 139.359 106.161C151.099 94.2656 165.344 86.6822 180.745 81.2343C191.984 77.2552 196.073 73.9322 196.187 70.1666C196.302 66.6979 193.411 62.5677 180.963 63.3177Z" fill="#384357"/>
<path fill-rule="evenodd" clip-rule="evenodd" d="M173.938 64.0264C163.224 65.4587 149.526 69.5524 142.709 74.5003C129.365 83.766 130.651 115 139.365 106.162C149.25 96.141 160.906 89.1878 173.542 83.9899C163.792 82.6097 165.74 67.4535 173.938 64.0264Z" fill="#263042"/>
<path d="M64.4846 96.969C61.0314 102.365 58.495 109.042 58.1668 116.755C57.8908 123.271 59.1825 130.542 62.8023 138.433C63.1825 139.261 63.12 140.183 62.7085 140.922C60.4533 145.058 55.4377 156.849 52.7033 166.927C51.0835 172.896 50.2398 177.995 51.3231 179.729C52.0835 180.938 54.8439 179.651 57.6408 177.896C60.6252 176.026 63.6304 173.448 65.3439 171.979L66.2762 171.183L66.4481 171.052C68.0002 169.766 69.3596 168.662 70.5314 167.74C71.8231 166.719 73.1512 165.709 74.5158 164.703C75.7137 163.818 77.396 164.032 78.3283 165.177C80.8596 168.021 83.1252 169.714 85.0523 170.568C86.8856 171.375 88.2398 171.36 89.0731 170.865C90.0314 170.302 90.5002 169.13 90.646 167.401C90.8439 165.026 90.4481 161.818 89.7398 157.886C89.4846 156.469 90.3491 155.115 91.6981 154.719C96.0679 152.995 100.292 152.032 104.776 151.589C109.266 151.136 113.974 151.198 119.36 151.516C120.813 151.604 121.948 152.792 121.979 154.224C122.406 162.219 123.662 168.542 125.443 172.891C126.99 176.641 128.735 178.688 130.453 178.74H130.469C130.787 178.745 131.115 178.709 131.432 178.641C134.766 177.886 137.886 173.349 140.292 167.443C142.906 161.037 144.531 153.203 144.714 146.532C144.792 143.688 144.61 141.073 144.12 138.922C143.735 137.229 142.604 136.021 141.078 135.224C138.917 134.089 136.021 133.698 133.167 133.834C131.63 133.907 130.328 132.724 130.255 131.188C130.24 130.938 130.261 130.698 130.318 130.464C131.516 124.037 133.25 118.25 135.412 112.823C137.469 107.677 139.906 102.88 142.625 98.193C142.297 96.7034 140.969 95.2711 138.896 93.9378C135.209 91.5732 129.49 89.7607 122.802 88.5523C115.938 87.3128 108.11 86.7242 100.401 86.844C84.2137 87.0992 68.745 90.3284 64.4846 96.969ZM52.6043 116.537C52.9793 107.714 55.8648 100.099 59.7971 93.969C65.1616 85.6044 82.5106 81.5732 100.323 81.2971C108.37 81.1721 116.563 81.7867 123.771 83.0888C131.162 84.4221 137.578 86.495 141.896 89.2659C145.818 91.7815 148.151 94.9221 148.25 98.7034C148.271 99.2242 148.151 99.7555 147.865 100.235C145.084 104.959 142.615 109.761 140.563 114.886C138.886 119.084 137.479 123.516 136.412 128.349C139.005 128.568 141.526 129.183 143.656 130.308C146.557 131.834 148.745 134.224 149.531 137.709C150.12 140.313 150.344 143.386 150.255 146.693C150.057 154.011 148.287 162.573 145.443 169.547C142.391 177.026 137.979 182.865 132.636 184.078C131.875 184.245 131.104 184.323 130.313 184.302H130.281C126.203 184.188 122.719 180.938 120.281 175.011C118.459 170.573 117.136 164.464 116.563 156.948C112.448 156.766 108.761 156.776 105.297 157.125C101.969 157.459 98.8023 158.11 95.5991 159.198C96.1304 162.573 96.3856 165.453 96.1825 167.87C95.8752 171.453 94.5991 174.058 91.8648 175.662C89.5991 177 86.4533 177.292 82.7866 175.672C80.6721 174.735 78.3335 173.136 75.8439 170.667C75.2398 171.125 74.6096 171.62 73.9481 172.136C72.521 173.266 71.1929 174.334 69.9689 175.344L69.8075 175.495C69.3596 175.865 69.1773 176.026 68.9325 176.229C67.1356 177.776 63.9689 180.485 60.5523 182.62C55.3075 185.901 49.6721 187.625 46.5835 182.688C44.5314 179.412 45.3075 172.776 47.2918 165.479C49.9012 155.886 54.5679 144.672 57.1616 139.505C53.5887 131.209 52.3075 123.505 52.6043 116.537Z" fill="#1C1D29"/>
<path fill-rule="evenodd" clip-rule="evenodd" d="M62.1407 95.4631C55.3542 106.046 51.8855 121.302 60.2709 139.578C56.4584 146.567 44.9532 174.802 48.9636 181.192C52.7344 187.208 65.1875 175.708 68.0573 173.328C70.9532 170.921 73.6459 168.802 76.1771 166.932C82.4844 174.062 87.6459 174.921 90.4792 173.25C94.1667 171.072 93.9688 165.692 92.4844 157.38C100.875 154.031 108.672 153.661 119.188 154.286C120.089 171.328 124.688 181.349 130.37 181.505C141.844 181.817 149.958 152.166 146.823 138.302C145.542 132.625 139.104 130.76 133.031 131.052C135.354 118.489 139.792 108.484 145.479 98.8173C145.208 81.4319 73.1719 78.26 62.1407 95.4631Z" fill="#384357"/>
<path fill-rule="evenodd" clip-rule="evenodd" d="M120.307 164.567C122.187 175.297 125.948 181.39 130.37 181.515C136.109 181.666 141 174.338 144.068 165.239C136.818 173.442 126.771 174.744 120.307 164.567Z" fill="#263042"/>
<path fill-rule="evenodd" clip-rule="evenodd" d="M59.2655 141.542C55.0937 150.136 46.5364 172.011 48.3853 179.735C50.1249 167.953 56.5207 153.396 61.3749 146.177C60.6301 144.646 59.9322 143.099 59.2655 141.542Z" fill="#697791"/>
<path fill-rule="evenodd" clip-rule="evenodd" d="M147.068 152.042C147.698 146.911 147.667 142.036 146.823 138.302C145.542 132.63 139.083 130.802 133.011 131.094L133.719 127.781L113.083 133.49C137.849 132.271 145.807 129.109 147.068 152.042Z" fill="#697791"/>
<path fill-rule="evenodd" clip-rule="evenodd" d="M51.0835 182.787C56.1252 184.078 65.5991 175.365 68.047 173.334C70.4637 171.328 72.7397 169.516 74.9012 167.891L71.8231 163.422C64.1095 170.203 59.8543 179.766 51.0835 182.787ZM93.37 157.042C101.375 154.032 109.151 153.703 119.198 154.287C116.302 148.375 97.8179 151.354 92.3179 153.495L93.37 157.042Z" fill="#263042"/>
<path fill-rule="evenodd" clip-rule="evenodd" d="M62.1407 95.4639C55.3543 106.047 51.8855 121.302 60.271 139.578L66.5782 156.016L72.1355 161.813H72.146C55.8595 127.344 55.6668 112.563 65.6147 92.6357L64.6616 92.6774C63.6303 93.542 62.7814 94.4691 62.1407 95.4639Z" fill="#697791"/>
<path fill-rule="evenodd" clip-rule="evenodd" d="M76.1769 166.932C82.4842 174.063 87.6457 174.922 90.479 173.25C94.1665 171.073 93.9686 165.693 92.4842 157.38C90.1509 150.052 87.6092 139.948 86.9009 137.693C87.0832 128.474 87.2707 119.255 87.453 110.036L78.3853 103.281C68.5103 117.089 83.0311 147.099 88.0415 158.224C89.9946 162.557 90.0311 166.688 87.6665 168.286C85.2707 169.906 78.2134 168.432 72.1353 161.807C73.4478 163.698 73.9738 164.667 76.1769 166.932Z" fill="#263042"/>
<path fill-rule="evenodd" clip-rule="evenodd" d="M134.703 123.671C137.213 114.427 140.948 106.515 145.474 98.8173C145.265 85.5881 103.562 80.5985 78.7446 86.5256C80.1509 89.5985 81.104 93.4996 81.3332 98.5985L85.3436 129.198C94.7186 118.515 119.755 116.52 134.703 123.671Z" fill="#263042"/>
<path d="M73.5885 90.8589C72.5625 91.2339 71.5937 91.6454 70.6771 92.0777C70.026 92.3902 69.4114 92.7079 68.8333 93.0412C71.6979 98.4162 75.0573 103.458 78.8333 108.234C82.7187 113.151 87.0781 117.786 91.8073 122.213C92.75 121.692 93.7291 121.13 94.7656 120.531L96.1719 119.703C91.5989 115.5 87.4687 111.104 83.7916 106.489C79.8802 101.557 76.4739 96.3693 73.5885 90.8589ZM68.3698 87.2183C70.0989 86.3954 72.0312 85.6558 74.125 85.0099C75.3698 84.6245 76.7396 85.187 77.3385 86.3849C80.2708 92.3172 83.8281 97.8849 88 103.135C92.1927 108.411 96.9948 113.369 102.396 118.062C102.583 118.234 102.755 118.427 102.896 118.651C103.687 119.901 103.323 121.557 102.073 122.348C100.422 123.406 98.8958 124.338 97.4687 125.166C96.0937 125.968 94.5416 126.833 92.8229 127.76C91.8229 128.38 90.5 128.296 89.5833 127.468C84.1354 122.505 79.1146 117.229 74.6146 111.552C70.1666 105.927 66.2708 99.937 63.0312 93.5047C62.3333 92.3433 62.6094 90.8172 63.7187 89.9787C65.0833 88.9631 66.6406 88.0412 68.3698 87.2183Z" fill="#1C1D29"/>
<path fill-rule="evenodd" clip-rule="evenodd" d="M74.9219 87.5732C71.0677 88.7712 67.7865 90.2868 65.3438 92.1253C71.6771 104.802 80.6667 115.714 91.3906 125.485C94.599 123.766 97.6823 121.974 100.63 120.089C89.5625 110.469 80.9635 99.8024 74.9219 87.5732Z" fill="#961818"/>
<path d="M138.765 93.7504C138.26 93.4379 137.724 93.1306 137.146 92.8338C136.198 92.3442 135.146 91.8858 133.979 91.4379C128.859 99.2921 122.719 106.219 115.562 112.37C108.281 118.631 99.9477 124.099 90.5623 128.948C90.6196 130.026 90.7029 131.204 90.8175 132.412C90.8696 132.917 90.9164 133.422 90.9737 133.933C100.724 129.026 109.719 123.485 117.703 116.995C125.89 110.36 133.01 102.714 138.765 93.7504ZM139.594 88.0681C141.286 88.9379 142.76 89.891 143.984 90.9223C145.067 91.7452 145.38 93.266 144.666 94.4588C138.364 104.875 130.385 113.631 121.094 121.172C111.922 128.625 101.479 134.87 90.1352 140.334C89.8748 140.485 89.5779 140.589 89.2602 140.641C87.8019 140.881 86.4164 139.881 86.1769 138.422C85.8956 136.704 85.6612 134.792 85.4842 132.928V132.922C85.2967 130.99 85.1873 129.11 85.1456 127.563C85.0675 126.506 85.6092 125.464 86.6092 124.954C96.2446 120.11 104.729 114.625 112.078 108.313C119.333 102.073 125.469 95.0213 130.489 86.9692C131.083 85.8181 132.442 85.2348 133.719 85.6567C135.844 86.3494 137.823 87.1567 139.594 88.0681Z" fill="#1C1D29"/>
<path fill-rule="evenodd" clip-rule="evenodd" d="M142.365 93.0628C140.151 91.1514 136.87 89.5212 132.885 88.1982C122.5 104.938 107.479 117.459 87.8281 127.344C87.8906 130.261 88.2552 134.479 88.8333 137.985C111.255 127.198 130.083 113.349 142.365 93.0628Z" fill="#D62727"/>
<path fill-rule="evenodd" clip-rule="evenodd" d="M142.177 92.9063C142.063 92.8073 141.943 92.7135 141.823 92.6146L141.708 92.5313L141.599 92.4427H141.589C141.443 92.3333 141.286 92.2187 141.12 92.1042L141 92.0208L140.969 91.9896C140.776 91.8594 140.578 91.7292 140.38 91.6042L140.25 91.5156C138.641 90.5052 136.708 89.5937 134.521 88.776L134.344 88.7135C134.047 88.6094 133.74 88.4948 133.438 88.3958L133.25 88.3333L132.875 88.2031C124.37 101.922 112.745 112.802 98.0156 121.719C104.297 119.766 111.661 119.073 118.714 119.651C128.036 112.13 136.078 103.422 142.365 93.0625L142.177 92.9063Z" fill="#961818"/>
<path d="M57.4321 138.906C57.1873 138.302 57.4842 137.614 58.0883 137.375C58.6925 137.135 59.38 137.432 59.6196 138.036C62.8696 146.192 66.2133 152.739 69.4633 157.895C73.7498 164.687 77.8592 169.036 81.4113 171.463C84.7238 173.739 87.4373 174.281 89.2394 173.567C89.4269 173.489 89.6144 173.395 89.7967 173.286C95.755 169.531 92.2185 158.463 88.354 146.385C87.4685 143.619 86.5675 140.802 85.7654 138.026C85.1717 135.968 84.7342 132.849 84.5363 129.895C84.3279 126.901 84.3696 124.015 84.7394 122.484C84.8904 121.854 85.5258 121.458 86.156 121.614C86.7863 121.76 87.1821 122.401 87.0258 123.031C86.7133 124.317 86.6925 126.942 86.8852 129.739C87.0779 132.562 87.479 135.489 88.0258 137.369C88.8331 140.151 89.7185 142.932 90.5988 145.666C94.7498 158.645 98.5519 170.552 91.0519 175.281C90.7602 175.463 90.4425 175.63 90.1092 175.765C87.6144 176.755 84.104 176.171 80.0779 173.416C76.2863 170.828 71.9477 166.244 67.4685 159.156C64.1508 153.89 60.7446 147.213 57.4321 138.906Z" fill="#1C1D29"/>
<path fill-rule="evenodd" clip-rule="evenodd" d="M133.031 131.057C119.453 131.932 100.26 134.812 88.3438 141.385L87.0469 134.317C100.068 127.588 117.885 124.906 135.292 123.63L133.031 131.057Z" fill="#1C1D29"/>
<path fill-rule="evenodd" clip-rule="evenodd" d="M182.146 32.4531C181.844 46.1042 171.286 52.4687 156.203 55.6198C157.51 58.0729 161.396 61.7396 165.391 60.7917C174.448 58.6302 189.339 48.724 190.74 38.75C187.672 37.776 185.698 35.8854 182.146 32.4531Z" fill="#1C1D29"/>
<path fill-rule="evenodd" clip-rule="evenodd" d="M175.083 15.75C173.427 28.6094 158.005 34.5417 157.812 54.3333C157.766 59.1615 162.198 61.6406 165.974 61.6563C159.479 38.3281 181.672 37.7656 186.943 20.9115C182.776 20.7396 178.443 18.9844 175.083 15.75Z" fill="#1C1D29"/>
<path d="M158.104 16.9638C162.703 22.5159 165.922 41.5367 165.5 60.0368C165.162 74.9274 162.495 89.7138 156.36 97.3024C156.271 97.417 156.167 97.5211 156.063 97.6149C146.677 106.907 124.25 111.839 101.886 112.203C79.4429 112.563 56.7866 108.328 47.1668 99.2763C47.0574 99.1774 46.9585 99.0732 46.8752 98.9586C40.5574 91.5263 37.4377 76.9065 36.6252 62.1253C35.6043 43.6565 38.2189 24.5367 42.6304 18.8336C42.6929 18.7555 42.7606 18.6774 42.8283 18.6097L42.9949 18.4378C54.1772 7.0107 77.146 1.0107 100.083 0.646122C123.063 0.27633 146.245 5.54196 157.771 16.6409L157.875 16.7399C157.969 16.8128 158.042 16.8857 158.104 16.9638ZM159.943 59.9274C160.344 42.693 157.698 25.3805 153.88 20.6045C143.438 10.594 121.823 5.84925 100.182 6.193C78.5262 6.54196 57.0679 11.9899 46.9585 22.3388C43.3127 27.2711 41.2449 44.6253 42.1877 61.8128C42.9429 75.5368 45.6564 88.9065 51.0783 95.3128C59.6668 103.271 80.6929 106.99 101.797 106.651C122.886 106.313 143.781 101.927 152.11 93.7034C157.339 87.1149 159.625 73.667 159.943 59.9274Z" fill="#1C1D29"/>
<path fill-rule="evenodd" clip-rule="evenodd" d="M155.964 18.7452C163.578 27.9327 167.037 79.6775 154.198 95.5629C136.604 113.209 67.2345 114.318 49.0835 97.2556C35.7397 81.7868 37.5314 29.9691 44.8491 20.5368C66.021 -1.44753 134.089 -2.53607 155.964 18.7452Z" fill="#384357"/>
<path fill-rule="evenodd" clip-rule="evenodd" d="M101.849 109.416C80.0363 109.771 58.1613 105.781 49.078 97.2445C35.729 81.7809 37.5259 29.958 44.8436 20.5257C55.6665 9.29655 78.7342 3.52572 101.63 3.39551C85.3228 5.44238 69.3905 10.3434 56.5884 17.6038C50.3332 21.1507 48.6405 21.9841 46.7186 29.2184C41.5467 48.6403 43.328 69.6299 48.5624 86.2184C50.8749 93.5622 51.5415 95.6247 58.3019 98.9163C70.5988 104.916 85.2967 107.656 101.849 109.416Z" fill="#697791"/>
<path fill-rule="evenodd" clip-rule="evenodd" d="M155.964 18.7445C163.578 27.932 167.037 79.6768 154.198 95.5622C150.75 99.0153 145.307 101.843 138.656 104.015C158.542 78.4893 159.844 28.3591 125.162 5.37988C138.011 7.71842 149.198 12.1559 155.964 18.7445Z" fill="#263042"/>
<path d="M165.229 49.6089C162.714 65.4995 151.474 76.8641 136.568 83.6506C126.099 88.4162 113.792 90.9058 101.474 91.1037C89.1459 91.3068 76.7762 89.2079 66.1668 84.7808C51.0418 78.4787 39.4428 67.4735 36.4116 51.6714C36.1772 50.437 36.9845 49.2391 38.2189 49.0099C38.6147 48.9318 39.0105 48.9631 39.3647 49.0881C62.172 54.937 81.5886 57.7339 100.927 57.4214C120.302 57.1089 139.672 53.6766 162.349 47.062C163.552 46.7131 164.813 47.4058 165.167 48.6089C165.266 48.9527 165.281 49.2912 165.229 49.6089ZM134.677 79.5152C147.094 73.8641 156.698 64.8277 159.979 52.4787C138.464 58.5256 119.771 61.6766 101.005 61.9735C82.2449 62.2808 63.4584 59.7287 41.7605 54.3745C45.4376 66.6141 55.3282 75.3381 67.9168 80.5829C77.9584 84.7704 89.698 86.7495 101.401 86.5672C113.12 86.3745 124.787 84.0204 134.677 79.5152Z" fill="#1C1D29"/>
<path fill-rule="evenodd" clip-rule="evenodd" d="M162.984 49.2549C154.807 100.849 48.4842 102.557 38.6509 51.2549C84.7967 63.1143 117.25 62.5882 162.984 49.2549Z" fill="#263042"/>
<path fill-rule="evenodd" clip-rule="evenodd" d="M145.656 75.8538C122.13 92.5986 80.8854 93.2601 56.8281 77.2861C52.4843 72.307 49.3541 63.1143 52.3281 54.4893C93.927 61.4788 105.802 63.1715 148.135 54.583C150.375 61.1872 147.266 72.583 145.656 75.8538Z" fill="#FACF89"/>
<path fill-rule="evenodd" clip-rule="evenodd" d="M51.3645 64.7236C50.9323 61.4215 51.151 57.9111 52.3385 54.4893C93.9323 61.4788 105.807 63.1715 148.141 54.583C149.156 57.5674 149.073 61.5361 148.531 65.2809C113.953 73.4684 81.5364 73.3799 51.3645 64.7236Z" fill="#F5986A"/>
<path d="M163.057 39.9321C163.557 42.1874 164.005 44.6249 164.364 47.1821C164.739 49.7863 165.047 52.5363 165.271 55.3696C165.359 56.4842 164.62 57.4842 163.562 57.7551C140.916 64.4894 119.12 67.8436 98.2082 67.729C77.229 67.6196 57.1665 64.0207 38.0311 56.8488C37.0675 56.4842 36.4894 55.5467 36.5623 54.5676C36.6613 53.0467 36.7915 51.5311 36.9477 50.0259C37.104 48.5207 37.2811 47.0832 37.4738 45.7446C37.6509 44.4999 38.8071 43.6353 40.0519 43.8124H40.0571C59.0936 46.6353 78.4061 48.3696 98.3071 47.828C118.193 47.2811 138.713 44.4634 160.187 38.1978C161.39 37.8488 162.651 38.5415 163.005 39.7446L163.057 39.9321ZM159.859 47.8176C159.625 46.203 159.37 44.6769 159.094 43.229C138.083 49.1405 117.963 51.828 98.4425 52.3644C78.9946 52.8957 60.1873 51.3019 41.6977 48.6457C41.6196 49.2551 41.5519 49.8749 41.4894 50.4894C41.4009 51.354 41.3227 52.2499 41.2446 53.1769C59.3905 59.7655 78.4009 63.078 98.2342 63.1874C118.151 63.2915 138.943 60.1665 160.578 53.8853C160.375 51.7707 160.135 49.7446 159.859 47.8176Z" fill="#1C1D29"/>
<path fill-rule="evenodd" clip-rule="evenodd" d="M160.828 40.3701C161.807 44.7191 162.557 49.9274 163.011 55.5368C118.057 68.9222 76.6095 68.8649 38.8491 54.7087C39.0627 51.6514 39.3647 48.7399 39.7502 46.0576C78.0002 51.7399 117.485 53.0264 160.828 40.3701Z" fill="#1C1D29"/>
<path fill-rule="evenodd" clip-rule="evenodd" d="M78.1042 62.5781C83.0469 62.4999 87.1355 67.4479 87.2344 73.6354C87.3334 79.8281 83.4063 84.9114 78.4636 84.9895C73.5209 85.0676 69.4323 80.1145 69.3334 73.927C69.2344 67.7395 73.1563 62.6562 78.1042 62.5781Z" fill="#1C1D29"/>
<path fill-rule="evenodd" clip-rule="evenodd" d="M80.6301 67.9788C82.5207 67.9527 84.0832 69.8434 84.1145 72.2079C84.1509 74.5725 82.6561 76.51 80.7655 76.5413C78.8749 76.5673 77.3176 74.6767 77.2811 72.3121C77.2395 69.9475 78.7395 68.0048 80.6301 67.9788Z" fill="white"/>
<path fill-rule="evenodd" clip-rule="evenodd" d="M122.036 62.5781C117.094 62.4999 113.005 67.4479 112.906 73.6354C112.807 79.8281 116.729 84.9114 121.677 84.9895C126.62 85.0676 130.708 80.1145 130.807 73.927C130.906 67.7395 126.984 62.6562 122.036 62.5781Z" fill="#1C1D29"/>
<path fill-rule="evenodd" clip-rule="evenodd" d="M119.511 67.9788C117.615 67.9527 116.057 69.8434 116.021 72.2079C115.99 74.5725 117.485 76.51 119.375 76.5413C121.266 76.5673 122.823 74.6767 122.86 72.3121C122.901 69.9475 121.401 68.0048 119.511 67.9788Z" fill="white"/>
<path fill-rule="evenodd" clip-rule="evenodd" d="M139.526 133.672C141.984 134.573 143.979 136.521 143.979 138.026C143.979 139.537 141.984 140.026 139.526 139.125C137.068 138.224 135.078 136.276 135.078 134.771C135.078 133.261 137.068 132.771 139.526 133.672Z" fill="#697791"/>
<path fill-rule="evenodd" clip-rule="evenodd" d="M135.193 139.994C136.724 140.557 137.969 141.77 137.969 142.713C137.969 143.656 136.729 143.963 135.193 143.401C133.661 142.843 132.417 141.625 132.417 140.682C132.417 139.75 133.656 139.437 135.193 139.994Z" fill="#697791"/>
<path fill-rule="evenodd" clip-rule="evenodd" d="M60.1459 14.0782C64.198 11.6824 69.1771 11.1355 71.2709 12.8595C73.3698 14.573 71.7813 17.9012 67.7292 20.2918C63.6771 22.6876 58.698 23.2345 56.599 21.5105C54.5105 19.797 56.0938 16.4689 60.1459 14.0782Z" fill="#697791"/>
<path fill-rule="evenodd" clip-rule="evenodd" d="M72.3856 21.7811C74.771 20.3696 77.7137 20.0467 78.9533 21.0571C80.1824 22.0727 79.2553 24.0311 76.8647 25.4425C74.4741 26.8488 71.5366 27.1769 70.297 26.1665C69.0626 25.1508 70.0001 23.1925 72.3856 21.7811Z" fill="#697791"/>
<path fill-rule="evenodd" clip-rule="evenodd" d="M13.5418 131.656C11.7918 134.875 23.4168 136.078 30.6877 136.943C32.7554 137.193 33.0887 137.844 30.5471 137.828C14.3179 137.734 2.57309 135.062 4.42205 131.656C5.90643 128.906 15.7033 126.635 27.9898 125.812C28.2085 126.286 28.4273 126.755 28.6616 127.219C21.7814 128.073 14.7971 129.344 13.5418 131.656Z" fill="#C1C9D9"/>
<path fill-rule="evenodd" clip-rule="evenodd" d="M14.5783 153.833C15.6824 157.74 30.4949 159.198 43.0626 160.25C46.6355 160.547 47.9585 161.339 43.9064 161.323C18.0418 161.219 1.26576 157.974 0.0990896 153.839C-0.999869 149.953 12.1251 146.859 35.1199 146.406C35.0991 146.891 35.0678 147.37 35.021 147.828C24.2814 148.854 13.6095 150.406 14.5783 153.833Z" fill="#C1C9D9"/>
<path fill-rule="evenodd" clip-rule="evenodd" d="M183.349 153.573C182.245 157.479 167.432 158.938 154.865 159.985C151.297 160.281 149.969 161.078 154.021 161.063C179.885 160.959 196.661 157.714 197.833 153.578C199 149.443 184.057 146.198 158.25 146.094C154.214 146.078 155.083 146.87 158.495 147.167C170.474 148.203 184.458 149.667 183.349 153.573Z" fill="#C1C9D9"/>
</svg>
